<svg width="1440" height="1400" viewBox="0 0 1440 1400" fill="none" xmlns="http://www.w3.org/2000/svg">
<g filter="url(#filter0_f_102_499)">
<circle cx="715" cy="700" r="500" fill="url(#paint0_radial_102_499)" fill-opacity="0.6"/>
</g>
<g style="mix-blend-mode:overlay">
<path d="M601.07 467.16C392.617 491.539 238 581.015 238 687.665C238 813.07 451.781 914.731 715.493 914.731C979.204 914.731 1192.99 813.07 1192.99 687.665C1192.99 577.564 1028.2 485.766 809.514 465" stroke="url(#paint1_angular_102_499)" stroke-width="1.70856" stroke-linecap="round"/>
</g>
<g style="mix-blend-mode:overlay">
<path d="M601.07 468.76C392.617 493.138 238 582.615 238 689.264C238 814.669 451.781 916.33 715.493 916.33C979.204 916.33 1192.99 814.669 1192.99 689.264C1192.99 579.164 1028.2 487.366 809.514 466.599" stroke="url(#paint2_angular_102_499)" stroke-width="1.70856" stroke-linecap="round"/>
</g>
<g style="mix-blend-mode:overlay">
<path d="M825.746 472.28C1036.3 495.946 1192.99 585.903 1192.99 693.263C1192.99 818.668 979.204 920.328 715.493 920.328C451.781 920.328 238 818.668 238 693.263C238 588.369 387.568 500.088 590.818 474.015" stroke="url(#paint3_angular_102_499)" stroke-width="1.70856" stroke-linecap="round"/>
</g>
<g style="mix-blend-mode:overlay">
<path d="M574.587 482.643C379.655 511.231 238 597.579 238 699.66C238 825.065 451.781 926.726 715.493 926.726C979.204 926.726 1192.99 825.065 1192.99 699.66C1192.99 594.27 1042 505.65 837.279 480.046" stroke="url(#paint4_angular_102_499)" stroke-width="1.70856" stroke-linecap="round"/>
</g>
<g style="mix-blend-mode:overlay">
<path d="M854.791 491.204C1050.55 519.553 1192.99 606.094 1192.99 708.456C1192.99 833.861 979.204 935.522 715.493 935.522C451.781 935.522 238 833.861 238 708.456C238 609.457 371.228 525.256 557.074 494.185" stroke="url(#paint5_angular_102_499)" stroke-width="1.70856" stroke-linecap="round"/>
</g>
<g style="mix-blend-mode:overlay">
<path d="M490.195 297.756C127.801 340.138 -141 495.692 -141 681.102C-141 899.118 230.657 1075.85 689.119 1075.85C1147.58 1075.85 1519.24 899.118 1519.24 681.102C1519.24 489.693 1232.76 330.102 852.575 294" stroke="url(#paint6_angular_102_499)" stroke-width="2.97033" stroke-linecap="round"/>
</g>
<g style="mix-blend-mode:overlay">
<path d="M490.195 300.536C127.801 342.918 -141 498.472 -141 683.882C-141 901.898 230.657 1078.63 689.119 1078.63C1147.58 1078.63 1519.24 901.898 1519.24 683.882C1519.24 492.473 1232.76 332.882 852.575 296.78" stroke="url(#paint7_angular_102_499)" stroke-width="2.97033" stroke-linecap="round"/>
</g>
<g style="mix-blend-mode:overlay">
<path d="M880.794 306.656C1246.85 347.8 1519.24 504.19 1519.24 690.834C1519.24 908.85 1147.58 1085.59 689.119 1085.59C230.657 1085.59 -141 908.85 -141 690.834C-141 508.476 119.023 354.999 472.373 309.672" stroke="url(#paint8_angular_102_499)" stroke-width="2.97033" stroke-linecap="round"/>
</g>
<g style="mix-blend-mode:overlay">
<path d="M444.155 324.672C105.266 374.372 -141 524.487 -141 701.955C-141 919.971 230.657 1096.71 689.119 1096.71C1147.58 1096.71 1519.24 919.971 1519.24 701.955C1519.24 518.735 1256.75 364.67 900.843 320.158" stroke="url(#paint9_angular_102_499)" stroke-width="2.97033" stroke-linecap="round"/>
</g>
<g style="mix-blend-mode:overlay">
<path d="M931.289 339.556C1271.62 388.84 1519.24 539.292 1519.24 717.247C1519.24 935.263 1147.58 1112 689.119 1112C230.657 1112 -141 935.263 -141 717.247C-141 545.139 90.6161 398.756 413.709 344.739" stroke="url(#paint10_angular_102_499)" stroke-width="2.97033" stroke-linecap="round"/>
</g>
<defs>
<filter id="filter0_f_102_499" x="15" y="0" width="1400" height="1400" filterUnits="userSpaceOnUse" color-interpolation-filters="sRGB">
<feFlood flood-opacity="0" result="BackgroundImageFix"/>
<feBlend mode="normal" in="SourceGraphic" in2="BackgroundImageFix" result="shape"/>
<feGaussianBlur stdDeviation="100" result="effect1_foregroundBlur_102_499"/>
</filter>
<radialGradient id="paint0_radial_102_499" cx="0" cy="0" r="1" gradientUnits="userSpaceOnUse" gradientTransform="translate(680 785) rotate(89.2284) scale(594.054)">
<stop stop-color="#2954A3"/>
<stop offset="1" stop-color="#0F103F"/>
</radialGradient>
<radialGradient id="paint1_angular_102_499" cx="0" cy="0" r="1" gradientUnits="userSpaceOnUse" gradientTransform="translate(722.381 709.459) scale(508.767 237.904)">
<stop offset="0.458333" stop-color="white"/>
<stop offset="0.717799" stop-color="white" stop-opacity="0"/>
<stop offset="0.782437" stop-color="white" stop-opacity="0"/>
<stop offset="1" stop-color="white" stop-opacity="0.4"/>
</radialGradient>
<radialGradient id="paint2_angular_102_499" cx="0" cy="0" r="1" gradientUnits="userSpaceOnUse" gradientTransform="translate(722.381 711.059) scale(508.767 237.905)">
<stop offset="0.458333" stop-color="white"/>
<stop offset="0.717799" stop-color="white" stop-opacity="0"/>
<stop offset="0.782437" stop-color="white" stop-opacity="0"/>
<stop offset="1" stop-color="white" stop-opacity="0.4"/>
</radialGradient>
<radialGradient id="paint3_angular_102_499" cx="0" cy="0" r="1" gradientUnits="userSpaceOnUse" gradientTransform="translate(722.381 715.825) scale(508.767 237.015)">
<stop offset="0.458333" stop-color="white"/>
<stop offset="0.717799" stop-color="white" stop-opacity="0"/>
<stop offset="0.782437" stop-color="white" stop-opacity="0"/>
<stop offset="1" stop-color="white" stop-opacity="0.4"/>
</radialGradient>
<radialGradient id="paint4_angular_102_499" cx="0" cy="0" r="1" gradientUnits="userSpaceOnUse" gradientTransform="translate(722.381 722.847) scale(508.767 236.29)">
<stop offset="0.458333" stop-color="white"/>
<stop offset="0.717799" stop-color="white" stop-opacity="0"/>
<stop offset="0.782437" stop-color="white" stop-opacity="0"/>
<stop offset="1" stop-color="white" stop-opacity="0.4"/>
</radialGradient>
<radialGradient id="paint5_angular_102_499" cx="0" cy="0" r="1" gradientUnits="userSpaceOnUse" gradientTransform="translate(722.381 732.721) scale(508.767 235.041)">
<stop offset="0.458333" stop-color="white"/>
<stop offset="0.717799" stop-color="white" stop-opacity="0"/>
<stop offset="0.782437" stop-color="white" stop-opacity="0"/>
<stop offset="1" stop-color="white" stop-opacity="0.4"/>
</radialGradient>
<radialGradient id="paint6_angular_102_499" cx="0" cy="0" r="1" gradientUnits="userSpaceOnUse" gradientTransform="translate(701.095 718.992) scale(884.489 413.596)">
<stop offset="0.458333" stop-color="white"/>
<stop offset="0.717799" stop-color="white" stop-opacity="0"/>
<stop offset="0.782437" stop-color="white" stop-opacity="0"/>
<stop offset="1" stop-color="white" stop-opacity="0.4"/>
</radialGradient>
<radialGradient id="paint7_angular_102_499" cx="0" cy="0" r="1" gradientUnits="userSpaceOnUse" gradientTransform="translate(701.095 721.772) scale(884.489 413.596)">
<stop offset="0.458333" stop-color="white"/>
<stop offset="0.717799" stop-color="white" stop-opacity="0"/>
<stop offset="0.782437" stop-color="white" stop-opacity="0"/>
<stop offset="1" stop-color="white" stop-opacity="0.4"/>
</radialGradient>
<radialGradient id="paint8_angular_102_499" cx="0" cy="0" r="1" gradientUnits="userSpaceOnUse" gradientTransform="translate(701.095 730.058) scale(884.489 412.049)">
<stop offset="0.458333" stop-color="white"/>
<stop offset="0.717799" stop-color="white" stop-opacity="0"/>
<stop offset="0.782437" stop-color="white" stop-opacity="0"/>
<stop offset="1" stop-color="white" stop-opacity="0.4"/>
</radialGradient>
<radialGradient id="paint9_angular_102_499" cx="0" cy="0" r="1" gradientUnits="userSpaceOnUse" gradientTransform="translate(701.095 742.266) scale(884.489 410.79)">
<stop offset="0.458333" stop-color="white"/>
<stop offset="0.717799" stop-color="white" stop-opacity="0"/>
<stop offset="0.782437" stop-color="white" stop-opacity="0"/>
<stop offset="1" stop-color="white" stop-opacity="0.4"/>
</radialGradient>
<radialGradient id="paint10_angular_102_499" cx="0" cy="0" r="1" gradientUnits="userSpaceOnUse" gradientTransform="translate(701.095 759.432) scale(884.489 408.618)">
<stop offset="0.458333" stop-color="white"/>
<stop offset="0.717799" stop-color="white" stop-opacity="0"/>
<stop offset="0.782437" stop-color="white" stop-opacity="0"/>
<stop offset="1" stop-color="white" stop-opacity="0.4"/>
</radialGradient>
</defs>
</svg>
