<svg width="1112" height="960" viewBox="0 0 1112 960" fill="none" xmlns="http://www.w3.org/2000/svg">
<g filter="url(#filter0_f_102_534)">
<circle cx="510.5" cy="601.5" r="429.5" fill="url(#paint0_radial_102_534)" fill-opacity="0.6"/>
</g>
<g style="mix-blend-mode:overlay">
<path d="M422.501 503.443C217.717 527.333 65.8209 615.013 65.8209 719.522C65.8209 842.41 275.839 942.031 534.91 942.031C793.981 942.031 1004 842.41 1004 719.522C1004 611.632 842.115 521.676 627.278 501.326" stroke="url(#paint1_angular_102_534)" stroke-width="1.70856" stroke-linecap="round"/>
</g>
<g style="mix-blend-mode:overlay">
<path d="M422.501 505.01C217.717 528.9 65.8209 616.581 65.8209 721.09C65.8209 843.978 275.839 943.598 534.91 943.598C793.981 943.598 1004 843.978 1004 721.09C1004 613.199 842.115 523.243 627.278 502.893" stroke="url(#paint2_angular_102_534)" stroke-width="1.70856" stroke-linecap="round"/>
</g>
<g style="mix-blend-mode:overlay">
<path d="M643.224 508.46C850.075 531.652 1004 619.803 1004 725.008C1004 847.896 793.981 947.516 534.91 947.516C275.839 947.516 65.8209 847.896 65.8209 725.008C65.8209 622.219 212.757 535.71 412.43 510.16" stroke="url(#paint3_angular_102_534)" stroke-width="1.70856" stroke-linecap="round"/>
</g>
<g style="mix-blend-mode:overlay">
<path d="M396.485 518.615C204.983 546.629 65.8209 631.244 65.8209 731.277C65.8209 854.165 275.839 953.785 534.91 953.785C793.981 953.785 1004 854.165 1004 731.277C1004 628.002 855.671 541.16 654.553 516.071" stroke="url(#paint4_angular_102_534)" stroke-width="1.70856" stroke-linecap="round"/>
</g>
<g style="mix-blend-mode:overlay">
<path d="M671.758 527.005C864.073 554.784 1004 639.589 1004 739.896C1004 862.784 793.981 962.405 534.91 962.405C275.839 962.405 65.8209 862.784 65.8209 739.896C65.8209 642.885 196.704 560.374 379.28 529.926" stroke="url(#paint5_angular_102_534)" stroke-width="1.70856" stroke-linecap="round"/>
</g>
<rect x="185" y="211" width="630" height="630" rx="315" fill="url(#paint6_linear_102_534)"/>
<g clip-path="url(#clip0_102_534)">
<path fill-rule="evenodd" clip-rule="evenodd" d="M691.955 553.579C688.708 562.623 679.793 568.237 670.199 567.277L475.126 553.773C453.562 551.618 434.049 531.227 442.028 504.137C445.439 482.686 466.399 469.11 487.45 474.72L676.942 525.203C689.236 528.478 696.223 541.685 691.955 553.579Z" fill="#FFC999"/>
<path fill-rule="evenodd" clip-rule="evenodd" d="M517.831 500.336C517.831 500.336 523.338 435.601 520.238 375.786C517.408 321.243 506.843 273.834 472.597 274.25C429.592 274.769 437.133 350.913 438.011 389.646C438.642 417.521 445.32 475.538 451.103 505.577C460.327 553.49 520.532 542.547 517.831 500.336Z" fill="#FFC999"/>
<path fill-rule="evenodd" clip-rule="evenodd" d="M438.365 405.268C437.487 366.535 427.976 275.157 481.353 273.941C519.01 273.084 521.943 333.781 522.43 406.563L438.365 405.268Z" fill="#ADCBFF"/>
<path fill-rule="evenodd" clip-rule="evenodd" d="M593.812 757.547C476.613 763.154 382.458 745.909 382.458 745.909C382.458 745.909 293.264 698.069 358.049 649.703C389.418 626.282 463.241 639.686 592.649 661.928C592.649 661.928 653.218 668.899 648.395 719.808C644.356 762.416 593.812 757.547 593.812 757.547Z" fill="#FFC999"/>
<path fill-rule="evenodd" clip-rule="evenodd" d="M529.066 757.253C530.029 709.6 550.302 651.292 550.302 651.292C512.527 645.772 452.959 634.129 319.157 628.697C269.006 695.258 352.235 753.522 352.235 753.522L529.066 757.253Z" fill="#597EF7"/>
<path d="M550.733 651.092C550.173 650.839 549.527 651.118 549.29 651.715C546.274 659.309 543.583 667.509 541.198 676.227C536.439 693.625 533.094 712.255 530.918 730.882C530.232 736.749 529.709 742.239 529.326 747.24L529.203 748.888C529.112 750.157 529.034 751.331 528.969 752.405L528.847 754.601L352.247 752.35C351.7 752.343 351.241 752.763 351.15 753.319L351.133 753.509C351.127 754.092 351.52 754.58 352.042 754.678L352.221 754.696L529.88 756.96C530.475 756.967 530.969 756.469 530.993 755.835L531.079 754.075L531.217 751.738C531.27 750.903 531.33 750.012 531.398 749.068C531.787 743.669 532.345 737.652 533.102 731.172C535.265 712.659 538.589 694.149 543.312 676.883C545.674 668.249 548.337 660.134 551.318 652.629C551.555 652.032 551.293 651.344 550.733 651.092Z" fill="#253368"/>
<path fill-rule="evenodd" clip-rule="evenodd" d="M518.978 784.849C483.079 870.072 466.03 932.468 419.704 1011.45C414.082 1021.03 426.541 1030.51 439.169 1037.88C452.215 1079.94 498.605 1121.6 511.807 1115.73C519.733 1112.2 515.866 1076.15 501.538 1060.1C469.505 1024.22 498.373 977.953 498.373 977.953C498.373 977.953 571.131 859.47 625.374 767.614C625.374 767.614 672.428 703.561 627.725 678.632C568.131 645.397 531.231 755.764 518.978 784.849Z" fill="#F4B784"/>
<path fill-rule="evenodd" clip-rule="evenodd" d="M436.837 264.019C436.837 264.019 424.572 304.622 381.367 300.822C331.219 296.406 327.447 252.941 327.447 252.941L339.782 249.895C342.342 249.263 344.279 247.071 344.69 244.309C346.158 234.458 349.751 209.332 353.344 176.087C397.589 164.804 426.196 181.188 426.196 181.188C426.196 181.188 422.365 220.691 420.025 249.851C419.799 252.682 421.22 255.365 423.615 256.607C427.746 258.752 434.01 262.086 436.837 264.019Z" fill="#FFC999"/>
<path fill-rule="evenodd" clip-rule="evenodd" d="M344.755 142.232C344.755 142.232 347.57 77.7657 393.188 80.3208C448.288 83.4076 448.139 116.752 450.246 132.54C452.48 149.315 450.431 218.704 416.094 229.944C401.602 233.647 392.657 235.633 369.971 218.36C336.961 193.228 344.755 142.232 344.755 142.232Z" fill="#FFC999"/>
<path fill-rule="evenodd" clip-rule="evenodd" d="M353.682 191.177L356.371 155.177C356.371 155.177 331.791 135.277 327.059 153.251C322.23 171.575 333.056 185.786 343.689 191.396C350.526 195.002 353.682 191.177 353.682 191.177Z" fill="#FFC999"/>
<path fill-rule="evenodd" clip-rule="evenodd" d="M371.226 66.9653C371.226 66.9653 401.45 49.6612 414.346 53.7488C427.242 57.8363 415.776 67.4813 415.776 67.4813C415.776 67.4813 452.849 65.1045 455.279 74.2272C457.713 83.35 444.16 85.977 444.16 85.977C444.16 85.977 478.726 100.732 479.257 112.301C479.785 123.869 463.329 119.387 463.329 119.387C463.329 119.387 474.337 137.136 469.282 146.312C464.233 155.491 456.125 153.411 456.125 153.411L449.085 165.611L449.849 138.252C449.849 138.252 437.669 130.85 415.3 115.972C428.008 133.317 419.155 132.326 407.439 128.379C393.706 123.753 377.825 116.676 378.7 116.338C378.7 116.338 376.536 133.946 364.68 140.751C350.14 149.092 357.778 170.531 354.129 171.012C347.107 172.004 350.005 152.257 337.197 147.294C327.008 145.28 326.673 131.666 329.993 127.459C316.628 123.91 318.633 109.083 337.426 98.1835C322.434 94.3086 333.343 80.4665 356.551 76.8449C352.174 49.3579 371.226 66.9653 371.226 66.9653Z" fill="#301F07"/>
<path d="M399.122 139.759C391.857 138.199 384.192 138.012 377.169 138.622L376.059 138.727L374.527 138.905C374.431 138.918 374.354 138.929 374.296 138.937C373.092 139.116 372.252 140.301 372.419 141.584C372.576 142.782 373.556 143.641 374.665 143.605L375.57 143.497C376.136 143.429 376.792 143.361 377.527 143.297C384.174 142.72 391.453 142.898 398.252 144.358C399.751 144.68 401.196 145.061 402.581 145.503C403.745 145.875 404.973 145.17 405.322 143.929C405.671 142.689 405.01 141.381 403.845 141.009C402.327 140.524 400.751 140.109 399.122 139.759Z" fill="#253368"/>
<path d="M444.221 146.222C437.036 142.037 429.64 141.424 423.034 142.885L422.209 143.08C421.445 143.274 420.862 143.461 420.484 143.606C419.34 144.046 418.747 145.39 419.159 146.608C419.572 147.827 420.834 148.459 421.977 148.019L422.28 147.913C422.648 147.794 423.205 147.638 423.928 147.478C429.593 146.226 435.953 146.752 442.109 150.338C443.176 150.96 444.513 150.542 445.097 149.405C445.68 148.269 445.288 146.844 444.221 146.222Z" fill="#253368"/>
<path d="M420.344 146.992C419.846 146.766 419.278 146.966 418.998 147.438L418.916 147.606L415.983 154.955L415.897 155.364L414.932 181.829L405.712 182.979C405.175 183.046 404.775 183.52 404.751 184.078L404.757 184.266C404.82 184.839 405.265 185.265 405.788 185.291L405.965 185.284L416.111 184.021C416.584 183.962 416.959 183.584 417.052 183.099L417.072 182.913L418.067 155.667L420.92 148.514C421.132 147.983 420.944 147.378 420.501 147.079L420.344 146.992Z" fill="#DD936F"/>
<path d="M395.077 160.207C389.952 155.548 384.645 155.171 379.946 157.364C378.932 157.837 378.188 158.32 377.754 158.669C377.108 159.19 376.98 160.171 377.468 160.86C377.957 161.549 378.878 161.685 379.524 161.164C379.786 160.953 380.338 160.596 381.124 160.229C384.864 158.483 388.98 158.776 393.172 162.586C393.788 163.146 394.715 163.068 395.241 162.411C395.767 161.754 395.694 160.767 395.077 160.207Z" fill="#253368"/>
<path d="M433.1 160.718C430.747 160.229 428.297 160.607 425.921 161.52C424.938 161.898 424.185 162.281 423.737 162.552C423.032 162.978 422.785 163.933 423.185 164.684C423.585 165.435 424.481 165.698 425.186 165.272L425.524 165.083C425.862 164.906 426.337 164.685 426.917 164.462C428.838 163.724 430.786 163.423 432.538 163.787C434.069 164.105 435.385 164.922 436.476 166.354C436.986 167.025 437.911 167.128 438.54 166.583C439.17 166.039 439.266 165.055 438.755 164.384C437.222 162.369 435.293 161.174 433.1 160.718Z" fill="#253368"/>
<path fill-rule="evenodd" clip-rule="evenodd" d="M389.845 188.325C389.845 188.325 404.975 193.835 420.002 193.144C420.002 193.144 415.076 202.239 404.658 200.982C391.504 199.399 389.845 188.325 389.845 188.325Z" fill="rgba(15, 16, 63, 1)"/>
<path d="M390.247 187.073L390.825 187.274C391.308 187.437 391.87 187.62 392.506 187.817C394.327 188.381 396.368 188.946 398.578 189.474C405.262 191.069 411.989 191.98 418.304 191.874L419.949 191.823C420.928 191.778 421.568 192.901 421.078 193.805C420.473 194.923 419.295 196.531 417.513 198.134C414.032 201.263 409.69 202.92 404.518 202.296C398.827 201.611 394.671 199.195 391.868 195.591C389.834 192.976 388.892 190.353 388.619 188.533C388.472 187.548 389.361 186.75 390.247 187.073ZM392.765 190.647L391.743 190.333L391.558 189.859C392.052 191.236 392.779 192.616 393.78 193.903C396.176 196.983 399.748 199.06 404.798 199.667C409.242 200.203 412.922 198.799 415.911 196.112L416.435 195.62C416.66 195.399 416.876 195.175 417.083 194.949L417.454 194.524L416.944 194.527C410.826 194.493 404.408 193.576 398.035 192.055C396.149 191.606 394.383 191.129 392.765 190.647Z" fill="#FF7A46"/>
<path d="M378.16 225.866C377.636 225.551 376.972 225.747 376.676 226.305C376.38 226.863 376.564 227.571 377.088 227.886C392.207 236.993 405.596 237.334 416.516 232.411C418.015 231.736 419.329 231.01 420.45 230.282L420.985 229.925C421.387 229.648 421.681 229.425 421.864 229.273C422.338 228.878 422.422 228.149 422.051 227.644C421.681 227.139 420.997 227.05 420.523 227.444L420.306 227.615C420.083 227.784 419.752 228.018 419.317 228.3C418.284 228.971 417.065 229.644 415.668 230.274C405.347 234.927 392.666 234.604 378.16 225.866Z" fill="#DD936F"/>
<path d="M398.872 207.099C398.276 207.013 397.728 207.459 397.647 208.094C397.575 208.665 397.907 209.196 398.408 209.358L398.581 209.398L405.976 210.459C406.572 210.544 407.12 210.098 407.201 209.463C407.273 208.892 406.941 208.362 406.44 208.199L406.267 208.159L398.872 207.099Z" fill="#DD936F"/>
<path d="M341.002 157.536C338.653 154.44 335.996 153.838 333.647 154.775C333.276 154.923 332.998 155.078 332.824 155.2C332.32 155.55 332.178 156.269 332.507 156.806C332.8 157.282 333.365 157.455 333.841 157.241L334.152 157.065C334.219 157.031 334.306 156.99 334.411 156.948C335.924 156.344 337.582 156.72 339.308 158.995C339.915 159.794 340.499 160.807 341.051 162.05L341.451 162.963C341.88 163.954 342.175 164.689 342.357 165.213L342.473 165.56L342.381 165.568C341.606 165.637 341.079 165.777 340.494 166.158L340.238 166.337C339.645 166.779 339.134 167.415 338.704 168.265C336.094 173.429 340.661 178.06 346.587 178.72C347.185 178.786 347.72 178.324 347.783 177.686C347.845 177.049 347.411 176.479 346.813 176.412C342.184 175.897 338.969 172.636 340.622 169.365C340.897 168.822 341.185 168.464 341.487 168.238C341.794 168.009 342.05 167.927 342.57 167.88L342.853 167.859C344.13 167.782 344.878 167.33 344.76 165.879C344.69 165.034 344.207 163.731 343.02 161.057C342.397 159.655 341.723 158.485 341.002 157.536Z" fill="#DD936F"/>
<path d="M353.371 190.065C352.794 190.248 352.466 190.894 352.638 191.508L352.876 192.327L353.357 193.891C353.416 194.077 353.477 194.266 353.539 194.459C354.251 196.665 355.041 198.871 355.888 200.936C357.576 205.052 359.271 208.087 361 209.671C361.457 210.089 362.144 210.033 362.536 209.547C362.928 209.061 362.876 208.329 362.42 207.911C361.013 206.622 359.448 203.819 357.884 200.006C357.063 198.005 356.293 195.855 355.599 193.704L355.254 192.617L354.725 190.847C354.554 190.232 353.947 189.883 353.371 190.065Z" fill="#DD936F"/>
<path fill-rule="evenodd" clip-rule="evenodd" d="M449.035 538.097C461.538 556.602 448.345 573.756 448.345 573.756C400 578.375 278.944 577.318 278.944 577.318C258.994 570.457 269.979 527.542 269.979 527.542C269.979 527.542 258.386 431.501 249.5 355.961C245.678 323.433 241.583 296.355 249.811 281.9C263.045 258.651 297.15 257.353 333.216 250.069C334.273 252.446 340.479 269.897 376.785 275.267C413.527 280.706 426.543 262.491 427.823 259.355C445.903 264.193 465.175 264.84 486.331 272.615C492.763 274.979 488.765 284.046 487.576 291.183L480.105 320.358C480.105 320.358 475.614 380.712 449.035 538.097Z" fill="#ADCBFF"/>
<path d="M477.691 329.798C477.084 329.755 476.559 330.243 476.518 330.89L476.354 333.231L476.05 337.14C475.868 339.402 475.652 341.934 475.401 344.731L474.981 349.305C474.053 359.181 472.868 370.452 471.392 383.075L471.156 385.08C465.945 429.238 458.36 480.375 447.955 537.874C447.912 538.11 447.939 538.355 448.031 538.574C455.178 555.62 453.845 565.272 447.543 569.758C446.398 570.574 445.165 571.143 443.932 571.506L443.419 571.647C442.943 571.766 442.591 571.825 442.435 571.841L420.655 571.993L404.382 572.144C389.762 572.294 375.23 572.478 361.217 572.702L345.334 572.978C317.014 573.51 294.059 574.179 278.289 575.001C277.682 575.033 277.214 575.583 277.243 576.23C277.273 576.877 277.789 577.376 278.397 577.344L284.371 577.055C299.022 576.396 318.595 575.844 342.003 575.387L348.795 575.26C366.549 574.938 385.403 574.684 404.403 574.49L426.027 574.295L442.529 574.183C442.951 574.147 443.644 574.025 444.519 573.767C445.966 573.34 447.412 572.673 448.767 571.708C455.964 566.584 457.536 555.954 450.394 538.469L450.182 537.955L450.726 534.94L451.95 528.089C461.029 476.938 467.84 430.977 472.709 390.66L473.341 385.372C474.929 371.915 476.194 359.953 477.172 349.537L477.593 344.954C477.916 341.348 478.181 338.181 478.393 335.461L478.715 331.048C478.756 330.401 478.297 329.842 477.691 329.798Z" fill="#A3B5D6"/>
<path fill-rule="evenodd" clip-rule="evenodd" d="M259.947 716.013C259.947 716.013 269.808 763.416 389.299 756.292C419.949 754.465 450.576 733.461 472.351 710.862C472.578 636.883 449.117 595.216 449.117 595.216L269.224 595.87C269.224 595.87 246.723 664.06 259.947 716.013Z" fill="#597EF7"/>
<path fill-rule="evenodd" clip-rule="evenodd" d="M449.637 595.818L448.008 571.011L271.109 572.04L267.71 595.955C267.71 595.955 431.466 596.496 449.637 595.818Z" fill="#597EF7"/>
<path d="M317.615 595.161C298.059 595.193 281.601 595.281 268.919 595.434C268.311 595.441 267.824 595.972 267.831 596.62C267.838 597.267 268.336 597.786 268.944 597.779L277.946 597.687C294.254 597.545 315.267 597.485 339.982 597.495L354.202 597.507C363.012 597.519 372.039 597.539 381.195 597.565L450.456 597.87C451.064 597.874 451.56 597.352 451.564 596.704C451.567 596.056 451.077 595.528 450.469 595.524L413.647 595.336L381.201 595.22C372.044 595.193 363.016 595.174 354.204 595.162L317.615 595.161Z" fill="#253368"/>
<path d="M446.33 569.989L414.317 570.063L380.865 570.171C369.823 570.211 358.944 570.257 348.39 570.308L318.639 570.474C300.52 570.589 285.036 570.72 272.746 570.868C272.139 570.875 271.651 571.406 271.658 572.054C271.665 572.701 272.163 573.22 272.771 573.213L296.436 572.98C307.723 572.887 320.497 572.802 334.552 572.725L362.135 572.591C372.937 572.545 383.995 572.503 395.146 572.466L446.334 572.334C446.942 572.333 447.433 571.807 447.433 571.16C447.433 570.512 446.938 569.988 446.33 569.989Z" fill="#253368"/>
<path fill-rule="evenodd" clip-rule="evenodd" d="M370.83 583.144C370.904 585.412 373.188 587.169 375.921 587.066C378.66 586.963 380.817 585.043 380.744 582.772C380.67 580.505 378.389 578.75 375.654 578.85C372.915 578.953 370.757 580.874 370.83 583.144Z" fill="#253368"/>
<path d="M396.815 572.045L396.636 572.048C396.091 572.103 395.677 572.572 395.641 573.136L395.644 573.326L397.849 597.983C397.868 598.198 397.942 598.403 398.064 598.576L398.719 599.545L399.382 600.565C399.727 601.105 400.093 601.689 400.474 602.313C402.294 605.292 404.115 608.586 405.813 612.099C409.734 620.207 412.402 628.217 413.253 635.662C413.977 641.995 413.343 647.672 411.174 652.551C410.914 653.136 411.148 653.835 411.698 654.112C412.247 654.39 412.904 654.14 413.164 653.554C415.527 648.24 416.21 642.124 415.439 635.378C414.552 627.618 411.8 619.359 407.771 611.024C406.036 607.436 404.178 604.075 402.319 601.034L401.561 599.811C401.316 599.422 401.08 599.053 400.853 598.704L400.222 597.748L400.011 597.439L397.836 573.104C397.79 572.588 397.437 572.182 396.987 572.072L396.815 572.045Z" fill="#253368"/>
<path fill-rule="evenodd" clip-rule="evenodd" d="M233.877 528.103C233.877 528.103 222.379 458.999 220.576 394.348C218.929 335.396 226.236 283.365 263.171 280.466C309.541 276.825 307.968 359.474 310.354 401.229C312.068 431.277 309.864 494.345 306.218 527.224C300.397 579.668 234.596 573.776 233.877 528.103Z" fill="#FFC999"/>
<path fill-rule="evenodd" clip-rule="evenodd" d="M310.586 405.322C308.275 364.831 324.847 263.414 267.239 267.311C226.594 270.063 215.489 327.358 221.09 403.33L310.586 405.322Z" fill="#ADCBFF"/>
<path fill-rule="evenodd" clip-rule="evenodd" d="M594.233 753.602C468.797 766.534 364.347 749.13 364.347 749.13C364.347 749.13 327.923 698.6 353.621 660.232C376.97 625.364 458.314 639.616 593.728 647.303C593.728 647.303 655.838 648.307 651.955 707.45C649.148 750.196 594.233 753.602 594.233 753.602Z" fill="#FFC999"/>
<path fill-rule="evenodd" clip-rule="evenodd" d="M510.329 763.416C507.822 740.155 511.368 718.45 512.81 700.605C515.725 664.517 520.254 642.406 520.254 642.406C482.248 639.138 384.341 633.015 285.158 639.176C220.218 723.792 306.177 759.013 306.177 759.013L510.329 763.416Z" fill="#597EF7"/>
<path d="M374.485 633.015C373.878 632.978 373.358 633.473 373.324 634.12C373.293 634.702 373.666 635.208 374.184 635.331L374.361 635.356L519.931 644.081L519.694 644.996C518.118 651.22 516.718 657.74 515.486 664.526L515.032 667.083C509.692 697.837 508.119 729.89 508.647 756.926L508.728 760.412L508.816 763.032C508.845 763.679 509.36 764.179 509.968 764.148C510.575 764.118 511.044 763.569 511.016 762.922L510.945 760.909C510.929 760.357 510.913 759.756 510.897 759.107C510.239 731.761 511.741 698.929 517.197 667.509C518.673 659.012 520.406 650.925 522.413 643.309C522.587 642.648 522.194 641.984 521.586 641.846L521.415 641.821L374.485 633.015Z" fill="#253368"/>
<path fill-rule="evenodd" clip-rule="evenodd" d="M598.504 832.59C634.004 928.746 667.138 991.367 689.938 1091.49C692.706 1103.63 709.377 1100.46 724.618 1095.52C765.922 1117.06 832.729 1110.19 838.582 1094.53C842.096 1085.12 812.344 1060.5 789.344 1060.16C737.94 1059.4 725.919 999.292 725.919 999.292C725.919 999.292 681.68 813.162 655.442 696.415C655.442 696.415 641.918 645.788 600.891 659.43C529.865 683.051 586.387 799.771 598.504 832.59Z" fill="#FFC999"/>
<path d="M499.621 644.247C499.03 644.097 498.436 644.486 498.296 645.116L497.924 646.868L497.459 649.18C497.351 649.732 497.239 650.309 497.125 650.912L496.951 651.833C495.945 657.202 494.94 663.262 494.001 669.887C490.079 697.583 488.514 725.968 490.668 752.486C490.786 753.93 490.914 755.363 491.053 756.787C491.116 757.431 491.658 757.899 492.262 757.832C492.867 757.765 493.306 757.188 493.243 756.544C493.105 755.134 492.978 753.714 492.862 752.284C490.725 725.975 492.28 697.765 496.178 670.237L496.693 666.701C497.388 662.062 498.111 657.734 498.837 653.764L499.11 652.292C499.343 651.049 499.564 649.903 499.773 648.859L500.438 645.659C500.578 645.029 500.213 644.397 499.621 644.247Z" fill="#253368"/>
<path d="M312.821 332.429C312.227 332.413 311.723 332.862 311.616 333.465L311.595 333.671L309.97 402.874L225.177 402.874C224.582 402.874 224.089 403.337 223.996 403.942L223.981 404.149C223.981 404.782 224.414 405.308 224.983 405.407L225.177 405.423H311.136C311.72 405.423 312.208 404.977 312.311 404.384L312.331 404.181L313.987 333.735C314.004 333.032 313.482 332.447 312.821 332.429Z" fill="#A3B5D6"/>
<path fill-rule="evenodd" clip-rule="evenodd" d="M486.555 572.146C483.311 581.191 474.393 586.805 464.8 585.845L269.73 572.34C248.165 570.185 228.65 549.794 236.631 522.705C240.04 501.253 260.999 487.677 282.05 493.285L471.546 543.768C483.84 547.046 490.826 560.25 486.555 572.146Z" fill="#FFC999"/>
<path fill-rule="evenodd" clip-rule="evenodd" d="M563.857 684.353L391.112 669.913L556.163 601.191L699.564 628.171L563.857 684.353Z" fill="#CCD7EE"/>
<path fill-rule="evenodd" clip-rule="evenodd" d="M569.352 671.142L443.89 660.652L560.822 610.741L667.913 630.338L569.352 671.142Z" fill="#4E5C93"/>
<path fill-rule="evenodd" clip-rule="evenodd" d="M391.909 679.284L391.082 669.977L567.273 683.225L565.06 693.42L391.909 679.284Z" fill="#253368"/>
<path d="M585.091 617.054C584.943 616.71 584.591 616.535 584.258 616.618L584.117 616.669L489.42 662.949C489.051 663.129 488.89 663.593 489.059 663.985C489.207 664.329 489.559 664.503 489.891 664.421L490.032 664.37L584.729 618.09C585.098 617.91 585.26 617.446 585.091 617.054Z" fill="#CCD7EE"/>
<path d="M571.751 612.618C571.608 612.272 571.259 612.091 570.925 612.167L570.784 612.216L464.731 661.77C464.36 661.944 464.191 662.405 464.354 662.801C464.496 663.147 464.846 663.328 465.179 663.251L465.321 663.203L571.373 613.648C571.744 613.475 571.913 613.014 571.751 612.618Z" fill="#CCD7EE"/>
<path d="M587.263 626.373C587.11 626.032 586.756 625.863 586.425 625.95L586.285 626.003L506.861 666.25C506.495 666.436 506.339 666.902 506.513 667.292C506.665 667.633 507.02 667.803 507.351 667.716L507.491 667.662L586.915 627.415C587.281 627.23 587.437 626.763 587.263 626.373Z" fill="#CCD7EE"/>
<path d="M609.875 626.874C609.723 626.533 609.369 626.363 609.037 626.451L608.898 626.504L529.473 666.751C529.107 666.936 528.952 667.403 529.126 667.793C529.278 668.134 529.632 668.303 529.964 668.216L530.104 668.163L609.528 627.916C609.894 627.73 610.05 627.264 609.875 626.874Z" fill="#CCD7EE"/>
<path d="M630.877 628.891C630.725 628.55 630.371 628.38 630.039 628.468L629.899 628.521L550.475 668.768C550.109 668.954 549.954 669.42 550.128 669.81C550.28 670.151 550.634 670.321 550.966 670.234L551.106 670.18L630.53 629.933C630.896 629.748 631.051 629.281 630.877 628.891Z" fill="#CCD7EE"/>
<path d="M463.734 653.23C463.329 653.211 462.986 653.545 462.968 653.977C462.953 654.354 463.191 654.681 463.522 654.77L463.669 654.792L570.74 659.821C571.145 659.84 571.488 659.506 571.507 659.075C571.521 658.697 571.283 658.37 570.952 658.282L570.805 658.259L463.734 653.23Z" fill="#CCD7EE"/>
<path d="M486.602 642.418C486.197 642.399 485.854 642.734 485.835 643.165C485.821 643.543 486.059 643.869 486.39 643.958L486.537 643.981L593.608 649.01C594.013 649.029 594.356 648.694 594.374 648.263C594.389 647.886 594.151 647.559 593.82 647.47L593.673 647.447L486.602 642.418Z" fill="#CCD7EE"/>
<path d="M515.321 634.074C514.916 634.055 514.573 634.39 514.555 634.821C514.54 635.198 514.778 635.525 515.109 635.614L515.256 635.637L622.33 640.665C622.735 640.685 623.078 640.35 623.096 639.919C623.111 639.541 622.873 639.215 622.542 639.126L622.395 639.103L515.321 634.074Z" fill="#CCD7EE"/>
<path d="M533.886 616.783C533.481 616.764 533.138 617.099 533.12 617.53C533.105 617.908 533.343 618.234 533.674 618.323L533.821 618.346L640.895 623.374C641.3 623.393 641.643 623.059 641.661 622.628C641.676 622.25 641.438 621.924 641.107 621.835L640.96 621.812L533.886 616.783Z" fill="#CCD7EE"/>
<path fill-rule="evenodd" clip-rule="evenodd" d="M565.199 693.416L572.919 693.481L701.211 638.401L736.843 397.012L597.381 439.048L565.199 693.416Z" fill="#253368"/>
<path fill-rule="evenodd" clip-rule="evenodd" d="M573.194 693.471L708.487 635.457C709.726 634.925 710.61 633.74 710.818 632.339L745.299 400.339C745.731 397.421 743.18 395.013 740.514 395.82L608.244 435.898C606.794 436.336 605.726 437.649 605.526 439.241L573.194 693.471Z" fill="#494F67"/>
<path fill-rule="evenodd" clip-rule="evenodd" d="M470.96 588.202C484.907 598.635 528.08 591.795 528.08 591.795L556.863 606.967C561.31 608.865 562.376 605.703 564.577 605.703C570.51 605.703 570.51 599.067 570.51 599.067C572.556 598.032 575.85 599.698 576.742 593.691C576.742 593.691 580.896 593.375 581.193 588.002C581.348 585.162 554.303 544.174 554.303 544.174L513.942 545.347C513.942 545.347 454.982 546.522 448.368 560.612C441.757 574.701 470.96 588.202 470.96 588.202Z" fill="#FFC999"/>
<path d="M531.121 565.711C530.545 565.492 529.912 565.812 529.707 566.425C529.522 566.977 529.746 567.579 530.212 567.853L530.377 567.932L546.736 574.154L566.771 597.38C566.901 597.515 567.101 597.756 567.315 598.073L567.478 598.324C568.037 599.228 568.276 600.095 568.094 600.804C567.785 601.999 566.255 603.076 562.969 603.776C562.37 603.904 561.981 604.525 562.101 605.164C562.221 605.802 562.804 606.216 563.404 606.089C567.422 605.232 569.652 603.663 570.228 601.429C570.613 599.934 570.201 598.441 569.326 597.027C569.016 596.526 568.706 596.125 568.482 595.871L568.358 595.738L548.182 572.344C548.101 572.25 548.006 572.171 547.902 572.11L547.739 572.032L531.121 565.711Z" fill="#DD936F"/>
<path d="M541.019 555.642C540.467 555.361 539.806 555.61 539.543 556.198C539.306 556.727 539.472 557.35 539.909 557.674L540.065 557.77L552.893 564.292L572.079 589.757L572.224 589.931L572.449 590.217C572.74 590.598 573.032 591.02 573.304 591.469C573.914 592.479 574.322 593.463 574.441 594.323C574.688 596.123 573.657 597.33 570.335 597.9C569.731 598.004 569.321 598.609 569.418 599.252C569.515 599.894 570.083 600.332 570.687 600.228C575.114 599.468 577.071 597.179 576.631 593.981C576.459 592.733 575.931 591.461 575.164 590.192C574.846 589.665 574.506 589.173 574.165 588.727L573.855 588.335L573.749 588.212L554.459 562.608C554.39 562.515 554.308 562.435 554.217 562.369L554.073 562.282L541.019 555.642Z" fill="#DD936F"/>
<path d="M520.859 576.409C520.257 576.293 519.681 576.717 519.572 577.358C519.474 577.935 519.787 578.49 520.289 578.68L520.463 578.729L539.718 582.456L560.59 604.079L560.594 604.119C560.601 604.253 560.59 604.39 560.557 604.519L560.49 604.708C560.178 605.378 559.14 605.852 556.89 605.788C555.025 605.737 551.344 603.965 546.557 600.935C545.574 600.313 544.556 599.645 543.509 598.938C541.811 597.792 540.098 596.583 538.418 595.359L536.186 593.709L533.881 591.95C533.725 591.828 533.541 591.751 533.348 591.728L532.246 591.613L530.511 591.461C530.095 591.428 529.658 591.395 529.202 591.363C524.015 591.002 518.249 590.879 512.242 591.134L508.092 591.337C490.559 592.232 480.318 591.172 468.385 585.198L467.587 584.792L467.178 584.677L367.995 577.631C367.385 577.588 366.858 578.079 366.817 578.729C366.78 579.314 367.151 579.827 367.67 579.956L367.848 579.984L466.819 587.014L467.448 587.334C479.513 593.376 489.861 594.553 507.018 593.75L511.869 593.51L512.33 593.49C518.254 593.239 523.943 593.361 529.058 593.717L530.345 593.812L532.338 593.99L532.812 594.038L534.366 595.227C534.721 595.494 535.094 595.774 535.483 596.064C537.711 597.722 540.03 599.381 542.324 600.93C543.388 601.648 544.424 602.328 545.426 602.962L546.684 603.745C551.197 606.511 554.64 608.085 556.832 608.145C559.857 608.232 561.715 607.383 562.473 605.757C562.834 604.982 562.877 604.187 562.741 603.459L562.684 603.206C562.674 603.171 562.665 603.14 562.656 603.112C562.619 602.995 562.564 602.885 562.495 602.786L562.38 602.647L541.018 580.517C540.9 580.395 540.758 580.303 540.603 580.246L540.445 580.203L520.859 576.409Z" fill="#DD936F"/>
<path d="M293.813 493.137C293.222 492.971 292.616 493.346 292.46 493.976C292.32 494.542 292.591 495.122 293.078 495.353L293.248 495.417L478.942 547.661L479.256 547.699L553.715 545.371L580.217 588.559L580.308 588.76C580.344 588.846 580.384 588.948 580.426 589.064L580.49 589.249C580.676 589.811 580.78 590.366 580.766 590.844C580.727 592.154 579.801 592.822 576.849 592.518C576.241 592.456 575.7 592.931 575.641 593.579C575.583 594.227 576.028 594.803 576.637 594.866C580.752 595.288 582.895 593.744 582.981 590.918C583.002 590.107 582.847 589.279 582.577 588.464C582.466 588.129 582.354 587.848 582.238 587.598L582.12 587.358L555.227 543.53C555.051 543.244 554.77 543.056 554.458 543.008L554.268 542.997L479.357 545.338L293.813 493.137Z" fill="#DD936F"/>
<path d="M331.584 269.076C331.124 268.57 330.367 268.557 329.892 269.047C329.418 269.537 329.406 270.344 329.865 270.849C339.454 281.393 350.823 288.239 363.589 291.823C380.798 296.655 399.161 295.354 416.795 290.267C420.229 289.277 423.35 288.215 426.099 287.151L427.201 286.717C427.549 286.577 427.879 286.441 428.19 286.311L429.548 285.719C430.153 285.437 430.429 284.686 430.164 284.041C429.899 283.396 429.194 283.102 428.589 283.384L427.749 283.755L426.847 284.133C426.367 284.33 425.845 284.538 425.282 284.756C422.594 285.795 419.537 286.836 416.169 287.807C398.906 292.787 380.943 294.06 364.198 289.359C351.844 285.89 340.86 279.276 331.584 269.076Z" fill="#A3B5D6"/>
</g>
<mask id="mask0_102_534" style="mask-type:alpha" maskUnits="userSpaceOnUse" x="682" y="776" width="252" height="289">
<rect x="682.781" y="776.635" width="251.044" height="287.992" fill="url(#paint7_linear_102_534)"/>
</mask>
<g mask="url(#mask0_102_534)">
<g opacity="0.8">
<path d="M815.001 793.764L877.029 827.391L906.681 876.607L862.114 1038.21L815 1010.96L815.001 793.764Z" fill="url(#paint8_linear_102_534)"/>
<path opacity="0.8" d="M814.999 793.764L815 905.371L869.783 873.104L877.028 827.391L814.999 793.764Z" fill="url(#paint9_linear_102_534)" fill-opacity="0.7"/>
<g opacity="0.8">
<path d="M814.999 793.766L752.961 827.398L723.318 876.608L767.886 1038.21L814.999 1010.96L814.999 793.766Z" fill="url(#paint10_linear_102_534)" fill-opacity="0.7"/>
<path d="M814.999 793.766L752.961 827.398L723.318 876.608L767.886 1038.21L814.999 1010.96L814.999 793.766Z" fill="url(#paint11_linear_102_534)" fill-opacity="0.5"/>
</g>
<path d="M815.001 879.579L783.803 861.536L815.001 843.494L846.198 861.536L815.001 879.579Z" fill="url(#paint12_linear_102_534)" fill-opacity="0.5"/>
<path opacity="0.8" d="M815 793.764L814.999 905.371L760.216 873.104L752.972 827.391L815 793.764Z" fill="url(#paint13_linear_102_534)"/>
<path d="M723.319 876.608L752.972 827.391L760.217 873.104L723.319 876.608Z" fill="url(#paint14_linear_102_534)" fill-opacity="0.7"/>
<path d="M815.001 922.097L764.227 892.733L815.001 863.369L865.774 892.733L815.001 922.097Z" fill="url(#paint15_linear_102_534)" fill-opacity="0.7"/>
<path d="M815.001 922.097L764.227 892.733L815.001 863.369L865.774 892.733L815.001 922.097Z" fill="url(#paint16_linear_102_534)" fill-opacity="0.7"/>
<path d="M815.002 863.37L764.229 892.732L783.805 861.535L815.002 843.493L815.002 863.37Z" fill="url(#paint17_linear_102_534)" fill-opacity="0.9"/>
<path d="M815.001 863.362L865.773 892.725L840.271 1039.36L815.001 1024.74L815.001 863.362Z" fill="url(#paint18_linear_102_534)" fill-opacity="0.6"/>
<path d="M815 863.362L764.228 892.725L789.73 1039.36L815 1024.74L815 863.362Z" fill="url(#paint19_linear_102_534)" fill-opacity="0.9"/>
<path d="M815.002 863.37L865.774 892.732L846.198 861.535L815.002 843.493L815.002 863.37Z" fill="url(#paint20_linear_102_534)" fill-opacity="0.9"/>
<path d="M906.681 876.608L877.028 827.391L869.783 873.104L906.681 876.608Z" fill="url(#paint21_linear_102_534)" fill-opacity="0.7"/>
</g>
</g>
<g filter="url(#filter1_f_102_534)">
<ellipse cx="815" cy="821.333" rx="173" ry="75.5522" fill="url(#paint22_radial_102_534)" fill-opacity="0.6"/>
</g>
<g filter="url(#filter2_f_102_534)">
<ellipse cx="815" cy="821.333" rx="122.884" ry="53.6655" fill="url(#paint23_radial_102_534)" fill-opacity="0.6"/>
</g>
<path d="M814.999 759.097L905.043 811.173L814.999 863.249L724.955 811.173L814.999 759.097Z" fill="url(#paint24_linear_102_534)" fill-opacity="0.5"/>
<path d="M814.999 828.625L752.971 794.999L723.318 745.782L767.886 584.183L815 611.432L814.999 828.625Z" fill="url(#paint25_linear_102_534)"/>
<path opacity="0.8" d="M815 828.625L814.999 717.018L760.217 749.285L752.972 794.998L815 828.625Z" fill="url(#paint26_linear_102_534)" fill-opacity="0.7"/>
<g opacity="0.8">
<path d="M815 828.624L877.039 794.991L906.681 745.782L862.114 584.183L815 611.432L815 828.624Z" fill="url(#paint27_linear_102_534)" fill-opacity="0.7"/>
<path d="M815 828.624L877.039 794.991L906.681 745.782L862.114 584.183L815 611.432L815 828.624Z" fill="url(#paint28_linear_102_534)" fill-opacity="0.5"/>
</g>
<path d="M767.884 584.183L815 611.432L815 556.934L767.884 584.183Z" fill="url(#paint29_linear_102_534)"/>
<path d="M814.999 742.81L846.196 760.853L814.999 778.895L783.802 760.853L814.999 742.81Z" fill="url(#paint30_linear_102_534)" fill-opacity="0.5"/>
<path d="M862.116 584.183L814.999 556.934L814.999 611.432L862.116 584.183Z" fill="url(#paint31_linear_102_534)" fill-opacity="0.8"/>
<path d="M814.999 568.418L840.27 583.034L814.999 597.649L789.728 583.034L814.999 568.418Z" fill="url(#paint32_linear_102_534)" fill-opacity="0.6"/>
<path opacity="0.8" d="M815.001 828.625L815.002 717.018L869.784 749.285L877.029 794.998L815.001 828.625Z" fill="url(#paint33_linear_102_534)"/>
<path d="M906.681 745.781L877.029 794.998L869.784 749.285L906.681 745.781Z" fill="url(#paint34_linear_102_534)" fill-opacity="0.7"/>
<path d="M814.999 700.292L865.773 729.656L814.999 759.02L764.226 729.656L814.999 700.292Z" fill="url(#paint35_linear_102_534)" fill-opacity="0.7"/>
<path d="M814.999 700.292L865.773 729.656L814.999 759.02L764.226 729.656L814.999 700.292Z" fill="url(#paint36_linear_102_534)" fill-opacity="0.7"/>
<path d="M814.998 759.019L865.771 729.656L846.195 760.854L814.998 778.896V759.019Z" fill="url(#paint37_linear_102_534)" fill-opacity="0.9"/>
<path d="M814.999 759.027L764.227 729.664L789.729 583.033L814.999 597.649L814.999 759.027Z" fill="url(#paint38_linear_102_534)" fill-opacity="0.6"/>
<path d="M815 759.027L865.772 729.664L840.269 583.033L815 597.649L815 759.027Z" fill="url(#paint39_linear_102_534)" fill-opacity="0.9"/>
<path d="M814.998 759.019L764.226 729.656L783.802 760.854L814.998 778.896V759.019Z" fill="url(#paint40_linear_102_534)" fill-opacity="0.9"/>
<path d="M723.319 745.781L752.972 794.998L760.217 749.285L723.319 745.781Z" fill="url(#paint41_linear_102_534)" fill-opacity="0.7"/>
<defs>
<filter id="filter0_f_102_534" x="-90.8" y="0.199997" width="1202.6" height="1202.6" filterUnits="userSpaceOnUse" color-interpolation-filters="sRGB">
<feFlood flood-opacity="0" result="BackgroundImageFix"/>
<feBlend mode="normal" in="SourceGraphic" in2="BackgroundImageFix" result="shape"/>
<feGaussianBlur stdDeviation="85.9" result="effect1_foregroundBlur_102_534"/>
</filter>
<filter id="filter1_f_102_534" x="634.592" y="738.373" width="360.816" height="165.921" filterUnits="userSpaceOnUse" color-interpolation-filters="sRGB">
<feFlood flood-opacity="0" result="BackgroundImageFix"/>
<feBlend mode="normal" in="SourceGraphic" in2="BackgroundImageFix" result="shape"/>
<feGaussianBlur stdDeviation="3.70408" result="effect1_foregroundBlur_102_534"/>
</filter>
<filter id="filter2_f_102_534" x="684.709" y="760.259" width="260.584" height="122.147" filterUnits="userSpaceOnUse" color-interpolation-filters="sRGB">
<feFlood flood-opacity="0" result="BackgroundImageFix"/>
<feBlend mode="normal" in="SourceGraphic" in2="BackgroundImageFix" result="shape"/>
<feGaussianBlur stdDeviation="3.70408" result="effect1_foregroundBlur_102_534"/>
</filter>
<radialGradient id="paint0_radial_102_534" cx="0" cy="0" r="1" gradientUnits="userSpaceOnUse" gradientTransform="translate(464.973 588.615) rotate(89.3883) scale(482.785)">
<stop stop-color="rgba(15, 16, 63, 1)"/>
<stop offset="1" stop-color="rgba(15, 16, 63, 0.1)"/>
</radialGradient>
<radialGradient id="paint1_angular_102_534" cx="0" cy="0" r="1" gradientUnits="userSpaceOnUse" gradientTransform="translate(541.678 740.88) scale(499.813 233.13)">
<stop offset="0.458333" stop-color="rgba(15, 16, 63, 1)"/>
<stop offset="0.717799" stop-color="rgba(15, 16, 63, 1)" stop-opacity="0"/>
<stop offset="0.782437" stop-color="rgba(15, 16, 63, 1)" stop-opacity="0"/>
<stop offset="1" stop-color="rgba(15, 16, 63, 1)" stop-opacity="0.4"/>
</radialGradient>
<radialGradient id="paint2_angular_102_534" cx="0" cy="0" r="1" gradientUnits="userSpaceOnUse" gradientTransform="translate(541.678 742.447) scale(499.813 233.13)">
<stop offset="0.458333" stop-color="rgba(15, 16, 63, 1)"/>
<stop offset="0.717799" stop-color="rgba(15, 16, 63, 1)" stop-opacity="0"/>
<stop offset="0.782437" stop-color="rgba(15, 16, 63, 1)" stop-opacity="0"/>
<stop offset="1" stop-color="rgba(15, 16, 63, 1)" stop-opacity="0.4"/>
</radialGradient>
<radialGradient id="paint3_angular_102_534" cx="0" cy="0" r="1" gradientUnits="userSpaceOnUse" gradientTransform="translate(541.678 747.117) scale(499.813 232.258)">
<stop offset="0.458333" stop-color="rgba(15, 16, 63, 1)"/>
<stop offset="0.717799" stop-color="rgba(15, 16, 63, 1)" stop-opacity="0"/>
<stop offset="0.782437" stop-color="rgba(15, 16, 63, 1)" stop-opacity="0"/>
<stop offset="1" stop-color="rgba(15, 16, 63, 1)" stop-opacity="0.4"/>
</radialGradient>
<radialGradient id="paint4_angular_102_534" cx="0" cy="0" r="1" gradientUnits="userSpaceOnUse" gradientTransform="translate(541.678 753.999) scale(499.813 231.548)">
<stop offset="0.458333" stop-color="rgba(15, 16, 63, 1)"/>
<stop offset="0.717799" stop-color="rgba(15, 16, 63, 1)" stop-opacity="0"/>
<stop offset="0.782437" stop-color="rgba(15, 16, 63, 1)" stop-opacity="0"/>
<stop offset="1" stop-color="rgba(15, 16, 63, 1)" stop-opacity="0.4"/>
</radialGradient>
<radialGradient id="paint5_angular_102_534" cx="0" cy="0" r="1" gradientUnits="userSpaceOnUse" gradientTransform="translate(541.678 763.675) scale(499.813 230.324)">
<stop offset="0.458333" stop-color="rgba(15, 16, 63, 1)"/>
<stop offset="0.717799" stop-color="rgba(15, 16, 63, 1)" stop-opacity="0"/>
<stop offset="0.782437" stop-color="rgba(15, 16, 63, 1)" stop-opacity="0"/>
<stop offset="1" stop-color="rgba(15, 16, 63, 1)" stop-opacity="0.4"/>
</radialGradient>
<linearGradient id="paint6_linear_102_534" x1="311" y1="269" x2="709" y2="819" gradientUnits="userSpaceOnUse">
<stop stop-color="#C961DE"/>
<stop offset="1" stop-color="rgba(15, 16, 63, 1)"/>
</linearGradient>
<linearGradient id="paint7_linear_102_534" x1="808.303" y1="662.877" x2="808.303" y2="974.172" gradientUnits="userSpaceOnUse">
<stop/>
<stop offset="1" stop-opacity="0"/>
</linearGradient>
<linearGradient id="paint8_linear_102_534" x1="634.541" y1="1055.31" x2="621.318" y2="872.577" gradientUnits="userSpaceOnUse">
<stop stop-color="#3D79ED"/>
<stop offset="0.265625" stop-color="#3458C1" stop-opacity="0.7"/>
<stop offset="0.618879" stop-color="#3753B8" stop-opacity="0.7"/>
<stop offset="0.895833" stop-color="#5BB0FF" stop-opacity="0.9"/>
<stop offset="1" stop-color="#5BB0FF" stop-opacity="0.6"/>
</linearGradient>
<linearGradient id="paint9_linear_102_534" x1="822.336" y1="808.493" x2="854.246" y2="879.262" gradientUnits="userSpaceOnUse">
<stop offset="0.046875" stop-color="rgba(15, 16, 63, 1)"/>
<stop offset="0.427083" stop-color="#DFF4FF"/>
<stop offset="0.994792" stop-color="#0E42C8"/>
</linearGradient>
<linearGradient id="paint10_linear_102_534" x1="723.319" y1="787.031" x2="829.514" y2="868.055" gradientUnits="userSpaceOnUse">
<stop offset="0.280479" stop-color="rgba(15, 16, 63, 1)"/>
<stop offset="0.469567" stop-color="#FF79DA"/>
<stop offset="0.692708" stop-color="#3D3AE3" stop-opacity="0.9"/>
</linearGradient>
<linearGradient id="paint11_linear_102_534" x1="723.319" y1="798.358" x2="828.298" y2="899.112" gradientUnits="userSpaceOnUse">
<stop offset="0.161458" stop-color="rgba(15, 16, 63, 1)"/>
<stop offset="1" stop-color="rgba(15, 16, 63, 1)" stop-opacity="0"/>
</linearGradient>
<linearGradient id="paint12_linear_102_534" x1="797.095" y1="851.358" x2="840.026" y2="861.536" gradientUnits="userSpaceOnUse">
<stop stop-color="#81FF6C"/>
<stop offset="1" stop-color="#31F3FF"/>
</linearGradient>
<linearGradient id="paint13_linear_102_534" x1="765.103" y1="811.473" x2="788.305" y2="893.818" gradientUnits="userSpaceOnUse">
<stop offset="0.103809" stop-color="rgba(15, 16, 63, 1)"/>
<stop offset="0.436548" stop-color="#FFAACE" stop-opacity="0.8"/>
<stop offset="0.71875" stop-color="#6F97FF" stop-opacity="0.8"/>
</linearGradient>
<linearGradient id="paint14_linear_102_534" x1="741.768" y1="840.089" x2="760.217" y2="876.608" gradientUnits="userSpaceOnUse">
<stop stop-color="rgba(15, 16, 63, 1)"/>
<stop offset="0.591466" stop-color="#FF94D4"/>
<stop offset="1" stop-color="#C994FF"/>
</linearGradient>
<linearGradient id="paint15_linear_102_534" x1="785.859" y1="876.168" x2="855.729" y2="892.733" gradientUnits="userSpaceOnUse">
<stop stop-color="#81FF6C"/>
<stop offset="1" stop-color="#31F3FF"/>
</linearGradient>
<linearGradient id="paint16_linear_102_534" x1="815.001" y1="865.477" x2="815.001" y2="923.437" gradientUnits="userSpaceOnUse">
<stop stop-color="rgba(15, 16, 63, 1)"/>
<stop offset="1" stop-color="rgba(15, 16, 63, 1)" stop-opacity="0"/>
</linearGradient>
<linearGradient id="paint17_linear_102_534" x1="761.753" y1="892.732" x2="813.716" y2="845.814" gradientUnits="userSpaceOnUse">
<stop offset="0.149863" stop-color="rgba(15, 16, 63, 1)"/>
<stop offset="0.300261" stop-color="#8CFF31"/>
<stop offset="0.449118" stop-color="#45C3EB"/>
<stop offset="1" stop-color="#72E6FF"/>
</linearGradient>
<linearGradient id="paint18_linear_102_534" x1="837.67" y1="863.362" x2="918.208" y2="919.796" gradientUnits="userSpaceOnUse">
<stop stop-color="#6CFFED"/>
<stop offset="1" stop-color="#197F9F"/>
</linearGradient>
<linearGradient id="paint19_linear_102_534" x1="637.561" y1="929.345" x2="721.686" y2="1017.43" gradientUnits="userSpaceOnUse">
<stop offset="0.464598" stop-color="rgba(15, 16, 63, 1)"/>
<stop offset="0.790313" stop-color="#6DF390"/>
<stop offset="1" stop-color="#21CAFF" stop-opacity="0.9"/>
</linearGradient>
<linearGradient id="paint20_linear_102_534" x1="865.774" y1="892.732" x2="816.286" y2="845.882" gradientUnits="userSpaceOnUse">
<stop offset="0.125" stop-color="rgba(15, 16, 63, 1)"/>
<stop offset="0.297772" stop-color="#8CFF31"/>
<stop offset="0.447917" stop-color="#5BF5FF"/>
</linearGradient>
<linearGradient id="paint21_linear_102_534" x1="875.098" y1="823.397" x2="882.252" y2="876.608" gradientUnits="userSpaceOnUse">
<stop stop-color="#DFF4FF"/>
<stop offset="0.994792" stop-color="#0E42C8"/>
</linearGradient>
<radialGradient id="paint22_radial_102_534" cx="0" cy="0" r="1" gradientUnits="userSpaceOnUse" gradientTransform="translate(815 821.333) rotate(90) scale(75.5522 173)">
<stop stop-color="#739AFF"/>
<stop offset="1" stop-color="#6978FF" stop-opacity="0"/>
</radialGradient>
<radialGradient id="paint23_radial_102_534" cx="0" cy="0" r="1" gradientUnits="userSpaceOnUse" gradientTransform="translate(815 821.333) rotate(90) scale(53.6655 122.884)">
<stop stop-color="#739AFF"/>
<stop offset="1" stop-color="#6978FF" stop-opacity="0"/>
</radialGradient>
<linearGradient id="paint24_linear_102_534" x1="860.021" y1="766.151" x2="769.977" y2="856.195" gradientUnits="userSpaceOnUse">
<stop stop-color="#6C7BFF"/>
<stop offset="1" stop-color="#31B5FF"/>
</linearGradient>
<linearGradient id="paint25_linear_102_534" x1="995.459" y1="567.08" x2="1008.68" y2="749.812" gradientUnits="userSpaceOnUse">
<stop stop-color="#3D79ED"/>
<stop offset="0.265625" stop-color="#3458C1" stop-opacity="0.7"/>
<stop offset="0.618879" stop-color="#3753B8" stop-opacity="0.7"/>
<stop offset="0.895833" stop-color="#5BB0FF" stop-opacity="0.9"/>
<stop offset="1" stop-color="#5BB0FF" stop-opacity="0.6"/>
</linearGradient>
<linearGradient id="paint26_linear_102_534" x1="807.664" y1="813.896" x2="775.754" y2="743.127" gradientUnits="userSpaceOnUse">
<stop offset="0.046875" stop-color="rgba(15, 16, 63, 1)"/>
<stop offset="0.427083" stop-color="#DFF4FF"/>
<stop offset="0.994792" stop-color="#0E42C8"/>
</linearGradient>
<linearGradient id="paint27_linear_102_534" x1="906.681" y1="835.359" x2="800.486" y2="754.335" gradientUnits="userSpaceOnUse">
<stop offset="0.280479" stop-color="rgba(15, 16, 63, 1)"/>
<stop offset="0.469567" stop-color="#FF79DA"/>
<stop offset="0.692708" stop-color="#3D3AE3" stop-opacity="0.9"/>
</linearGradient>
<linearGradient id="paint28_linear_102_534" x1="906.681" y1="824.031" x2="801.702" y2="723.278" gradientUnits="userSpaceOnUse">
<stop offset="0.161458" stop-color="rgba(15, 16, 63, 1)"/>
<stop offset="1" stop-color="rgba(15, 16, 63, 1)" stop-opacity="0"/>
</linearGradient>
<linearGradient id="paint29_linear_102_534" x1="815.116" y1="557.839" x2="790.375" y2="598.379" gradientUnits="userSpaceOnUse">
<stop stop-color="#1AD6FF"/>
<stop offset="1" stop-color="#496BE4" stop-opacity="0.6"/>
<stop offset="1" stop-color="#1F3CA3"/>
</linearGradient>
<linearGradient id="paint30_linear_102_534" x1="832.905" y1="771.031" x2="789.974" y2="760.853" gradientUnits="userSpaceOnUse">
<stop stop-color="#81FF6C"/>
<stop offset="1" stop-color="#31F3FF"/>
</linearGradient>
<linearGradient id="paint31_linear_102_534" x1="862.116" y1="581.388" x2="817.203" y2="577.215" gradientUnits="userSpaceOnUse">
<stop stop-color="#FF79C9"/>
<stop offset="1" stop-color="#1F3CA3"/>
</linearGradient>
<linearGradient id="paint32_linear_102_534" x1="835.386" y1="586.456" x2="805.577" y2="583.033" gradientUnits="userSpaceOnUse">
<stop stop-color="#52FF6E"/>
<stop offset="1" stop-color="#31FFFF"/>
</linearGradient>
<linearGradient id="paint33_linear_102_534" x1="864.897" y1="810.915" x2="841.696" y2="728.57" gradientUnits="userSpaceOnUse">
<stop offset="0.103809" stop-color="rgba(15, 16, 63, 1)"/>
<stop offset="0.436548" stop-color="#FFAACE" stop-opacity="0.8"/>
<stop offset="0.71875" stop-color="#6F97FF" stop-opacity="0.8"/>
</linearGradient>
<linearGradient id="paint34_linear_102_534" x1="888.233" y1="782.299" x2="869.784" y2="745.781" gradientUnits="userSpaceOnUse">
<stop stop-color="rgba(15, 16, 63, 1)"/>
<stop offset="0.591466" stop-color="#FF94D4"/>
<stop offset="1" stop-color="#C994FF"/>
</linearGradient>
<linearGradient id="paint35_linear_102_534" x1="844.141" y1="746.221" x2="774.271" y2="729.656" gradientUnits="userSpaceOnUse">
<stop stop-color="#81FF6C"/>
<stop offset="1" stop-color="#31F3FF"/>
</linearGradient>
<linearGradient id="paint36_linear_102_534" x1="814.999" y1="756.912" x2="814.999" y2="698.951" gradientUnits="userSpaceOnUse">
<stop stop-color="rgba(15, 16, 63, 1)"/>
<stop offset="1" stop-color="rgba(15, 16, 63, 1)" stop-opacity="0"/>
</linearGradient>
<linearGradient id="paint37_linear_102_534" x1="868.247" y1="729.656" x2="816.284" y2="776.575" gradientUnits="userSpaceOnUse">
<stop offset="0.149863" stop-color="rgba(15, 16, 63, 1)"/>
<stop offset="0.300261" stop-color="#8CFF31"/>
<stop offset="0.449118" stop-color="#45C3EB"/>
<stop offset="1" stop-color="#72E6FF"/>
</linearGradient>
<linearGradient id="paint38_linear_102_534" x1="792.33" y1="759.027" x2="711.792" y2="702.593" gradientUnits="userSpaceOnUse">
<stop stop-color="#6CFFED"/>
<stop offset="1" stop-color="#197F9F"/>
</linearGradient>
<linearGradient id="paint39_linear_102_534" x1="992.439" y1="693.044" x2="908.314" y2="604.961" gradientUnits="userSpaceOnUse">
<stop offset="0.464598" stop-color="rgba(15, 16, 63, 1)"/>
<stop offset="0.790313" stop-color="#6DF390"/>
<stop offset="1" stop-color="#21CAFF" stop-opacity="0.9"/>
</linearGradient>
<linearGradient id="paint40_linear_102_534" x1="764.226" y1="729.656" x2="813.714" y2="776.507" gradientUnits="userSpaceOnUse">
<stop offset="0.125" stop-color="rgba(15, 16, 63, 1)"/>
<stop offset="0.297772" stop-color="#8CFF31"/>
<stop offset="0.447917" stop-color="#5BF5FF"/>
</linearGradient>
<linearGradient id="paint41_linear_102_534" x1="754.903" y1="798.992" x2="747.749" y2="745.781" gradientUnits="userSpaceOnUse">
<stop stop-color="#DFF4FF"/>
<stop offset="0.994792" stop-color="#0E42C8"/>
</linearGradient>
<clipPath id="clip0_102_534">
<path d="M185 21H815V526C815 699.97 673.97 841 500 841V841C326.03 841 185 699.97 185 526V21Z" fill="rgba(15, 16, 63, 1)"/>
</clipPath>
</defs>
</svg>
