<svg width="884" height="808" fill="none" xmlns="http://www.w3.org/2000/svg"><path d="M1114.58 417.338c0 85.98-62.14 163.978-162.947 220.527-100.783 56.535-240.066 91.526-393.957 91.526-153.89 0-293.173-34.991-393.957-91.526C62.911 581.316.776 503.318.776 417.338c0-85.979 62.135-163.978 162.943-220.527 100.784-56.535 240.067-91.526 393.957-91.526 153.891 0 293.174 34.991 393.957 91.526 100.807 56.549 162.947 134.548 162.947 220.527z" stroke="url(#prefix__paint0_linear_102_593)" stroke-width="1.553"/><path d="M929.435 518.133c0 51.828-36.573 98.949-96.138 133.172C773.76 685.511 691.441 706.7 600.459 706.7c-90.983 0-173.301-21.189-232.838-55.395-59.565-34.223-96.138-81.344-96.138-133.172 0-51.829 36.573-98.95 96.138-133.172 59.537-34.206 141.855-55.396 232.838-55.396 90.982 0 173.301 21.19 232.838 55.396 59.565 34.222 96.138 81.343 96.138 133.172z" fill="url(#prefix__paint1_radial_102_593)" stroke="url(#prefix__paint2_linear_102_593)" stroke-width="2.07"/><ellipse cx="614.074" cy="589.536" rx="169.707" ry="95.197" fill="url(#prefix__paint3_radial_102_593)" fill-opacity=".6"/><g filter="url(#prefix__filter0_d_102_593)"><path fill-rule="evenodd" clip-rule="evenodd" d="M614.072 684.734c118.844 0 215.186-51.737 215.186-115.558 0-63.821-96.342-115.558-215.186-115.558-118.844 0-215.187 51.737-215.187 115.558 0 63.821 96.343 115.558 215.187 115.558zm.001-.001c93.726 0 169.706-42.621 169.706-95.197s-75.98-95.198-169.706-95.198c-93.727 0-169.707 42.622-169.707 95.198 0 52.576 75.98 95.197 169.707 95.197z" fill="url(#prefix__paint4_radial_102_593)" fill-opacity=".6" shape-rendering="crispEdges"/></g><g filter="url(#prefix__filter1_d_102_593)"><path fill-rule="evenodd" clip-rule="evenodd" d="M614.073 695.036c169.756 0 307.371-77.196 307.371-172.421 0-95.226-137.615-172.421-307.371-172.421-169.757 0-307.372 77.195-307.372 172.421 0 95.225 137.615 172.421 307.372 172.421zm-.001-10.303c118.844 0 215.186-51.738 215.186-115.558 0-63.821-96.342-115.558-215.186-115.558-118.845 0-215.187 51.737-215.187 115.558 0 63.82 96.342 115.558 215.187 115.558z" fill="url(#prefix__paint5_radial_102_593)" shape-rendering="crispEdges"/></g><path fill-rule="evenodd" clip-rule="evenodd" d="M615.028 680.08c76.397-.288 138.17-35.118 138.17-78.041 0-43.102-62.289-78.043-139.125-78.043-76.837 0-139.126 34.941-139.126 78.043 0 42.925 61.779 77.756 138.181 78.041-60.284-.285-108.997-27.787-108.997-61.671 0-34.061 49.223-61.673 109.943-61.673s109.943 27.612 109.943 61.673c0 33.883-48.709 61.383-108.989 61.671z" fill="url(#prefix__paint6_radial_102_593)"/><path d="M846.125 559.214c0 35.707-25.808 68.167-67.825 91.736-41.997 23.558-100.058 38.15-164.226 38.15-64.168 0-122.23-14.592-164.226-38.15-42.018-23.569-67.826-56.029-67.826-91.736s25.808-68.167 67.826-91.736c41.996-23.558 100.058-38.15 164.226-38.15 64.168 0 122.229 14.592 164.226 38.15 42.017 23.569 67.825 56.029 67.825 91.736z" stroke="url(#prefix__paint7_linear_102_593)" stroke-width="1.294"/><path fill="#00FFF0" d="M346.954 555.942l1.634 1.634-1.634 1.634-1.634-1.634zM371.523 602.022l3.304 3.304-3.304 3.305-3.304-3.305zM457.041 605.327l-1.536-1.536-1.536 1.536 1.536 1.536zM421.147 646.5l1.634 1.634-1.634 1.634-1.634-1.634zM295.995 550.46l1.634 1.634-1.634 1.634-1.634-1.634z"/><path fill="#00FFF0" fill-opacity=".5" d="M308.34 472.576l1.634 1.634-1.634 1.634-1.634-1.634zM343.683 518.041l1.142 1.142-1.142 1.142-1.142-1.142zM323.982 509.965l2.13 2.13-2.13 2.131-2.13-2.13z"/><circle cx="651.021" cy="589.583" r="147.322" fill="url(#prefix__paint8_radial_102_593)" fill-opacity=".5"/><circle cx="651.022" cy="589.536" r="218.22" fill="url(#prefix__paint9_radial_102_593)" fill-opacity=".6"/><g filter="url(#prefix__filter2_d_102_593)" shape-rendering="crispEdges"><ellipse cx="651.021" cy="657.419" rx="116.124" ry="72.749" fill="url(#prefix__paint10_linear_102_593)" fill-opacity=".5"/><path d="M766.628 657.419c0 19.846-12.842 37.892-33.769 51.002-20.92 13.106-49.853 21.229-81.838 21.229-31.985 0-60.917-8.123-81.837-21.229-20.927-13.11-33.769-31.156-33.769-51.002 0-19.847 12.842-37.892 33.769-51.003 20.92-13.105 49.852-21.228 81.837-21.228 31.985 0 60.918 8.123 81.838 21.228 20.927 13.111 33.769 31.156 33.769 51.003z" stroke="url(#prefix__paint11_linear_102_593)" stroke-opacity=".6" stroke-width="1.035"/></g><circle cx="651.021" cy="589.584" r="147.322" fill="url(#prefix__paint12_radial_102_593)"/><g filter="url(#prefix__filter3_d_102_593)"><ellipse cx="651.021" cy="613.942" rx="144.032" ry="84.261" fill="url(#prefix__paint13_linear_102_593)" fill-opacity=".5" shape-rendering="crispEdges"/></g><g filter="url(#prefix__filter4_d_102_593)" shape-rendering="crispEdges"><ellipse cx="651.021" cy="561.63" rx="142.567" ry="82.313" fill="url(#prefix__paint14_linear_102_593)" fill-opacity=".5"/><path d="M793.07 561.63c0 22.467-15.777 42.905-41.498 57.755-25.707 14.843-61.256 24.04-100.551 24.04-39.294 0-74.843-9.197-100.551-24.04-25.721-14.85-41.498-35.288-41.498-57.755 0-22.467 15.777-42.905 41.498-57.756 25.708-14.843 61.257-24.039 100.551-24.039 39.295 0 74.844 9.196 100.551 24.039 25.721 14.851 41.498 35.289 41.498 57.756z" stroke="url(#prefix__paint15_linear_102_593)" stroke-opacity=".6" stroke-width="1.035"/></g><g filter="url(#prefix__filter5_d_102_593)"><ellipse cx="651.022" cy="494.287" rx="68.857" ry="46.67" fill="url(#prefix__paint16_linear_102_593)" fill-opacity=".5" shape-rendering="crispEdges"/></g><circle cx="651.02" cy="589.583" r="109.124" fill="url(#prefix__paint17_radial_102_593)"/><g filter="url(#prefix__filter6_d_102_593)"><path d="M761.129 519.124c0 19.512-12.236 37.246-32.165 50.128-19.925 12.879-47.481 20.861-77.945 20.861-30.464 0-58.02-7.982-77.945-20.861-19.929-12.882-32.165-30.616-32.165-50.128s12.236-37.246 32.165-50.128c19.925-12.879 47.481-20.861 77.945-20.861 30.464 0 58.02 7.982 77.945 20.861 19.929 12.882 32.165 30.616 32.165 50.128z" stroke="url(#prefix__paint18_linear_102_593)" stroke-opacity=".6" stroke-width="1.035" shape-rendering="crispEdges"/></g><g filter="url(#prefix__filter7_d_102_593)"><path d="M793.07 561.63c0 22.467-15.777 42.905-41.498 57.755-25.707 14.843-61.256 24.04-100.551 24.04-39.294 0-74.843-9.197-100.551-24.04-25.721-14.85-41.498-35.288-41.498-57.755 0-22.467 15.777-42.905 41.498-57.756 25.708-14.843 61.257-24.039 100.551-24.039 39.295 0 74.844 9.196 100.551 24.039 25.721 14.851 41.498 35.289 41.498 57.756z" stroke="url(#prefix__paint19_linear_102_593)" stroke-opacity=".6" stroke-width="1.035" shape-rendering="crispEdges"/></g><g filter="url(#prefix__filter8_d_102_593)"><path d="M794.535 613.942c0 23.009-15.945 43.934-41.93 59.135-25.972 15.195-61.886 24.609-101.584 24.609s-75.612-9.414-101.585-24.609c-25.984-15.201-41.929-36.126-41.929-59.135 0-23.008 15.945-43.933 41.929-59.135 25.973-15.194 61.887-24.608 101.585-24.608 39.698 0 75.612 9.414 101.584 24.608 25.985 15.202 41.93 36.127 41.93 59.135z" stroke="url(#prefix__paint20_linear_102_593)" stroke-opacity=".6" stroke-width="1.035" shape-rendering="crispEdges"/></g><g filter="url(#prefix__filter9_d_102_593)"><path d="M719.362 494.287c0 12.665-7.573 24.191-19.94 32.573-12.365 8.38-29.475 13.58-48.4 13.58-18.924 0-36.035-5.2-48.399-13.58-12.367-8.382-19.94-19.908-19.94-32.573 0-12.664 7.573-24.19 19.94-32.572 12.364-8.38 29.475-13.58 48.399-13.58 18.925 0 36.035 5.2 48.4 13.58 12.367 8.382 19.94 19.908 19.94 32.572z" stroke="url(#prefix__paint21_linear_102_593)" stroke-opacity=".6" stroke-width="1.035" shape-rendering="crispEdges"/></g><circle cx="420.092" cy="494.339" r="83.607" fill="url(#prefix__paint22_radial_102_593)" fill-opacity=".6"/><g filter="url(#prefix__filter10_d_102_593)" shape-rendering="crispEdges"><ellipse cx="409.812" cy="517.549" rx="52.536" ry="32.912" fill="url(#prefix__paint23_linear_102_593)" fill-opacity=".5"/><path d="M461.831 517.549c0 8.846-5.725 16.932-15.145 22.833-9.413 5.897-22.448 9.561-36.874 9.561-14.425 0-27.461-3.664-36.873-9.561-9.42-5.901-15.145-13.987-15.145-22.833 0-8.847 5.725-16.933 15.145-22.834 9.412-5.897 22.448-9.561 36.873-9.561 14.426 0 27.461 3.664 36.874 9.561 9.42 5.901 15.145 13.987 15.145 22.834z" stroke="url(#prefix__paint24_linear_102_593)" stroke-opacity=".6" stroke-width="1.035"/></g><circle cx="409.813" cy="486.859" r="66.65" fill="url(#prefix__paint25_radial_102_593)"/><g filter="url(#prefix__filter11_d_102_593)" shape-rendering="crispEdges"><ellipse cx="409.813" cy="497.879" rx="65.162" ry="38.121" fill="url(#prefix__paint26_linear_102_593)" fill-opacity=".5"/><path d="M474.457 497.879c0 10.267-7.117 19.657-18.829 26.508-11.7 6.845-27.897 11.095-45.815 11.095-17.919 0-34.115-4.25-45.815-11.095-11.712-6.851-18.829-16.241-18.829-26.508s7.117-19.657 18.829-26.509c11.7-6.844 27.896-11.094 45.815-11.094 17.918 0 34.115 4.25 45.815 11.094 11.712 6.852 18.829 16.242 18.829 26.509z" stroke="url(#prefix__paint27_linear_102_593)" stroke-opacity=".6" stroke-width="1.035"/></g><circle cx="409.814" cy="486.859" r="49.369" fill="url(#prefix__paint28_radial_102_593)"/><circle cx="409.814" cy="486.859" r="49.369" fill="url(#prefix__paint29_radial_102_593)"/><g filter="url(#prefix__filter12_d_102_593)" shape-rendering="crispEdges"><ellipse cx="409.815" cy="474.213" rx="64.499" ry="37.239" fill="url(#prefix__paint30_linear_102_593)" fill-opacity=".5"/><path d="M473.796 474.213c0 10.02-7.039 19.19-18.633 25.884-11.58 6.686-27.612 10.837-45.348 10.837-17.737 0-33.769-4.151-45.349-10.837-11.594-6.694-18.633-15.864-18.633-25.884s7.039-19.19 18.633-25.884c11.58-6.686 27.612-10.838 45.349-10.838 17.736 0 33.768 4.152 45.348 10.838 11.594 6.694 18.633 15.864 18.633 25.884z" stroke="url(#prefix__paint31_linear_102_593)" stroke-opacity=".6" stroke-width="1.035"/></g><g filter="url(#prefix__filter13_d_102_593)" shape-rendering="crispEdges"><ellipse cx="409.812" cy="454.983" rx="50.049" ry="32.35" fill="url(#prefix__paint32_linear_102_593)" fill-opacity=".5"/><path d="M459.344 454.983c0 8.699-5.456 16.645-14.423 22.441-8.961 5.792-21.373 9.392-35.109 9.392s-26.147-3.6-35.109-9.392c-8.967-5.796-14.422-13.742-14.422-22.441 0-8.699 5.455-16.644 14.422-22.44 8.962-5.793 21.373-9.393 35.109-9.393s26.148 3.6 35.109 9.393c8.967 5.796 14.423 13.741 14.423 22.44z" stroke="url(#prefix__paint33_linear_102_593)" stroke-opacity=".6" stroke-width="1.035"/></g><g filter="url(#prefix__filter14_d_102_593)" shape-rendering="crispEdges"><ellipse cx="409.814" cy="443.747" rx="31.152" ry="21.114" fill="url(#prefix__paint34_linear_102_593)" fill-opacity=".5"/><path d="M440.448 443.747c0 5.607-3.353 10.744-8.897 14.501-5.541 3.756-13.224 6.095-21.737 6.095-8.513 0-16.197-2.339-21.737-6.095-5.544-3.757-8.897-8.894-8.897-14.501 0-5.608 3.353-10.744 8.897-14.502 5.54-3.755 13.224-6.095 21.737-6.095 8.513 0 16.196 2.34 21.737 6.095 5.544 3.758 8.897 8.894 8.897 14.502z" stroke="url(#prefix__paint35_linear_102_593)" stroke-opacity=".6" stroke-width="1.035"/></g><circle cx="409.813" cy="486.859" r="66.65" fill="url(#prefix__paint36_radial_102_593)" fill-opacity=".9"/><path fill="#06F" fill-opacity=".5" d="M239.439 249.723l1.936 1.936-1.936 1.936-1.936-1.936zM268.51 304.251l3.91 3.91-3.91 3.91-3.91-3.91zM369.703 308.161l-1.82-1.82-1.819 1.82 1.82 1.82zM327.231 356.879l1.936 1.936-1.936 1.936-1.936-1.936zM179.138 243.236l1.936 1.936-1.936 1.936-1.936-1.936z"/><path fill="#0500FF" fill-opacity=".5" d="M193.746 151.075l1.936 1.936-1.936 1.936-1.936-1.936zM235.567 204.874l1.351 1.351-1.351 1.352-1.351-1.352zM212.256 195.318l2.522 2.522-2.522 2.521-2.522-2.521z"/><path fill="#06F" fill-opacity=".5" d="M87.388 562.598l2.692 2.692-2.692 2.692-2.692-2.692zM127.807 638.412l5.437 5.437-5.437 5.437-5.437-5.437zM268.506 643.849l-2.53-2.53-2.53 2.53 2.53 2.53zM209.453 711.588l2.692 2.692-2.692 2.692-2.692-2.692zM3.545 553.578l2.692 2.692-2.692 2.692-2.692-2.692z"/><path fill="#0500FF" fill-opacity=".5" d="M23.856 425.439l2.692 2.692-2.692 2.692-2.692-2.692zM82.005 500.241l1.881 1.882-1.881 1.882-1.882-1.882zM49.592 486.954l3.505 3.505-3.505 3.505-3.505-3.505zM789.24 381.921l2.736-1.77 1.77 2.736-2.736 1.77zM862.274 346.681l1.91-1.235 1.234 1.91-1.909 1.234zM845.337 371.421l3.563-2.304 2.304 3.562-3.562 2.305z"/><path fill="#06F" fill-opacity=".5" d="M735.255 250.855l6.487 1.108-1.108 6.487-6.487-1.108zM836.216 185.047l-3.018-.515-.516 3.018 3.019.515zM828.482 261.573l3.212.548-.549 3.212-3.211-.548zM606.499 253.077l3.212.548-.549 3.212-3.211-.548z"/><path fill="#0500FF" fill-opacity=".5" d="M557.293 153.533l3.212.548-.549 3.212-3.211-.548zM634.911 177.01l2.242.383-.383 2.241-2.242-.382zM605.701 183.764l4.182.714-.714 4.183-4.182-.715z"/><defs><linearGradient id="prefix__paint0_linear_102_593" x1="352.496" y1="947.048" x2="498.913" y2="239.7" gradientUnits="userSpaceOnUse"><stop stop-color="#fff"/><stop offset=".509" stop-color="#30FFFF"/><stop offset="1" stop-color="#fff" stop-opacity="0"/></linearGradient><linearGradient id="prefix__paint2_linear_102_593" x1="432.558" y1="700.334" x2="602.648" y2="418.311" gradientUnits="userSpaceOnUse"><stop stop-color="#fff"/><stop offset=".443" stop-color="#30FFFF"/><stop offset="1" stop-color="#fff" stop-opacity="0"/></linearGradient><linearGradient id="prefix__paint7_linear_102_593" x1="495.683" y1="684.651" x2="593.268" y2="424.362" gradientUnits="userSpaceOnUse"><stop stop-color="#fff"/><stop offset=".509" stop-color="#30FFFF"/><stop offset="1" stop-color="#fff" stop-opacity="0"/></linearGradient><linearGradient id="prefix__paint10_linear_102_593" x1="767.145" y1="641.673" x2="534.97" y2="658.43" gradientUnits="userSpaceOnUse"><stop stop-color="#4E53BE" stop-opacity=".5"/><stop offset=".885" stop-color="#33CEFF" stop-opacity=".7"/><stop offset="1" stop-color="#fff" stop-opacity=".5"/></linearGradient><linearGradient id="prefix__paint11_linear_102_593" x1="671.318" y1="761.755" x2="685.794" y2="600.783" gradientUnits="userSpaceOnUse"><stop stop-color="#fff"/><stop offset="1" stop-color="#fff" stop-opacity="0"/></linearGradient><linearGradient id="prefix__paint13_linear_102_593" x1="780.245" y1="609.07" x2="507.11" y2="617.741" gradientUnits="userSpaceOnUse"><stop stop-color="#4E53BE" stop-opacity=".1"/><stop offset="1" stop-color="#33CEFF"/></linearGradient><linearGradient id="prefix__paint14_linear_102_593" x1="759.122" y1="554.308" x2="508.632" y2="565.576" gradientUnits="userSpaceOnUse"><stop stop-color="#4E53BE" stop-opacity=".1"/><stop offset=".997" stop-color="#33CEFF"/></linearGradient><linearGradient id="prefix__paint15_linear_102_593" x1="675.939" y1="679.683" x2="691.053" y2="497.328" gradientUnits="userSpaceOnUse"><stop stop-color="#fff"/><stop offset="1" stop-color="#fff" stop-opacity="0"/></linearGradient><linearGradient id="prefix__paint16_linear_102_593" x1="719.88" y1="484.186" x2="582.104" y2="493.377" gradientUnits="userSpaceOnUse"><stop stop-color="#4E53BE" stop-opacity=".1"/><stop offset="1" stop-color="#33CEFF" stop-opacity=".9"/></linearGradient><linearGradient id="prefix__paint18_linear_102_593" x1="663.562" y1="590.631" x2="670.955" y2="460.959" gradientUnits="userSpaceOnUse"><stop stop-color="#fff"/><stop offset="1" stop-color="#fff" stop-opacity="0"/></linearGradient><linearGradient id="prefix__paint19_linear_102_593" x1="658.105" y1="646.102" x2="674.986" y2="492.441" gradientUnits="userSpaceOnUse"><stop stop-color="#fff"/><stop offset="1" stop-color="#fff" stop-opacity="0"/></linearGradient><linearGradient id="prefix__paint20_linear_102_593" x1="661.517" y1="701.019" x2="664.362" y2="539.318" gradientUnits="userSpaceOnUse"><stop stop-color="#fff"/><stop offset="1" stop-color="#fff" stop-opacity="0"/></linearGradient><linearGradient id="prefix__paint21_linear_102_593" x1="663.057" y1="561.222" x2="673.091" y2="458.095" gradientUnits="userSpaceOnUse"><stop stop-color="#fff"/><stop offset="1" stop-color="#fff" stop-opacity="0"/></linearGradient><linearGradient id="prefix__paint23_linear_102_593" x1="462.348" y1="510.425" x2="357.31" y2="518.006" gradientUnits="userSpaceOnUse"><stop stop-color="#4E53BE" stop-opacity=".5"/><stop offset=".885" stop-color="#FB33FF" stop-opacity=".5"/><stop offset="1" stop-color="#fff" stop-opacity=".5"/></linearGradient><linearGradient id="prefix__paint24_linear_102_593" x1="418.995" y1="564.752" x2="425.544" y2="491.926" gradientUnits="userSpaceOnUse"><stop stop-color="#fff"/><stop offset="1" stop-color="#fff" stop-opacity="0"/></linearGradient><linearGradient id="prefix__paint26_linear_102_593" x1="474.974" y1="489.628" x2="344.791" y2="499.689" gradientUnits="userSpaceOnUse"><stop stop-color="#4E53BE" stop-opacity=".5"/><stop offset=".885" stop-color="#FB33FF" stop-opacity=".5"/><stop offset="1" stop-color="#fff" stop-opacity=".5"/></linearGradient><linearGradient id="prefix__paint27_linear_102_593" x1="421.202" y1="552.552" x2="428.293" y2="468.115" gradientUnits="userSpaceOnUse"><stop stop-color="#fff"/><stop offset="1" stop-color="#fff" stop-opacity="0"/></linearGradient><linearGradient id="prefix__paint30_linear_102_593" x1="474.313" y1="466.153" x2="345.475" y2="476.242" gradientUnits="userSpaceOnUse"><stop stop-color="#4E53BE" stop-opacity=".5"/><stop offset=".885" stop-color="#FB33FF" stop-opacity=".5"/><stop offset="1" stop-color="#fff" stop-opacity=".5"/></linearGradient><linearGradient id="prefix__paint31_linear_102_593" x1="421.088" y1="527.622" x2="427.925" y2="445.122" gradientUnits="userSpaceOnUse"><stop stop-color="#fff"/><stop offset="1" stop-color="#fff" stop-opacity="0"/></linearGradient><linearGradient id="prefix__paint32_linear_102_593" x1="459.861" y1="447.981" x2="359.763" y2="454.983" gradientUnits="userSpaceOnUse"><stop stop-color="#4E53BE" stop-opacity=".5"/><stop offset=".885" stop-color="#FB33FF" stop-opacity=".5"/><stop offset="1" stop-color="#fff" stop-opacity=".5"/></linearGradient><linearGradient id="prefix__paint33_linear_102_593" x1="418.56" y1="501.38" x2="425.198" y2="429.835" gradientUnits="userSpaceOnUse"><stop stop-color="#fff"/><stop offset="1" stop-color="#fff" stop-opacity="0"/></linearGradient><linearGradient id="prefix__paint34_linear_102_593" x1="440.966" y1="439.177" x2="378.635" y2="443.335" gradientUnits="userSpaceOnUse"><stop stop-color="#4E53BE" stop-opacity=".5"/><stop offset=".885" stop-color="#FB33FF" stop-opacity=".5"/><stop offset="1" stop-color="#fff" stop-opacity=".5"/></linearGradient><linearGradient id="prefix__paint35_linear_102_593" x1="415.259" y1="474.029" x2="419.798" y2="427.373" gradientUnits="userSpaceOnUse"><stop stop-color="#fff"/><stop offset="1" stop-color="#fff" stop-opacity="0"/></linearGradient><filter id="prefix__filter0_d_102_593" x="396.297" y="445.854" width="445.9" height="246.643" filterUnits="userSpaceOnUse" color-interpolation-filters="sRGB"><feFlood flood-opacity="0" result="BackgroundImageFix"/><feColorMatrix in="SourceAlpha" values="0 0 0 0 0 0 0 0 0 0 0 0 0 0 0 0 0 0 127 0" result="hardAlpha"/><feOffset dx="5.176"/><feGaussianBlur stdDeviation="3.882"/><feComposite in2="hardAlpha" operator="out"/><feColorMatrix values="0 0 0 0 0.119531 0 0 0 0 0.163828 0 0 0 0 0.5625 0 0 0 0.1 0"/><feBlend in2="BackgroundImageFix" result="effect1_dropShadow_102_593"/><feBlend in="SourceGraphic" in2="effect1_dropShadow_102_593" result="shape"/></filter><filter id="prefix__filter1_d_102_593" x="304.113" y="341.913" width="630.271" height="360.369" filterUnits="userSpaceOnUse" color-interpolation-filters="sRGB"><feFlood flood-opacity="0" result="BackgroundImageFix"/><feColorMatrix in="SourceAlpha" values="0 0 0 0 0 0 0 0 0 0 0 0 0 0 0 0 0 0 127 0" result="hardAlpha"/><feOffset dx="5.176" dy="-.518"/><feGaussianBlur stdDeviation="3.882"/><feComposite in2="hardAlpha" operator="out"/><feColorMatrix values="0 0 0 0 0.119531 0 0 0 0 0.163828 0 0 0 0 0.5625 0 0 0 0.1 0"/><feBlend in2="BackgroundImageFix" result="effect1_dropShadow_102_593"/><feBlend in="SourceGraphic" in2="effect1_dropShadow_102_593" result="shape"/></filter><filter id="prefix__filter2_d_102_593" x="528.169" y="577.942" width="247.775" height="161.024" filterUnits="userSpaceOnUse" color-interpolation-filters="sRGB"><feFlood flood-opacity="0" result="BackgroundImageFix"/><feColorMatrix in="SourceAlpha" values="0 0 0 0 0 0 0 0 0 0 0 0 0 0 0 0 0 0 127 0" result="hardAlpha"/><feOffset dx="1.035" dy="1.035"/><feGaussianBlur stdDeviation="3.882"/><feComposite in2="hardAlpha" operator="out"/><feColorMatrix values="0 0 0 0 0.440043 0 0 0 0 0.20092 0 0 0 0 0.679167 0 0 0 0.2 0"/><feBlend in2="BackgroundImageFix" result="effect1_dropShadow_102_593"/><feBlend in="SourceGraphic" in2="effect1_dropShadow_102_593" result="shape"/></filter><filter id="prefix__filter3_d_102_593" x="500.261" y="522.953" width="303.591" height="184.05" filterUnits="userSpaceOnUse" color-interpolation-filters="sRGB"><feFlood flood-opacity="0" result="BackgroundImageFix"/><feColorMatrix in="SourceAlpha" values="0 0 0 0 0 0 0 0 0 0 0 0 0 0 0 0 0 0 127 0" result="hardAlpha"/><feOffset dx="1.035" dy="1.035"/><feGaussianBlur stdDeviation="3.882"/><feComposite in2="hardAlpha" operator="out"/><feColorMatrix values="0 0 0 0 0.440043 0 0 0 0 0.20092 0 0 0 0 0.679167 0 0 0 0.2 0"/><feBlend in2="BackgroundImageFix" result="effect1_dropShadow_102_593"/><feBlend in="SourceGraphic" in2="effect1_dropShadow_102_593" result="shape"/></filter><filter id="prefix__filter4_d_102_593" x="501.726" y="472.589" width="300.661" height="180.153" filterUnits="userSpaceOnUse" color-interpolation-filters="sRGB"><feFlood flood-opacity="0" result="BackgroundImageFix"/><feColorMatrix in="SourceAlpha" values="0 0 0 0 0 0 0 0 0 0 0 0 0 0 0 0 0 0 127 0" result="hardAlpha"/><feOffset dx="1.035" dy="1.035"/><feGaussianBlur stdDeviation="3.882"/><feComposite in2="hardAlpha" operator="out"/><feColorMatrix values="0 0 0 0 0.440043 0 0 0 0 0.20092 0 0 0 0 0.679167 0 0 0 0.2 0"/><feBlend in2="BackgroundImageFix" result="effect1_dropShadow_102_593"/><feBlend in="SourceGraphic" in2="effect1_dropShadow_102_593" result="shape"/></filter><filter id="prefix__filter5_d_102_593" x="575.436" y="440.889" width="153.242" height="108.868" filterUnits="userSpaceOnUse" color-interpolation-filters="sRGB"><feFlood flood-opacity="0" result="BackgroundImageFix"/><feColorMatrix in="SourceAlpha" values="0 0 0 0 0 0 0 0 0 0 0 0 0 0 0 0 0 0 127 0" result="hardAlpha"/><feOffset dx="1.035" dy="1.035"/><feGaussianBlur stdDeviation="3.882"/><feComposite in2="hardAlpha" operator="out"/><feColorMatrix values="0 0 0 0 0.440043 0 0 0 0 0.20092 0 0 0 0 0.679167 0 0 0 0.2 0"/><feBlend in2="BackgroundImageFix" result="effect1_dropShadow_102_593"/><feBlend in="SourceGraphic" in2="effect1_dropShadow_102_593" result="shape"/></filter><filter id="prefix__filter6_d_102_593" x="533.663" y="440.889" width="236.783" height="158.541" filterUnits="userSpaceOnUse" color-interpolation-filters="sRGB"><feFlood flood-opacity="0" result="BackgroundImageFix"/><feColorMatrix in="SourceAlpha" values="0 0 0 0 0 0 0 0 0 0 0 0 0 0 0 0 0 0 127 0" result="hardAlpha"/><feOffset dx="1.035" dy="1.035"/><feGaussianBlur stdDeviation="3.882"/><feComposite in2="hardAlpha" operator="out"/><feColorMatrix values="0 0 0 0 0.440043 0 0 0 0 0.20092 0 0 0 0 0.679167 0 0 0 0.2 0"/><feBlend in2="BackgroundImageFix" result="effect1_dropShadow_102_593"/><feBlend in="SourceGraphic" in2="effect1_dropShadow_102_593" result="shape"/></filter><filter id="prefix__filter7_d_102_593" x="501.726" y="472.589" width="300.661" height="180.153" filterUnits="userSpaceOnUse" color-interpolation-filters="sRGB"><feFlood flood-opacity="0" result="BackgroundImageFix"/><feColorMatrix in="SourceAlpha" values="0 0 0 0 0 0 0 0 0 0 0 0 0 0 0 0 0 0 127 0" result="hardAlpha"/><feOffset dx="1.035" dy="1.035"/><feGaussianBlur stdDeviation="3.882"/><feComposite in2="hardAlpha" operator="out"/><feColorMatrix values="0 0 0 0 0.440043 0 0 0 0 0.20092 0 0 0 0 0.679167 0 0 0 0.2 0"/><feBlend in2="BackgroundImageFix" result="effect1_dropShadow_102_593"/><feBlend in="SourceGraphic" in2="effect1_dropShadow_102_593" result="shape"/></filter><filter id="prefix__filter8_d_102_593" x="500.261" y="522.953" width="303.591" height="184.05" filterUnits="userSpaceOnUse" color-interpolation-filters="sRGB"><feFlood flood-opacity="0" result="BackgroundImageFix"/><feColorMatrix in="SourceAlpha" values="0 0 0 0 0 0 0 0 0 0 0 0 0 0 0 0 0 0 127 0" result="hardAlpha"/><feOffset dx="1.035" dy="1.035"/><feGaussianBlur stdDeviation="3.882"/><feComposite in2="hardAlpha" operator="out"/><feColorMatrix values="0 0 0 0 0.440043 0 0 0 0 0.20092 0 0 0 0 0.679167 0 0 0 0.2 0"/><feBlend in2="BackgroundImageFix" result="effect1_dropShadow_102_593"/><feBlend in="SourceGraphic" in2="effect1_dropShadow_102_593" result="shape"/></filter><filter id="prefix__filter9_d_102_593" x="575.436" y="440.889" width="153.242" height="108.868" filterUnits="userSpaceOnUse" color-interpolation-filters="sRGB"><feFlood flood-opacity="0" result="BackgroundImageFix"/><feColorMatrix in="SourceAlpha" values="0 0 0 0 0 0 0 0 0 0 0 0 0 0 0 0 0 0 127 0" result="hardAlpha"/><feOffset dx="1.035" dy="1.035"/><feGaussianBlur stdDeviation="3.882"/><feComposite in2="hardAlpha" operator="out"/><feColorMatrix values="0 0 0 0 0.440043 0 0 0 0 0.20092 0 0 0 0 0.679167 0 0 0 0.2 0"/><feBlend in2="BackgroundImageFix" result="effect1_dropShadow_102_593"/><feBlend in="SourceGraphic" in2="effect1_dropShadow_102_593" result="shape"/></filter><filter id="prefix__filter10_d_102_593" x="350.548" y="477.908" width="120.599" height="81.352" filterUnits="userSpaceOnUse" color-interpolation-filters="sRGB"><feFlood flood-opacity="0" result="BackgroundImageFix"/><feColorMatrix in="SourceAlpha" values="0 0 0 0 0 0 0 0 0 0 0 0 0 0 0 0 0 0 127 0" result="hardAlpha"/><feOffset dx="1.035" dy="1.035"/><feGaussianBlur stdDeviation="3.882"/><feComposite in2="hardAlpha" operator="out"/><feColorMatrix values="0 0 0 0 0.440043 0 0 0 0 0.20092 0 0 0 0 0.679167 0 0 0 0.2 0"/><feBlend in2="BackgroundImageFix" result="effect1_dropShadow_102_593"/><feBlend in="SourceGraphic" in2="effect1_dropShadow_102_593" result="shape"/></filter><filter id="prefix__filter11_d_102_593" x="337.923" y="453.029" width="145.85" height="91.769" filterUnits="userSpaceOnUse" color-interpolation-filters="sRGB"><feFlood flood-opacity="0" result="BackgroundImageFix"/><feColorMatrix in="SourceAlpha" values="0 0 0 0 0 0 0 0 0 0 0 0 0 0 0 0 0 0 127 0" result="hardAlpha"/><feOffset dx="1.035" dy="1.035"/><feGaussianBlur stdDeviation="3.882"/><feComposite in2="hardAlpha" operator="out"/><feColorMatrix values="0 0 0 0 0.440043 0 0 0 0 0.20092 0 0 0 0 0.679167 0 0 0 0.2 0"/><feBlend in2="BackgroundImageFix" result="effect1_dropShadow_102_593"/><feBlend in="SourceGraphic" in2="effect1_dropShadow_102_593" result="shape"/></filter><filter id="prefix__filter12_d_102_593" x="338.587" y="430.245" width="144.525" height="90.006" filterUnits="userSpaceOnUse" color-interpolation-filters="sRGB"><feFlood flood-opacity="0" result="BackgroundImageFix"/><feColorMatrix in="SourceAlpha" values="0 0 0 0 0 0 0 0 0 0 0 0 0 0 0 0 0 0 127 0" result="hardAlpha"/><feOffset dx="1.035" dy="1.035"/><feGaussianBlur stdDeviation="3.882"/><feComposite in2="hardAlpha" operator="out"/><feColorMatrix values="0 0 0 0 0.440043 0 0 0 0 0.20092 0 0 0 0 0.679167 0 0 0 0.2 0"/><feBlend in2="BackgroundImageFix" result="effect1_dropShadow_102_593"/><feBlend in="SourceGraphic" in2="effect1_dropShadow_102_593" result="shape"/></filter><filter id="prefix__filter13_d_102_593" x="353.034" y="415.904" width="115.626" height="80.228" filterUnits="userSpaceOnUse" color-interpolation-filters="sRGB"><feFlood flood-opacity="0" result="BackgroundImageFix"/><feColorMatrix in="SourceAlpha" values="0 0 0 0 0 0 0 0 0 0 0 0 0 0 0 0 0 0 127 0" result="hardAlpha"/><feOffset dx="1.035" dy="1.035"/><feGaussianBlur stdDeviation="3.882"/><feComposite in2="hardAlpha" operator="out"/><feColorMatrix values="0 0 0 0 0.440043 0 0 0 0 0.20092 0 0 0 0 0.679167 0 0 0 0.2 0"/><feBlend in2="BackgroundImageFix" result="effect1_dropShadow_102_593"/><feBlend in="SourceGraphic" in2="effect1_dropShadow_102_593" result="shape"/></filter><filter id="prefix__filter14_d_102_593" x="371.934" y="415.904" width="77.831" height="57.756" filterUnits="userSpaceOnUse" color-interpolation-filters="sRGB"><feFlood flood-opacity="0" result="BackgroundImageFix"/><feColorMatrix in="SourceAlpha" values="0 0 0 0 0 0 0 0 0 0 0 0 0 0 0 0 0 0 127 0" result="hardAlpha"/><feOffset dx="1.035" dy="1.035"/><feGaussianBlur stdDeviation="3.882"/><feComposite in2="hardAlpha" operator="out"/><feColorMatrix values="0 0 0 0 0.440043 0 0 0 0 0.20092 0 0 0 0 0.679167 0 0 0 0.2 0"/><feBlend in2="BackgroundImageFix" result="effect1_dropShadow_102_593"/><feBlend in="SourceGraphic" in2="effect1_dropShadow_102_593" result="shape"/></filter><radialGradient id="prefix__paint1_radial_102_593" cx="0" cy="0" r="1" gradientUnits="userSpaceOnUse" gradientTransform="rotate(-45.685 962.768 12.804) scale(355.024 632.713)"><stop stop-color="#fff"/><stop offset=".462" stop-color="#3A45AA"/><stop offset="1" stop-color="#3A45AA" stop-opacity="0"/></radialGradient><radialGradient id="prefix__paint3_radial_102_593" cx="0" cy="0" r="1" gradientUnits="userSpaceOnUse" gradientTransform="rotate(141.315 263.066 374.37) scale(246.834 440.027)"><stop offset=".392" stop-color="#1B29A4" stop-opacity="0"/><stop offset=".842" stop-color="#2938BB" stop-opacity=".5"/><stop offset="1" stop-color="#172075" stop-opacity=".5"/></radialGradient><radialGradient id="prefix__paint4_radial_102_593" cx="0" cy="0" r="1" gradientUnits="userSpaceOnUse" gradientTransform="matrix(-268.8212 213.28668 -376.81251 -474.92506 726.082 463.131)"><stop offset=".392" stop-color="#6675FF" stop-opacity="0"/><stop offset=".842" stop-color="#6675FF" stop-opacity=".5"/><stop offset="1" stop-color="#192059" stop-opacity="0"/></radialGradient><radialGradient id="prefix__paint5_radial_102_593" cx="0" cy="0" r="1" gradientUnits="userSpaceOnUse" gradientTransform="matrix(-383.98015 318.24344 -567.32646 -684.51404 774.067 364.388)"><stop offset=".392" stop-color="#6675FF" stop-opacity="0"/><stop offset=".842" stop-color="#6675FF" stop-opacity=".5"/><stop offset="1" stop-color="#DBDEFF" stop-opacity="0"/></radialGradient><radialGradient id="prefix__paint6_radial_102_593" cx="0" cy="0" r="1" gradientUnits="userSpaceOnUse" gradientTransform="matrix(-157.95633 126.479 -225.47132 -281.58526 686.491 530.421)"><stop offset=".392" stop-color="#17217A" stop-opacity="0"/><stop offset=".842" stop-color="#1A2374" stop-opacity=".5"/><stop offset="1" stop-color="#151E6C" stop-opacity=".5"/></radialGradient><radialGradient id="prefix__paint8_radial_102_593" cx="0" cy="0" r="1" gradientUnits="userSpaceOnUse" gradientTransform="rotate(-64.076 899.577 -95.128) scale(330.71)"><stop offset=".107" stop-color="#fff" stop-opacity=".5"/><stop offset=".328" stop-color="#8FB5FF" stop-opacity=".5"/><stop offset=".629" stop-color="#220C7A" stop-opacity="0"/></radialGradient><radialGradient id="prefix__paint9_radial_102_593" cx="0" cy="0" r="1" gradientUnits="userSpaceOnUse" gradientTransform="rotate(90 30.743 620.279) scale(218.22)"><stop stop-color="#3E5DFF"/><stop offset="1" stop-color="#3E5DFF" stop-opacity="0"/></radialGradient><radialGradient id="prefix__paint12_radial_102_593" cx="0" cy="0" r="1" gradientUnits="userSpaceOnUse" gradientTransform="rotate(-19.664 2107.485 -1131.64) scale(312.89)"><stop offset=".249" stop-color="#fff"/><stop offset=".483" stop-color="#8FF2FF" stop-opacity=".5"/><stop offset=".627" stop-color="#220C7A" stop-opacity=".1"/></radialGradient><radialGradient id="prefix__paint17_radial_102_593" cx="0" cy="0" r="1" gradientUnits="userSpaceOnUse" gradientTransform="rotate(-83.198 784.022 19.01) scale(317.034)"><stop offset=".339" stop-color="#68FFF6" stop-opacity=".1"/><stop offset=".802" stop-color="#FFBFE9"/><stop offset="1" stop-color="#fff"/></radialGradient><radialGradient id="prefix__paint22_radial_102_593" cx="0" cy="0" r="1" gradientUnits="userSpaceOnUse" gradientTransform="rotate(90 -37.124 457.216) scale(83.6074)"><stop stop-color="#FF65C1"/><stop offset="1" stop-color="#FF65C1" stop-opacity="0"/></radialGradient><radialGradient id="prefix__paint25_radial_102_593" cx="0" cy="0" r="1" gradientUnits="userSpaceOnUse" gradientTransform="rotate(-19.664 1646.174 -734.512) scale(141.555)"><stop offset=".249" stop-color="#fff"/><stop offset=".483" stop-color="#FF8FED" stop-opacity=".5"/><stop offset=".627" stop-color="#220C7A" stop-opacity=".5"/></radialGradient><radialGradient id="prefix__paint28_radial_102_593" cx="0" cy="0" r="1" gradientUnits="userSpaceOnUse" gradientTransform="rotate(-107.749 408.535 112.763) scale(99.169)"><stop offset=".224" stop-color="#fff"/><stop offset=".466" stop-color="#FFCEF1"/><stop offset=".682" stop-color="#B6B9FF"/><stop offset=".882" stop-color="#fff"/></radialGradient><radialGradient id="prefix__paint29_radial_102_593" cx="0" cy="0" r="1" gradientUnits="userSpaceOnUse" gradientTransform="rotate(-100.377 440.579 87.156) scale(135.421)"><stop stop-color="#fff"/><stop offset="1" stop-color="#fff" stop-opacity="0"/></radialGradient><radialGradient id="prefix__paint36_radial_102_593" cx="0" cy="0" r="1" gradientUnits="userSpaceOnUse" gradientTransform="rotate(-65.136 631.392 -18.878) scale(210.169)"><stop offset=".249" stop-color="#fff"/><stop offset=".483" stop-color="#FF8FED" stop-opacity=".5"/><stop offset=".627" stop-color="#220C7A" stop-opacity="0"/></radialGradient></defs></svg>