<svg width="332" height="461" fill="none" xmlns="http://www.w3.org/2000/svg">
  <g filter="url(#prefix__filter0_dd_102_684)">
    <circle cx="184.63" cy="404.226" r="24.774" fill="url(#prefix__paint0_linear_102_684)"
      shape-rendering="crispEdges" />
  </g>
  <g filter="url(#prefix__filter1_dd_102_684)">
    <circle cx="260.182" cy="325.156" r="18.328" fill="url(#prefix__paint1_linear_102_684)"
      shape-rendering="crispEdges" />
  </g>
  <circle cx="146" cy="178" r="186" fill="url(#prefix__paint2_radial_102_684)" fill-opacity=".6" />
  <g filter="url(#prefix__filter2_d_102_684)" shape-rendering="crispEdges">
    <ellipse cx="184.259" cy="219.724" rx="111.442" ry="69.815" fill="url(#prefix__paint3_linear_102_684)"
      fill-opacity=".5" />
    <path
      d="M295.231 219.724c0 19.059-12.333 36.384-32.42 48.969-20.081 12.58-47.852 20.376-78.552 20.376-30.699 0-58.47-7.796-78.551-20.376-20.088-12.585-32.42-29.91-32.42-48.969 0-19.058 12.332-36.383 32.42-48.968 20.081-12.58 47.852-20.376 78.551-20.376 30.7 0 58.471 7.796 78.552 20.376 20.087 12.585 32.42 29.91 32.42 48.968z"
      stroke="url(#prefix__paint4_linear_102_684)" stroke-opacity=".6" stroke-width=".941" />
  </g>
  <circle cx="184.258" cy="154.625" r="141.382" fill="url(#prefix__paint5_radial_102_684)" />
  <ellipse cx="184.257" cy="178" rx="138.225" ry="80.864" fill="url(#prefix__paint6_linear_102_684)"
    fill-opacity=".5" />
  <path
    d="M322.011 178c0 22.094-15.311 42.183-40.252 56.774-24.93 14.584-59.401 23.62-97.502 23.62-38.101 0-72.572-9.036-97.502-23.62-24.94-14.591-40.252-34.68-40.252-56.774 0-22.093 15.311-42.182 40.252-56.773 24.93-14.584 59.401-23.62 97.502-23.62 38.101 0 72.572 9.036 97.502 23.62 24.941 14.591 40.252 34.68 40.252 56.773z"
    stroke="url(#prefix__paint7_linear_102_684)" stroke-opacity=".6" stroke-width=".941" />
  <circle cx="184.257" cy="154.624" r="104.724" fill="url(#prefix__paint8_radial_102_684)" />
  <circle cx="184.257" cy="154.624" r="104.724" fill="url(#prefix__paint9_radial_102_684)" />
  <g filter="url(#prefix__filter3_d_102_684)" shape-rendering="crispEdges">
    <ellipse cx="184.258" cy="127.797" rx="136.819" ry="78.994" fill="url(#prefix__paint10_linear_102_684)"
      fill-opacity=".5" />
    <path
      d="M320.606 127.797c0 21.574-15.15 41.195-39.838 55.449-24.676 14.247-58.796 23.074-96.51 23.074-37.714 0-71.834-8.827-96.51-23.074-24.688-14.254-39.838-33.875-39.838-55.449 0-21.575 15.15-41.196 39.838-55.45 24.676-14.247 58.796-23.074 96.51-23.074 37.714 0 71.834 8.827 96.51 23.074 24.688 14.254 39.838 33.875 39.838 55.45z"
      stroke="url(#prefix__paint11_linear_102_684)" stroke-opacity=".6" stroke-width=".941" />
  </g>
  <g filter="url(#prefix__filter4_d_102_684)" shape-rendering="crispEdges">
    <ellipse cx="184.257" cy="87.005" rx="106.167" ry="68.624" fill="url(#prefix__paint12_linear_102_684)"
      fill-opacity=".5" />
    <path
      d="M289.954 87.005c0 18.737-11.75 35.764-30.881 48.13-19.125 12.362-45.576 20.024-74.816 20.024-29.24 0-55.69-7.662-74.816-20.024-19.13-12.366-30.88-29.393-30.88-48.13 0-18.736 11.75-35.763 30.88-48.129 19.126-12.362 45.576-20.024 74.816-20.024 29.24 0 55.691 7.662 74.816 20.024 19.131 12.366 30.881 29.393 30.881 48.13z"
      stroke="url(#prefix__paint13_linear_102_684)" stroke-opacity=".6" stroke-width=".941" />
  </g>
  <ellipse cx="184.259" cy="63.17" rx="66.081" ry="44.789" fill="url(#prefix__paint14_linear_102_684)"
    fill-opacity=".5" />
  <path
    d="M249.87 63.17c0 12.166-7.275 23.234-19.148 31.281-11.871 8.046-28.296 13.037-46.463 13.037-18.166 0-34.591-4.991-46.462-13.037-11.873-8.047-19.148-19.115-19.148-31.28 0-12.166 7.275-23.234 19.148-31.281 11.871-8.046 28.296-13.038 46.462-13.038 18.167 0 34.592 4.992 46.463 13.038 11.873 8.047 19.148 19.115 19.148 31.28z"
    stroke="url(#prefix__paint15_linear_102_684)" stroke-opacity=".6" stroke-width=".941" />
  <ellipse cx="184.258" cy="47.881" rx="38.258" ry="26.324" fill="url(#prefix__paint16_linear_102_684)"
    fill-opacity=".5" />
  <path
    d="M222.045 47.88c0 7.07-4.164 13.522-11.001 18.227-6.836 4.703-16.304 7.627-26.786 7.627-10.482 0-19.95-2.924-26.786-7.627-6.837-4.705-11.001-11.157-11.001-18.226 0-7.07 4.164-13.522 11.001-18.227 6.836-4.703 16.304-7.627 26.786-7.627 10.482 0 19.95 2.924 26.786 7.627 6.837 4.705 11.001 11.157 11.001 18.227z"
    stroke="url(#prefix__paint17_linear_102_684)" stroke-opacity=".6" stroke-width=".941" />
  <circle cx="184.258" cy="154.624" r="141.382" fill="url(#prefix__paint18_radial_102_684)" fill-opacity=".3" />
  <defs>
    <linearGradient id="prefix__paint0_linear_102_684" x1="184.63" y1="368.68" x2="184.63" y2="455.569"
      gradientUnits="userSpaceOnUse">
      <stop stop-color="#fff" />
      <stop offset=".224" stop-color="#6BE4FF" />
      <stop offset=".623" stop-color="#371B73" stop-opacity=".6" />
      <stop offset="1" stop-color="#0A1153" stop-opacity=".4" />
    </linearGradient>
    <linearGradient id="prefix__paint1_linear_102_684" x1="260.182" y1="298.859" x2="260.182" y2="363.14"
      gradientUnits="userSpaceOnUse">
      <stop stop-color="#fff" />
      <stop offset=".224" stop-color="#6BE4FF" />
      <stop offset=".623" stop-color="#371B73" stop-opacity=".6" />
      <stop offset="1" stop-color="#0A1153" stop-opacity=".4" />
    </linearGradient>
    <linearGradient id="prefix__paint3_linear_102_684" x1="184.259" y1="149.909" x2="184.259" y2="289.54"
      gradientUnits="userSpaceOnUse">
      <stop stop-color="#13154D" />
      <stop offset="1" stop-color="#8E92EE" stop-opacity="0" />
    </linearGradient>
    <linearGradient id="prefix__paint4_linear_102_684" x1="239.608" y1="228.526" x2="245.916" y2="298.959"
      gradientUnits="userSpaceOnUse">
      <stop stop-color="#fff" stop-opacity="0" />
      <stop offset="1" stop-color="#fff" />
    </linearGradient>
    <linearGradient id="prefix__paint6_linear_102_684" x1="57.313" y1="195.186" x2="319.299" y2="165.616"
      gradientUnits="userSpaceOnUse">
      <stop stop-color="#fff" />
      <stop offset="1" stop-color="#12178E" stop-opacity=".4" />
    </linearGradient>
    <linearGradient id="prefix__paint7_linear_102_684" x1="206.204" y1="293.135" x2="164.382" y2="193.358"
      gradientUnits="userSpaceOnUse">
      <stop offset=".001" stop-color="#fff" />
      <stop offset="1" stop-color="#fff" stop-opacity="0" />
    </linearGradient>
    <linearGradient id="prefix__paint10_linear_102_684" x1="50.386" y1="122.352" x2="321.076" y2="130.762"
      gradientUnits="userSpaceOnUse">
      <stop stop-color="#fff" />
      <stop offset="1" stop-color="#5653FF" stop-opacity=".2" />
    </linearGradient>
    <linearGradient id="prefix__paint11_linear_102_684" x1="166.241" y1="262.563" x2="157.734" y2="133.709"
      gradientUnits="userSpaceOnUse">
      <stop stop-color="#fff" />
      <stop offset="1" stop-color="#fff" stop-opacity="0" />
    </linearGradient>
    <linearGradient id="prefix__paint12_linear_102_684" x1="184.257" y1="18.382" x2="184.257" y2="155.629"
      gradientUnits="userSpaceOnUse">
      <stop stop-color="#13154D" stop-opacity=".5" />
      <stop offset="1" stop-color="#8E92EE" stop-opacity="0" />
    </linearGradient>
    <linearGradient id="prefix__paint13_linear_102_684" x1="202.813" y1="185.426" x2="216.895" y2="33.66"
      gradientUnits="userSpaceOnUse">
      <stop stop-color="#fff" />
      <stop offset="1" stop-color="#fff" stop-opacity="0" />
    </linearGradient>
    <linearGradient id="prefix__paint14_linear_102_684" x1="184.259" y1="18.382" x2="184.259" y2="107.959"
      gradientUnits="userSpaceOnUse">
      <stop stop-color="#13154D" />
      <stop offset="1" stop-color="#8E92EE" stop-opacity="0" />
    </linearGradient>
    <linearGradient id="prefix__paint15_linear_102_684" x1="210.699" y1="173.863" x2="184.259" y2="18.382"
      gradientUnits="userSpaceOnUse">
      <stop stop-color="#fff" />
      <stop offset="1" stop-color="#fff" stop-opacity="0" />
    </linearGradient>
    <linearGradient id="prefix__paint16_linear_102_684" x1="184.258" y1="21.557" x2="184.258" y2="74.204"
      gradientUnits="userSpaceOnUse">
      <stop stop-color="#13154D" />
      <stop offset="1" stop-color="#8E92EE" stop-opacity="0" />
    </linearGradient>
    <linearGradient id="prefix__paint17_linear_102_684" x1="204.916" y1="129.711" x2="184.258" y2="21.557"
      gradientUnits="userSpaceOnUse">
      <stop stop-color="#fff" />
      <stop offset="1" stop-color="#fff" stop-opacity="0" />
    </linearGradient>
    <radialGradient id="prefix__paint2_radial_102_684" cx="0" cy="0" r="1" gradientUnits="userSpaceOnUse"
      gradientTransform="matrix(0 186 -186 0 146 178)">
      <stop stop-color="#FF65C1" />
      <stop offset="1" stop-color="#FF65C1" stop-opacity="0" />
    </radialGradient>
    <radialGradient id="prefix__paint5_radial_102_684" cx="0" cy="0" r="1" gradientUnits="userSpaceOnUse"
      gradientTransform="rotate(-19.664 615.933 -20.674) scale(300.275)">
      <stop offset=".249" stop-color="#fff" />
      <stop offset=".483" stop-color="#FF8FED" stop-opacity=".5" />
      <stop offset=".627" stop-color="#220C7A" stop-opacity=".5" />
    </radialGradient>
    <radialGradient id="prefix__paint8_radial_102_684" cx="0" cy="0" r="1" gradientUnits="userSpaceOnUse"
      gradientTransform="rotate(-14.849 849.83 -299.154) scale(207.504)">
      <stop offset=".239" stop-color="#fff" />
      <stop offset=".41" stop-color="#FFCEF1" />
      <stop offset=".675" stop-color="#B6B9FF" />
      <stop offset=".861" stop-color="#FFA8E7" />
      <stop offset="1" stop-color="#fff" />
    </radialGradient>
    <radialGradient id="prefix__paint9_radial_102_684" cx="0" cy="0" r="1" gradientUnits="userSpaceOnUse"
      gradientTransform="rotate(-121.724 207.397 38.773) scale(119.316)">
      <stop stop-color="#3F52FF" />
      <stop offset="1" stop-color="#3F52FF" stop-opacity="0" />
    </radialGradient>
    <radialGradient id="prefix__paint18_radial_102_684" cx="0" cy="0" r="1" gradientUnits="userSpaceOnUse"
      gradientTransform="rotate(-19.664 615.93 -20.675) scale(300.275)">
      <stop offset=".249" stop-color="#fff" />
      <stop offset=".483" stop-color="#FF8FED" stop-opacity=".5" />
      <stop offset=".627" stop-color="#220C7A" stop-opacity="0" />
    </radialGradient>
    <filter id="prefix__filter0_dd_102_684" x="126.915" y="344.628" width="115.43" height="115.43"
      filterUnits="userSpaceOnUse" color-interpolation-filters="sRGB">
      <feFlood flood-opacity="0" result="BackgroundImageFix" />
      <feColorMatrix in="SourceAlpha" values="0 0 0 0 0 0 0 0 0 0 0 0 0 0 0 0 0 0 127 0" result="hardAlpha" />
      <feOffset dy="-1.882" />
      <feGaussianBlur stdDeviation="16.471" />
      <feComposite in2="hardAlpha" operator="out" />
      <feColorMatrix values="0 0 0 0 0.371081 0 0 0 0 0.235903 0 0 0 0 0.658333 0 0 0 1 0" />
      <feBlend in2="BackgroundImageFix" result="effect1_dropShadow_102_684" />
      <feColorMatrix in="SourceAlpha" values="0 0 0 0 0 0 0 0 0 0 0 0 0 0 0 0 0 0 127 0" result="hardAlpha" />
      <feOffset dy="-1.882" />
      <feGaussianBlur stdDeviation="9.412" />
      <feComposite in2="hardAlpha" operator="out" />
      <feColorMatrix values="0 0 0 0 0.48825 0 0 0 0 0.372778 0 0 0 0 0.733333 0 0 0 1 0" />
      <feBlend in2="effect1_dropShadow_102_684" result="effect2_dropShadow_102_684" />
      <feBlend in="SourceGraphic" in2="effect2_dropShadow_102_684" result="shape" />
    </filter>
    <filter id="prefix__filter1_dd_102_684" x="208.913" y="272.004" width="102.538" height="102.538"
      filterUnits="userSpaceOnUse" color-interpolation-filters="sRGB">
      <feFlood flood-opacity="0" result="BackgroundImageFix" />
      <feColorMatrix in="SourceAlpha" values="0 0 0 0 0 0 0 0 0 0 0 0 0 0 0 0 0 0 127 0" result="hardAlpha" />
      <feOffset dy="-1.882" />
      <feGaussianBlur stdDeviation="16.471" />
      <feComposite in2="hardAlpha" operator="out" />
      <feColorMatrix values="0 0 0 0 0.371081 0 0 0 0 0.235903 0 0 0 0 0.658333 0 0 0 1 0" />
      <feBlend in2="BackgroundImageFix" result="effect1_dropShadow_102_684" />
      <feColorMatrix in="SourceAlpha" values="0 0 0 0 0 0 0 0 0 0 0 0 0 0 0 0 0 0 127 0" result="hardAlpha" />
      <feOffset dy="-1.882" />
      <feGaussianBlur stdDeviation="9.412" />
      <feComposite in2="hardAlpha" operator="out" />
      <feColorMatrix values="0 0 0 0 0.48825 0 0 0 0 0.372778 0 0 0 0 0.733333 0 0 0 1 0" />
      <feBlend in2="effect1_dropShadow_102_684" result="effect2_dropShadow_102_684" />
      <feBlend in="SourceGraphic" in2="effect2_dropShadow_102_684" result="shape" />
    </filter>
    <filter id="prefix__filter2_d_102_684" x="63.406" y="141.438" width="241.708" height="158.454"
      filterUnits="userSpaceOnUse" color-interpolation-filters="sRGB">
      <feFlood flood-opacity="0" result="BackgroundImageFix" />
      <feColorMatrix in="SourceAlpha" values="0 0 0 0 0 0 0 0 0 0 0 0 0 0 0 0 0 0 127 0" result="hardAlpha" />
      <feOffset dy=".941" />
      <feGaussianBlur stdDeviation="4.706" />
      <feComposite in2="hardAlpha" operator="out" />
      <feColorMatrix values="0 0 0 0 0.440043 0 0 0 0 0.20092 0 0 0 0 0.679167 0 0 0 0.3 0" />
      <feBlend in2="BackgroundImageFix" result="effect1_dropShadow_102_684" />
      <feBlend in="SourceGraphic" in2="effect1_dropShadow_102_684" result="shape" />
    </filter>
    <filter id="prefix__filter3_d_102_684" x="42.733" y="45.038" width="283.049" height="167.4"
      filterUnits="userSpaceOnUse" color-interpolation-filters="sRGB">
      <feFlood flood-opacity="0" result="BackgroundImageFix" />
      <feColorMatrix in="SourceAlpha" values="0 0 0 0 0 0 0 0 0 0 0 0 0 0 0 0 0 0 127 0" result="hardAlpha" />
      <feOffset dy=".941" />
      <feGaussianBlur stdDeviation="2.353" />
      <feComposite in2="hardAlpha" operator="out" />
      <feColorMatrix values="0 0 0 0 0.369333 0 0 0 0 0.0916667 0 0 0 0 0.5 0 0 0 0.15 0" />
      <feBlend in2="BackgroundImageFix" result="effect1_dropShadow_102_684" />
      <feBlend in="SourceGraphic" in2="effect1_dropShadow_102_684" result="shape" />
    </filter>
    <filter id="prefix__filter4_d_102_684" x="71.972" y="12.264" width="226.452" height="151.365"
      filterUnits="userSpaceOnUse" color-interpolation-filters="sRGB">
      <feFlood flood-opacity="0" result="BackgroundImageFix" />
      <feColorMatrix in="SourceAlpha" values="0 0 0 0 0 0 0 0 0 0 0 0 0 0 0 0 0 0 127 0" result="hardAlpha" />
      <feOffset dx=".941" dy=".941" />
      <feGaussianBlur stdDeviation="3.529" />
      <feComposite in2="hardAlpha" operator="out" />
      <feColorMatrix values="0 0 0 0 0.440043 0 0 0 0 0.20092 0 0 0 0 0.679167 0 0 0 0.2 0" />
      <feBlend in2="BackgroundImageFix" result="effect1_dropShadow_102_684" />
      <feBlend in="SourceGraphic" in2="effect1_dropShadow_102_684" result="shape" />
    </filter>
  </defs>
</svg>