<svg width="200" height="69" viewBox="100 0 10 69" fill="none" xmlns="http://www.w3.org/2000/svg">
<path d="M99.1766 57.255C97.3838 55.973 95.8927 54.9332 95.5237 55.3319C95.162 55.713 96.091 57.5319 97.914 59.0655C99.7286 60.6134 101.723 61.0395 102.053 60.3915C102.392 59.7369 100.962 58.5391 99.1766 57.255Z" fill="url(#paint0_linear_104_532)"/>
<path d="M93.6624 58.0417C92.0352 56.3261 90.7002 55.2895 90.4184 55.9746C90.1452 56.6488 91.1298 58.8411 92.8693 60.6524C94.604 62.477 96.3485 63.109 96.5094 62.3265C96.6779 61.5424 95.2854 59.7607 93.6624 58.0417Z" fill="url(#paint1_linear_104_532)"/>
<path d="M88.1881 58.1286C86.648 56.3062 85.3737 55.5705 85.1572 56.6306C85.3396 58.6736 86.2558 60.5809 87.7358 61.9983C89.4477 63.8587 91.0139 64.3388 91.0517 63.2507C90.5739 61.3165 89.5847 59.5471 88.1881 58.1286Z" fill="url(#paint2_linear_104_532)"/>
<path d="M82.5972 58.1705C81.072 56.4371 79.7876 56.1466 79.6273 57.599C79.7969 59.8265 80.7859 61.9116 82.4026 63.4502C84.1368 65.2064 85.5897 65.3412 85.5371 63.8719C85.1088 61.7333 84.0903 59.758 82.5972 58.1705Z" fill="url(#paint3_linear_104_532)"/>
<path d="M76.7812 58.3822C75.2134 56.8486 73.8736 57.0493 73.7587 58.8766C73.8302 60.0559 74.1338 61.2094 74.6519 62.2707C75.17 63.332 75.8924 64.2803 76.7775 65.0609C78.5746 66.6346 79.9713 66.326 79.8547 64.4679C79.4982 62.1648 78.4221 60.0342 76.7812 58.3822Z" fill="url(#paint4_linear_104_532)"/>
<path d="M70.6636 58.7555C69.0085 57.4658 67.5757 58.1457 67.4935 60.3064C67.5431 61.5506 67.8627 62.7689 68.4302 63.8767C68.9976 64.9845 69.7992 65.955 70.7792 66.7208C72.673 68.0868 74.0703 67.3102 73.9155 65.0787C73.6515 62.6399 72.4926 60.3864 70.6636 58.7555Z" fill="url(#paint5_linear_104_532)"/>
<path d="M64.3743 59.716C62.6728 58.4159 61.14 59.0773 60.9615 61.208C60.9678 62.4519 61.2554 63.6782 61.8028 64.7946C62.3502 65.9111 63.1432 66.8887 64.122 67.6539C66.0486 69.0807 67.5759 68.3609 67.527 66.1109C67.4492 64.8892 67.1305 63.695 66.5894 62.5974C66.0482 61.4997 65.2954 60.5204 64.3743 59.716Z" fill="url(#paint6_linear_104_532)"/>
<path d="M57.7198 60.8759C56.0008 59.4263 54.3906 59.7812 54.0892 61.6432C54.0619 62.8351 54.3074 64.0175 54.8067 65.0997C55.3061 66.1819 56.0461 67.1352 56.9701 67.8865C58.881 69.4912 60.5559 69.1525 60.6581 67.1371C60.6166 65.9485 60.3348 64.7808 59.8298 63.7046C59.3247 62.6284 58.6069 61.6661 57.7198 60.8759Z" fill="url(#paint7_linear_104_532)"/>
<path d="M50.6353 61.6888C48.9266 60.0923 47.2608 60.1171 46.8474 61.6913C46.7826 62.8158 46.9804 63.9399 47.4252 64.9744C47.8701 66.0088 48.5496 66.925 49.4099 67.6502C51.2711 69.4048 53.0573 69.465 53.3107 67.7358C53.3089 66.5969 53.07 65.4709 52.6094 64.4297C52.1487 63.3885 51.4764 62.455 50.6353 61.6888Z" fill="url(#paint8_linear_104_532)"/>
<path d="M43.2159 62.0742C41.5844 60.2807 39.8961 59.9089 39.3504 61.1521C39.2182 62.1901 39.3378 63.2447 39.6992 64.2265C40.0605 65.2083 40.6529 66.0883 41.4261 66.7917C43.1613 68.7174 45.0212 69.2493 45.4556 67.8756C45.5208 66.8041 45.3545 65.7311 44.968 64.7299C44.5815 63.7287 43.9839 62.8229 43.2159 62.0742Z" fill="url(#paint9_linear_104_532)"/>
<path d="M35.3845 61.8202C33.8511 59.9411 32.202 59.2924 31.5962 60.2579C30.9975 61.2258 31.71 63.5054 33.3036 65.4758C34.8971 67.4461 36.7243 68.2879 37.2647 67.2253C37.8074 66.1684 36.9153 63.6915 35.3845 61.8202Z" fill="url(#paint10_linear_104_532)"/>
<path d="M27.3523 61.0123C25.9582 59.0944 24.3929 58.2129 23.7646 58.9368C23.1415 59.6635 23.7004 61.7515 25.1139 63.7196C26.5241 65.6833 28.2554 66.758 28.8601 65.9814C29.4647 65.2048 28.7435 62.9277 27.3523 61.0123Z" fill="url(#paint11_linear_104_532)"/>
<path d="M19.2917 59.7625C18.0624 57.8359 16.6266 56.7699 16.0071 57.289C15.3925 57.8136 15.825 59.7429 17.0438 61.6804C18.2627 63.6178 19.8276 64.8365 20.45 64.2987C21.0723 63.7609 20.5173 61.6804 19.2917 59.7625Z" fill="url(#paint12_linear_104_532)"/>
<path d="M11.3838 58.2077C10.3263 56.2846 9.03736 55.0484 8.45708 55.404C7.8768 55.7595 8.21873 57.5777 9.25681 59.5009C10.2908 61.424 11.6574 62.7375 12.2554 62.3826C12.8535 62.0277 12.4396 60.1299 11.3838 58.2077Z" fill="url(#paint13_linear_104_532)"/>
<path d="M4.26979 60.4707C4.80194 60.2569 4.5814 58.4544 3.7772 56.4446C2.97301 54.4348 1.88968 52.9788 1.35753 53.1925C0.825376 53.4062 1.04591 55.2087 1.85011 57.2186C2.65431 59.2284 3.73763 60.6844 4.26979 60.4707Z" fill="url(#paint14_linear_104_532)"/>
<path d="M93.277 47.4432C92.3243 45.6565 91.4847 44.283 91.0988 44.5886C90.7232 44.8851 91.0123 46.8302 92.0431 48.7449C93.0676 50.6687 94.3768 51.6966 94.6768 51.2667C94.9828 50.8301 94.2231 49.2375 93.277 47.4432Z" fill="url(#paint15_linear_104_532)"/>
<path d="M89.0104 46.8388C88.0861 44.9038 87.1933 43.7311 86.7844 44.3654C86.512 46.0504 86.88 47.7765 87.8156 49.2031C88.884 51.193 90.1409 52.1238 90.3949 51.4402C90.3304 49.8136 89.8539 48.2302 89.0104 46.8388Z" fill="url(#paint16_linear_104_532)"/>
<path d="M84.3497 46.1959C83.3874 44.288 82.3796 43.4761 81.9495 44.4769C81.6656 46.3473 82.0981 48.2561 83.1604 49.8202C84.3176 51.7424 85.566 52.3929 85.7948 51.3869C85.7695 49.5604 85.2715 47.7718 84.3497 46.1959Z" fill="url(#paint17_linear_104_532)"/>
<path d="M79.2717 45.7386C78.2145 43.9731 77.0542 43.6097 76.6146 44.9757C76.4694 45.9741 76.5244 46.9914 76.7765 47.9682C77.0286 48.945 77.4727 49.8616 78.0827 50.6643C79.3607 52.4308 80.6358 52.7026 80.8518 51.341C80.8767 49.3598 80.3279 47.4138 79.2717 45.7386Z" fill="url(#paint18_linear_104_532)"/>
<path d="M73.7762 45.5201C72.5833 43.9706 71.2527 44.0873 70.814 45.7938C70.6619 46.8488 70.7422 47.9244 71.0495 48.9449C71.3567 49.9654 71.8834 50.9062 72.5924 51.7009C74.0139 53.2607 75.3447 53.099 75.5546 51.3926C75.6438 49.2897 75.0167 47.2188 73.7762 45.5201Z" fill="url(#paint19_linear_104_532)"/>
<path d="M67.8801 45.5032C66.5203 44.2084 65.016 44.7878 64.5859 46.7912C64.4209 47.8926 64.5273 49.0178 64.8959 50.0685C65.2645 51.1193 65.8841 52.0638 66.7006 52.8196C68.2816 54.1541 69.6942 53.5579 69.9059 51.5214C69.9895 50.4334 69.8532 49.3396 69.5051 48.3055C69.157 47.2715 68.6043 46.3183 67.8801 45.5032Z" fill="url(#paint20_linear_104_532)"/>
<path d="M61.6925 46.1172C60.2663 44.8445 58.6766 45.4305 58.1981 47.3976C58.011 48.4886 58.1056 49.6093 58.4727 50.6534C58.8399 51.6974 59.4675 52.63 60.2959 53.3625C61.9218 54.7056 63.4425 54.1379 63.7236 52.1058C63.841 51.0196 63.7201 49.9208 63.3692 48.8864C63.0184 47.852 62.4461 46.9069 61.6925 46.1172Z" fill="url(#paint21_linear_104_532)"/>
<path d="M55.1448 47.0309C53.7027 45.6658 52.1005 45.9952 51.5778 47.7226C51.3867 48.763 51.4664 49.8351 51.8094 50.8356C52.1523 51.836 52.7468 52.7311 53.5356 53.4343C55.1432 54.8883 56.7438 54.6173 57.1001 52.806C57.2262 51.7581 57.116 50.6953 56.7776 49.6958C56.4392 48.6963 55.8812 47.7856 55.1448 47.0309Z" fill="url(#paint22_linear_104_532)"/>
<path d="M48.2823 47.7945C46.8481 46.3348 45.247 46.3998 44.6854 47.8809C44.4898 48.8617 44.5519 49.8767 44.8659 50.8262C45.1798 51.7757 45.7347 52.6272 46.4761 53.297C48.0401 54.8434 49.6915 54.8694 50.1185 53.3054C50.2555 52.3073 50.1611 51.2909 49.8426 50.3352C49.5242 49.3795 48.9903 48.5101 48.2823 47.7945Z" fill="url(#paint23_linear_104_532)"/>
<path d="M41.2076 48.3722C39.8396 46.7649 38.2627 46.4974 37.6401 47.7007C37.4133 48.6111 37.4296 49.5652 37.6874 50.4673C37.9451 51.3694 38.4352 52.1876 39.1084 52.8399C40.5681 54.514 42.2377 54.9079 42.7668 53.6359C42.9375 52.6975 42.8853 51.732 42.6144 50.8176C42.3436 49.9031 41.8616 49.0654 41.2076 48.3722Z" fill="url(#paint24_linear_104_532)"/>
<path d="M33.8438 48.5857C32.5412 46.9173 31.015 46.4162 30.3798 47.3908C29.7492 48.3628 30.2888 50.4739 31.6474 52.1888C33.006 53.9037 34.6346 54.5352 35.2104 53.5116C35.3983 52.6411 35.3721 51.7378 35.134 50.8796C34.896 50.0215 34.4532 49.2342 33.8438 48.5857Z" fill="url(#paint25_linear_104_532)"/>
<path d="M26.3309 48.4839C25.1173 46.7718 23.6628 46.0629 23.0331 46.8293C22.4089 47.5915 22.8626 49.5636 24.1031 51.3011C25.3435 53.0386 26.8923 53.8679 27.4917 53.0751C28.0911 52.2823 27.5438 50.1902 26.3309 48.4839Z" fill="url(#paint26_linear_104_532)"/>
<path d="M18.7531 48.0932C17.6426 46.348 16.2828 45.4453 15.6754 46.0253C15.0681 46.6053 15.4528 48.4641 16.5685 50.2187C17.6801 51.9749 19.1139 52.9656 19.7133 52.3712C20.3127 51.7769 19.8624 49.8346 18.7531 48.0932Z" fill="url(#paint27_linear_104_532)"/>
<path d="M11.2023 47.4467C10.2023 45.6615 8.94746 44.5729 8.37605 44.9885C7.80465 45.404 8.13497 47.186 9.12912 48.9761C10.1233 50.7663 11.4161 51.8955 11.9927 51.4724C12.5694 51.0493 12.202 49.2336 11.2023 47.4467Z" fill="url(#paint28_linear_104_532)"/>
<path d="M4.52486 50.3798C5.05401 50.1046 4.71223 48.3941 3.76147 46.5594C2.81072 44.7246 1.61102 43.4603 1.08188 43.7355C0.552735 44.0108 0.894517 45.7212 1.84527 47.556C2.79603 49.3908 3.99572 50.6551 4.52486 50.3798Z" fill="url(#paint29_linear_104_532)"/>
<path d="M91.6967 36.3305C91.5189 34.3563 91.2255 32.8341 90.7513 33.036C90.2848 33.2351 89.9037 35.1707 90.1851 37.2471C90.4583 39.3306 91.2038 40.6712 91.5667 40.3672C91.938 39.0524 91.9826 37.6666 91.6967 36.3305Z" fill="url(#paint30_linear_104_532)"/>
<path d="M88.0436 34.8001C87.7866 32.7652 87.2682 31.4857 86.6747 32.0527C85.9281 33.5617 85.7659 35.2942 86.2194 36.916C86.6417 38.9974 87.4922 40.1058 87.9088 39.5003C88.3296 37.9671 88.3759 36.355 88.0436 34.8001Z" fill="url(#paint31_linear_104_532)"/>
<path d="M83.7767 33.5603C83.3758 31.5877 82.5852 30.6909 81.8938 31.6474C81.1384 33.3361 81.0569 35.2504 81.6661 36.9974C82.2783 38.9691 83.2654 39.7295 83.741 38.783C84.2055 37.0748 84.2178 35.2748 83.7767 33.5603Z" fill="url(#paint32_linear_104_532)"/>
<path d="M78.9275 32.7016C78.327 30.8891 77.2483 30.4624 76.4862 31.8014C76.1105 32.7015 75.9255 33.6699 75.9429 34.6454C75.9603 35.6209 76.1797 36.5821 76.5872 37.4682C77.4152 39.2528 78.5551 39.5991 79.0866 38.2947C79.5967 36.4568 79.5413 34.5074 78.9275 32.7016Z" fill="url(#paint33_linear_104_532)"/>
<path d="M73.5447 32.2258C72.7099 30.6432 71.3447 30.7253 70.5456 32.4126C70.1668 33.3575 70.0146 34.3783 70.1012 35.3928C70.1878 36.4074 70.5109 37.3874 71.0444 38.2541C72.1012 39.8025 73.404 39.7042 73.9811 38.0559C74.5443 36.1236 74.3893 34.0523 73.5447 32.2258Z" fill="url(#paint34_linear_104_532)"/>
<path d="M67.6882 32.0785C66.5989 30.7698 64.9668 31.3523 64.1596 33.3407C63.7728 34.3179 63.6556 35.3813 63.8204 36.4195C63.9851 37.4577 64.4257 38.4324 65.0959 39.2412C66.3856 40.536 67.8541 39.9913 68.4677 38.0215C68.7809 37.0342 68.8735 35.9901 68.7388 34.963C68.6041 33.9359 68.2454 32.9511 67.6882 32.0785Z" fill="url(#paint35_linear_104_532)"/>
<path d="M61.4071 32.6881C60.2189 31.4337 58.5138 32.0534 57.7057 34.0142C57.3203 34.9805 57.2151 36.0363 57.4022 37.0598C57.5894 38.0834 58.0613 39.0333 58.7636 39.8C60.1233 41.066 61.6827 40.5173 62.3233 38.5497C62.6489 37.5703 62.7355 36.5271 62.5761 35.5074C62.4167 34.4876 62.0158 33.5209 61.4071 32.6881Z" fill="url(#paint36_linear_104_532)"/>
<path d="M54.7335 33.7302C54.488 33.4299 54.1641 33.2037 53.7979 33.0768C53.4317 32.9499 53.0375 32.9272 52.6592 33.0114C52.281 33.0955 51.9334 33.2832 51.6552 33.5534C51.377 33.8237 51.1792 34.166 51.0836 34.5422C50.726 35.4682 50.6382 36.4768 50.8301 37.4508C51.0221 38.4249 51.4861 39.3244 52.1681 40.0447C52.3895 40.3617 52.6983 40.6071 53.0568 40.7511C53.4153 40.895 53.8078 40.9312 54.1864 40.8552C54.5651 40.7792 54.9134 40.5943 55.1889 40.3232C55.4643 40.052 55.6549 39.7063 55.7374 39.3283C56.042 38.3844 56.1098 37.3798 55.9347 36.4034C55.7596 35.427 55.347 34.5089 54.7335 33.7302Z" fill="url(#paint37_linear_104_532)"/>
<path d="M47.8045 34.7586C47.6094 34.4436 47.3318 34.1883 47.0018 34.0206C46.6718 33.8529 46.3022 33.7792 45.9333 33.8076C45.5644 33.836 45.2103 33.9653 44.9098 34.1815C44.6092 34.3978 44.3737 34.6925 44.229 35.0337C43.901 35.9137 43.8289 36.8689 44.0213 37.7883C44.2136 38.7078 44.6624 39.5536 45.3156 40.2276C46.6485 41.6351 48.232 41.5851 48.8587 40.0575C49.1424 39.1567 49.1945 38.1988 49.0102 37.2725C48.8259 36.3462 48.4112 35.4815 47.8045 34.7586Z" fill="url(#paint38_linear_104_532)"/>
<path d="M40.7293 35.7291C39.5581 34.229 38.008 34.0673 37.2715 35.3039C36.9502 36.1315 36.8674 37.0328 37.0324 37.9053C37.1974 38.7777 37.6037 39.5862 38.2049 40.2386C39.46 41.761 41.0216 42.0303 41.6748 40.772C41.9548 39.9198 42.015 39.0105 41.8497 38.1287C41.6844 37.2469 41.2989 36.4214 40.7293 35.7291Z" fill="url(#paint39_linear_104_532)"/>
<path d="M33.4404 36.4548C32.2976 34.9039 30.8122 34.5223 30.1151 35.5386C29.8192 36.3158 29.7461 37.1604 29.904 37.977C30.0618 38.7937 30.4445 39.5498 31.0086 40.1601C32.2047 41.7249 33.7197 42.2085 34.3615 41.1737C34.6269 40.3743 34.6816 39.5197 34.5202 38.6929C34.3588 37.8661 33.9868 37.0951 33.4404 36.4548Z" fill="url(#paint40_linear_104_532)"/>
<path d="M26.0488 36.9472C24.9497 35.3534 23.5356 34.7611 22.8776 35.5758C22.2197 36.3905 22.5919 38.3084 23.7184 39.9117C24.8448 41.5151 26.2908 42.1913 26.9171 41.3666C27.5433 40.5419 27.1447 38.5403 26.0488 36.9472Z" fill="url(#paint41_linear_104_532)"/>
<path d="M18.5992 37.1865C17.5604 35.5448 16.2261 34.7509 15.6115 35.3785C14.9968 36.0062 15.3417 37.8292 16.3928 39.4775C17.4438 41.1258 18.8011 41.9763 19.4032 41.3413C20.0054 40.7063 19.6377 38.827 18.5992 37.1865Z" fill="url(#paint42_linear_104_532)"/>
<path d="M11.1495 37.1525C10.179 35.4495 8.93448 34.453 8.36126 34.9128C7.79213 35.3717 8.11084 37.1263 9.082 38.8373C10.0532 40.5483 11.3089 41.568 11.8803 41.0991C12.4517 40.6302 12.1198 38.8562 11.1495 37.1525Z" fill="url(#paint43_linear_104_532)"/>
<path d="M4.64344 40.5156C5.17138 40.2044 4.77389 38.5465 3.75561 36.8126C2.73733 35.0787 1.48387 33.9254 0.955925 34.2366C0.427982 34.5478 0.82548 36.2057 1.84376 37.9396C2.86204 39.6735 4.1155 40.8268 4.64344 40.5156Z" fill="url(#paint44_linear_104_532)"/>
<path d="M94.4697 25.3731C95.0648 23.392 95.3382 21.6739 94.7756 21.6019C94.2204 21.5298 93.1341 23.2616 92.6435 25.3859C92.1445 27.5113 92.3446 29.1181 92.796 29.0503C93.254 28.9783 93.868 27.3612 94.4697 25.3731Z" fill="url(#paint45_linear_104_532)"/>
<path d="M91.3791 22.0277C91.8266 19.9077 91.7026 18.3821 90.8928 18.7557C89.635 20.0123 88.8902 21.6937 88.8041 23.4712C88.5362 25.6507 88.9862 26.9803 89.6061 26.5566C90.5686 25.2208 91.1785 23.6629 91.3791 22.0277Z" fill="url(#paint46_linear_104_532)"/>
<path d="M87.3715 19.4543C87.5664 17.3515 86.979 16.2398 85.9601 17.1093C84.7074 18.6279 84.0531 20.5535 84.1207 22.5224C84.155 24.6008 84.9033 25.5175 85.6848 24.6839C86.6965 23.1197 87.2783 21.3158 87.3715 19.4543Z" fill="url(#paint47_linear_104_532)"/>
<path d="M82.5037 17.7871C82.3705 15.8453 81.306 15.3027 80.1422 16.6634C79.5313 17.4958 79.0913 18.4415 78.848 19.4456C78.6047 20.4497 78.5629 21.4922 78.7249 22.5126C79.098 24.3662 80.1548 24.784 81.0786 23.5193C82.121 21.7968 82.6179 19.7982 82.5037 17.7871Z" fill="url(#paint48_linear_104_532)"/>
<path d="M76.8823 17.0199C76.3778 15.3549 74.8705 15.4555 73.6244 17.2561C73.0221 18.1269 72.6299 19.1259 72.4787 20.1744C72.3276 21.2228 72.4216 22.2922 72.7534 23.2981C73.4743 24.849 74.8268 24.7304 75.8576 23.0513C76.932 21.237 77.297 19.0881 76.8823 17.0199Z" fill="url(#paint49_linear_104_532)"/>
<path d="M70.6383 17.0356C69.7523 15.718 67.861 16.4615 66.6002 18.6207C65.9971 19.504 65.6534 20.5391 65.6084 21.6083C65.5634 22.6776 65.8187 23.738 66.3455 24.669C67.4034 25.8872 69.0256 25.2351 70.1245 23.1756C70.68 22.2624 71.0157 21.2321 71.1049 20.1664C71.1941 19.1006 71.0343 18.0287 70.6383 17.0356Z" fill="url(#paint50_linear_104_532)"/>
<path d="M63.7951 18.1947C62.7625 16.9904 60.8147 17.8393 59.6195 19.9889C59.0403 20.8622 58.7363 21.8895 58.7469 22.9379C58.7574 23.9863 59.0821 25.0074 59.6787 25.8687C60.8486 27.0116 62.5439 26.2947 63.6098 24.2074C64.1531 23.3053 64.4555 22.2784 64.488 21.2253C64.5204 20.1723 64.2818 19.1286 63.7951 18.1947Z" fill="url(#paint51_linear_104_532)"/>
<path d="M56.5221 20.048C55.449 18.8164 53.6125 19.4447 52.5462 21.3542C52.0296 22.2012 51.7812 23.185 51.8336 24.1762C51.886 25.1674 52.2367 26.1195 52.8396 26.9071C54.0223 28.1066 55.6784 27.6142 56.6353 25.7346C57.1227 24.8622 57.3691 23.8755 57.3492 22.8759C57.3293 21.8764 57.0438 20.9002 56.5221 20.048Z" fill="url(#paint52_linear_104_532)"/>
<path d="M49.0743 22.0015C47.977 20.7242 46.2471 21.0958 45.2994 22.7459C44.8466 23.562 44.6506 24.4961 44.7373 25.4258C44.8239 26.3554 45.189 27.2371 45.7848 27.9551C46.0206 28.2514 46.3312 28.4789 46.6845 28.6141C47.0378 28.7493 47.4207 28.7872 47.7936 28.724C48.1665 28.6607 48.5156 28.4985 48.8047 28.2543C49.0938 28.0101 49.3124 27.6927 49.4377 27.3352C49.8676 26.4973 50.061 25.5577 49.997 24.6177C49.933 23.6777 49.6139 22.7731 49.0743 22.0015Z" fill="url(#paint53_linear_104_532)"/>
<path d="M41.5778 23.9038C41.4028 23.5874 41.147 23.3234 40.8365 23.1388C40.5261 22.9541 40.1722 22.8556 39.8112 22.8533C39.4501 22.851 39.095 22.9449 38.7822 23.1256C38.4694 23.3062 38.2102 23.5669 38.0312 23.881C37.6197 24.6623 37.4469 25.5476 37.5343 26.4266C37.6217 27.3056 37.9654 28.1393 38.5227 28.8239C39.6535 30.2259 41.1972 30.3112 42.0024 28.9548C42.3911 28.1523 42.5568 27.2598 42.4821 26.3709C42.4073 25.4821 42.095 24.6299 41.5778 23.9038Z" fill="url(#paint54_linear_104_532)"/>
<path d="M33.9763 25.4958C32.9186 24.0291 31.3991 23.793 30.6153 24.9028C30.258 25.6476 30.1246 26.4804 30.2312 27.2997C30.3378 28.1191 30.6799 28.8898 31.2158 29.5179C32.3213 30.9828 33.8019 31.3101 34.537 30.1982C34.8788 29.4374 35.0072 28.5975 34.9084 27.769C34.8096 26.9405 34.4874 26.1546 33.9763 25.4958Z" fill="url(#paint55_linear_104_532)"/>
<path d="M26.3593 26.7158C25.3185 25.1877 23.8845 24.6996 23.1777 25.5772C22.869 26.2877 22.7682 27.0714 22.8868 27.837C23.0054 28.6027 23.3386 29.3189 23.8477 29.9022C24.9162 31.4337 26.329 31.9921 27.0054 31.111C27.3052 30.3885 27.4035 29.5979 27.2897 28.8238C27.1759 28.0497 26.8543 27.321 26.3593 26.7158Z" fill="url(#paint56_linear_104_532)"/>
<path d="M18.7576 27.4889C17.7482 25.8888 16.4001 25.153 15.7606 25.8133C15.1211 26.4736 15.4419 28.2952 16.4634 29.9054C17.4848 31.5156 18.8202 32.2945 19.4442 31.6224C20.0682 30.9502 19.7659 29.0859 18.7576 27.4889Z" fill="url(#paint57_linear_104_532)"/>
<path d="M11.208 27.7369C10.2457 26.0461 8.98935 25.0611 8.40793 25.5225C7.82651 25.9839 8.14362 27.7448 9.10863 29.4529C10.0736 31.161 11.32 32.1606 11.8978 31.6796C12.4756 31.1986 12.1699 29.428 11.208 27.7369Z" fill="url(#paint58_linear_104_532)"/>
<path d="M4.57901 31.1328C5.10856 30.841 4.74211 29.1551 3.76053 27.3673C2.77895 25.5794 1.55394 24.3667 1.02439 24.6585C0.494837 24.9503 0.86128 26.6362 1.84286 28.4241C2.82444 30.2119 4.04946 31.4247 4.57901 31.1328Z" fill="url(#paint59_linear_104_532)"/>
<path d="M101.602 16.1379C102.971 14.3664 103.802 12.475 103.142 12.0043C102.49 11.5346 100.706 12.8896 99.4591 14.9051C98.2027 16.9229 97.8573 18.6768 98.3873 18.9063C98.9259 19.1314 100.225 17.9166 101.602 16.1379Z" fill="url(#paint60_linear_104_532)"/>
<path d="M99.004 10.4814C100.127 8.32837 100.356 6.45793 99.315 6.53159C98.2794 6.60389 96.5495 8.67139 95.638 10.9298C94.7217 13.1946 94.8068 14.7425 95.6314 14.5694C96.4593 14.3881 97.8753 12.641 99.004 10.4814Z" fill="url(#paint61_linear_104_532)"/>
<path d="M95.0639 5.99197C95.8049 3.69708 95.3578 2.22371 93.9962 2.94648C92.2422 4.32788 91.0421 6.29484 90.6149 8.48871C90.1316 10.7466 90.6977 11.8772 91.7975 11.2083C93.3665 9.82223 94.501 8.01041 95.0639 5.99197Z" fill="url(#paint62_linear_104_532)"/>
<path d="M89.8957 2.95059C90.1607 0.754453 89.0375 -0.041983 87.4466 1.33627C85.7527 2.99863 84.7381 5.23393 84.601 7.6056C84.5926 9.64847 85.6421 10.2111 86.977 8.99686C88.5529 7.3339 89.573 5.22072 89.8957 2.95059Z" fill="url(#paint63_linear_104_532)"/>
<path d="M83.6872 1.40356C83.4339 -0.49494 81.696 -0.470306 79.9745 1.49479C79.165 2.37575 78.5547 3.42116 78.185 4.5598C77.8153 5.69844 77.6949 6.90354 77.832 8.093C78.3044 9.78281 79.801 9.6991 81.3076 7.95114C82.8765 6.13544 83.7235 3.8048 83.6872 1.40356Z" fill="url(#paint64_linear_104_532)"/>
<path d="M76.6615 1.20285C75.8861 -0.265499 73.6365 0.596169 71.8829 3.02745C71.0869 3.90661 70.5423 4.98462 70.3066 6.14787C70.0709 7.31112 70.1528 8.51653 70.5436 9.63706C71.4649 10.9093 73.3515 10.171 74.9641 7.93745C75.7464 7.02215 76.3067 5.93792 76.6012 4.76959C76.8957 3.60126 76.9163 2.3805 76.6615 1.20285Z" fill="url(#paint65_linear_104_532)"/>
<path d="M68.8289 2.68146C67.8601 1.40287 65.5615 2.47346 63.9331 4.92709C62.3036 7.37433 62.0156 10.1728 63.0851 11.3132C64.1605 12.4536 66.1101 11.5773 67.6417 9.26234C69.1665 6.95354 69.8028 3.95914 68.8289 2.68146Z" fill="url(#paint66_linear_104_532)"/>
<path d="M60.5083 5.2473C59.488 3.9897 57.3726 4.86414 55.9676 7.05297C55.3016 7.88826 54.9042 8.90625 54.8277 9.97254C54.7513 11.0388 54.9994 12.1033 55.5394 13.0253C56.6403 14.1938 58.4833 13.5198 59.8117 11.4151C60.4715 10.5452 60.8846 9.51292 61.0072 8.42726C61.1298 7.34161 60.9574 6.24293 60.5083 5.2473Z" fill="url(#paint67_linear_104_532)"/>
<path d="M52.0918 8.12037C51.0387 6.85158 49.0962 7.45553 47.8942 9.34741C47.3184 10.1516 47.0036 11.1139 46.9926 12.1036C46.9816 13.0932 47.2749 14.0623 47.8327 14.8791C48.9482 16.0959 50.6847 15.6658 51.8243 13.8282C52.3979 12.9973 52.7271 12.0218 52.7744 11.0127C52.8217 10.0036 52.5852 9.00141 52.0918 8.12037Z" fill="url(#paint68_linear_104_532)"/>
<path d="M43.7434 11.0208C43.5134 10.7071 43.2057 10.4589 42.8507 10.3008C42.4956 10.1426 42.1056 10.0801 41.719 10.1192C41.3324 10.1584 40.9628 10.2979 40.6465 10.524C40.3302 10.7501 40.0783 11.055 39.9157 11.4085C39.4093 12.1827 39.1467 13.0915 39.162 14.017C39.1773 14.9425 39.4698 15.8421 40.0015 16.5991C40.2079 16.9132 40.4938 17.1669 40.83 17.3342C41.1662 17.5015 41.5406 17.5765 41.9152 17.5516C42.2898 17.5266 42.651 17.4025 42.9621 17.192C43.2732 16.9816 43.523 16.6922 43.686 16.3534C44.1877 15.5571 44.4587 14.6368 44.4688 13.6953C44.479 12.7537 44.2278 11.8277 43.7434 11.0208Z" fill="url(#paint69_linear_104_532)"/>
<path d="M35.4308 13.5907C35.267 13.2715 35.0239 13 34.7248 12.8024C34.4257 12.6048 34.0809 12.4878 33.7235 12.4627C33.3661 12.4377 33.0083 12.5054 32.6847 12.6593C32.3611 12.8132 32.0825 13.0482 31.876 13.3415C31.4493 14.0797 31.2534 14.9291 31.3136 15.7801C31.3738 16.631 31.6873 17.4443 32.2136 18.1148C33.2776 19.5269 34.7981 19.7166 35.665 18.4759C36.0911 17.7228 36.2953 16.864 36.2538 15.9993C36.2124 15.1346 35.927 14.2995 35.4308 13.5907Z" fill="url(#paint70_linear_104_532)"/>
<path d="M27.2469 15.6913C26.2225 14.2072 24.7125 13.8462 23.9312 14.8246C23.5766 15.5298 23.4371 16.324 23.5302 17.1081C23.6234 17.8922 23.9449 18.6314 24.4548 19.2335C25.5033 20.7138 26.9396 21.1635 27.6952 20.1874C28.0527 19.4722 28.2003 18.6702 28.121 17.8743C28.0417 17.0784 27.7386 16.3215 27.2469 15.6913Z" fill="url(#paint71_linear_104_532)"/>
<path d="M19.2166 17.1891C18.2067 15.6302 16.806 14.987 16.1251 15.7089C15.4442 16.4307 15.7481 18.261 16.7684 19.8281C17.7887 21.3952 19.1415 22.0945 19.8089 21.3622C20.4764 20.6298 20.2273 18.7434 19.2166 17.1891Z" fill="url(#paint72_linear_104_532)"/>
<path d="M11.3736 17.9497C10.4001 16.2921 9.11025 15.3567 8.51244 15.8453C7.91463 16.3338 8.23061 18.0897 9.20495 19.7727C10.1793 21.4557 11.44 22.4079 12.0365 21.8938C12.6329 21.3797 12.3465 19.6067 11.3736 17.9497Z" fill="url(#paint73_linear_104_532)"/>
<path d="M4.58748 21.5828C5.1205 21.2892 4.75672 19.6009 3.77495 17.8119C2.79318 16.0228 1.56519 14.8106 1.03217 15.1042C0.499148 15.3978 0.86293 17.0861 1.8447 18.8751C2.82647 20.6641 4.05446 21.8764 4.58748 21.5828Z" fill="url(#paint74_linear_104_532)"/>

<defs>
<linearGradient id="paint0_linear_104_532" x1="95.4465" y1="55.2455" x2="102.103" y2="55.2455" gradientUnits="userSpaceOnUse">
<stop stop-color="#E9E9E9"/>
<stop offset="0.5" stop-color="#F6F6F6"/>
<stop offset="1" stop-color="#E9E9E9"/>
</linearGradient>
<linearGradient id="paint1_linear_104_532" x1="90.3732" y1="55.7611" x2="96.5233" y2="55.7611" gradientUnits="userSpaceOnUse">
<stop stop-color="#E9E9E9"/>
<stop offset="0.5" stop-color="#F6F6F6"/>
<stop offset="1" stop-color="#E9E9E9"/>
</linearGradient>
<linearGradient id="paint2_linear_104_532" x1="85.1572" y1="56.1412" x2="91.0517" y2="56.1412" gradientUnits="userSpaceOnUse">
<stop stop-color="#E9E9E9"/>
<stop offset="0.5" stop-color="#F6F6F6"/>
<stop offset="1" stop-color="#E9E9E9"/>
</linearGradient>
<linearGradient id="paint3_linear_104_532" x1="79.6273" y1="56.6683" x2="85.5385" y2="56.6683" gradientUnits="userSpaceOnUse">
<stop stop-color="#E9E9E9"/>
<stop offset="0.5" stop-color="#F6F6F6"/>
<stop offset="1" stop-color="#E9E9E9"/>
</linearGradient>
<linearGradient id="paint4_linear_104_532" x1="73.7587" y1="57.3556" x2="79.8615" y2="57.3556" gradientUnits="userSpaceOnUse">
<stop stop-color="#E9E9E9"/>
<stop offset="0.5" stop-color="#F6F6F6"/>
<stop offset="1" stop-color="#E9E9E9"/>
</linearGradient>
<linearGradient id="paint5_linear_104_532" x1="67.4935" y1="58.1038" x2="73.9273" y2="58.1038" gradientUnits="userSpaceOnUse">
<stop stop-color="#E9E9E9"/>
<stop offset="0.5" stop-color="#F6F6F6"/>
<stop offset="1" stop-color="#E9E9E9"/>
</linearGradient>
<linearGradient id="paint6_linear_104_532" x1="60.9615" y1="59.0506" x2="67.5281" y2="59.0506" gradientUnits="userSpaceOnUse">
<stop stop-color="#E9E9E9"/>
<stop offset="0.5" stop-color="#F6F6F6"/>
<stop offset="1" stop-color="#E9E9E9"/>
</linearGradient>
<linearGradient id="paint7_linear_104_532" x1="54.0872" y1="59.9822" x2="60.6581" y2="59.9822" gradientUnits="userSpaceOnUse">
<stop stop-color="#E9E9E9"/>
<stop offset="0.5" stop-color="#F6F6F6"/>
<stop offset="1" stop-color="#E9E9E9"/>
</linearGradient>
<linearGradient id="paint8_linear_104_532" x1="46.8354" y1="60.501" x2="53.3107" y2="60.501" gradientUnits="userSpaceOnUse">
<stop stop-color="#E9E9E9"/>
<stop offset="0.5" stop-color="#F6F6F6"/>
<stop offset="1" stop-color="#E9E9E9"/>
</linearGradient>
<linearGradient id="paint9_linear_104_532" x1="39.2982" y1="60.4229" x2="45.4694" y2="60.4229" gradientUnits="userSpaceOnUse">
<stop stop-color="#E9E9E9"/>
<stop offset="0.5" stop-color="#F6F6F6"/>
<stop offset="1" stop-color="#E9E9E9"/>
</linearGradient>
<linearGradient id="paint10_linear_104_532" x1="31.3857" y1="59.8139" x2="37.4245" y2="59.8139" gradientUnits="userSpaceOnUse">
<stop stop-color="#E9E9E9"/>
<stop offset="0.5" stop-color="#F6F6F6"/>
<stop offset="1" stop-color="#E9E9E9"/>
</linearGradient>
<linearGradient id="paint11_linear_104_532" x1="23.5119" y1="58.6851" x2="29.0754" y2="58.6851" gradientUnits="userSpaceOnUse">
<stop stop-color="#E9E9E9"/>
<stop offset="0.5" stop-color="#F6F6F6"/>
<stop offset="1" stop-color="#E9E9E9"/>
</linearGradient>
<linearGradient id="paint12_linear_104_532" x1="15.7296" y1="57.1581" x2="20.707" y2="57.1581" gradientUnits="userSpaceOnUse">
<stop stop-color="#E9E9E9"/>
<stop offset="0.5" stop-color="#F6F6F6"/>
<stop offset="1" stop-color="#E9E9E9"/>
</linearGradient>
<linearGradient id="paint13_linear_104_532" x1="8.17575" y1="55.3431" x2="12.5309" y2="55.3431" gradientUnits="userSpaceOnUse">
<stop stop-color="#E9E9E9"/>
<stop offset="0.5" stop-color="#F6F6F6"/>
<stop offset="1" stop-color="#E9E9E9"/>
</linearGradient>
<linearGradient id="paint14_linear_104_532" x1="0.393982" y1="53.5795" x2="2.32207" y2="52.808" gradientUnits="userSpaceOnUse">
<stop stop-color="#E9E9E9"/>
<stop offset="0.5" stop-color="#F6F6F6"/>
<stop offset="1" stop-color="#E9E9E9"/>
</linearGradient>
<linearGradient id="paint15_linear_104_532" x1="90.9413" y1="44.5459" x2="94.7456" y2="44.5459" gradientUnits="userSpaceOnUse">
<stop stop-color="#E9E9E9"/>
<stop offset="0.5" stop-color="#F6F6F6"/>
<stop offset="1" stop-color="#E9E9E9"/>
</linearGradient>
<linearGradient id="paint16_linear_104_532" x1="86.6968" y1="44.1922" x2="90.3949" y2="44.1922" gradientUnits="userSpaceOnUse">
<stop stop-color="#E9E9E9"/>
<stop offset="0.5" stop-color="#F6F6F6"/>
<stop offset="1" stop-color="#E9E9E9"/>
</linearGradient>
<linearGradient id="paint17_linear_104_532" x1="81.8644" y1="44.046" x2="85.7948" y2="44.046" gradientUnits="userSpaceOnUse">
<stop stop-color="#E9E9E9"/>
<stop offset="0.5" stop-color="#F6F6F6"/>
<stop offset="1" stop-color="#E9E9E9"/>
</linearGradient>
<linearGradient id="paint18_linear_104_532" x1="76.5355" y1="44.1451" x2="80.8526" y2="44.1451" gradientUnits="userSpaceOnUse">
<stop stop-color="#E9E9E9"/>
<stop offset="0.5" stop-color="#F6F6F6"/>
<stop offset="1" stop-color="#E9E9E9"/>
</linearGradient>
<linearGradient id="paint19_linear_104_532" x1="70.7391" y1="44.4316" x2="75.563" y2="44.4316" gradientUnits="userSpaceOnUse">
<stop stop-color="#E9E9E9"/>
<stop offset="0.5" stop-color="#F6F6F6"/>
<stop offset="1" stop-color="#E9E9E9"/>
</linearGradient>
<linearGradient id="paint20_linear_104_532" x1="64.5104" y1="44.8125" x2="69.9298" y2="44.8125" gradientUnits="userSpaceOnUse">
<stop stop-color="#E9E9E9"/>
<stop offset="0.5" stop-color="#F6F6F6"/>
<stop offset="1" stop-color="#E9E9E9"/>
</linearGradient>
<linearGradient id="paint21_linear_104_532" x1="58.1046" y1="45.4431" x2="63.7671" y2="45.4431" gradientUnits="userSpaceOnUse">
<stop stop-color="#E9E9E9"/>
<stop offset="0.5" stop-color="#F6F6F6"/>
<stop offset="1" stop-color="#E9E9E9"/>
</linearGradient>
<linearGradient id="paint22_linear_104_532" x1="51.4763" y1="46.1856" x2="57.1507" y2="46.1856" gradientUnits="userSpaceOnUse">
<stop stop-color="#E9E9E9"/>
<stop offset="0.5" stop-color="#F6F6F6"/>
<stop offset="1" stop-color="#E9E9E9"/>
</linearGradient>
<linearGradient id="paint23_linear_104_532" x1="44.5737" y1="46.7342" x2="50.1795" y2="46.7342" gradientUnits="userSpaceOnUse">
<stop stop-color="#E9E9E9"/>
<stop offset="0.5" stop-color="#F6F6F6"/>
<stop offset="1" stop-color="#E9E9E9"/>
</linearGradient>
<linearGradient id="paint24_linear_104_532" x1="37.4813" y1="46.9531" x2="42.8651" y2="46.9531" gradientUnits="userSpaceOnUse">
<stop stop-color="#E9E9E9"/>
<stop offset="0.5" stop-color="#F6F6F6"/>
<stop offset="1" stop-color="#E9E9E9"/>
</linearGradient>
<linearGradient id="paint25_linear_104_532" x1="30.1176" y1="46.8963" x2="35.3343" y2="46.8963" gradientUnits="userSpaceOnUse">
<stop stop-color="#E9E9E9"/>
<stop offset="0.5" stop-color="#F6F6F6"/>
<stop offset="1" stop-color="#E9E9E9"/>
</linearGradient>
<linearGradient id="paint26_linear_104_532" x1="22.7545" y1="46.5219" x2="27.736" y2="46.5219" gradientUnits="userSpaceOnUse">
<stop stop-color="#E9E9E9"/>
<stop offset="0.5" stop-color="#F6F6F6"/>
<stop offset="1" stop-color="#E9E9E9"/>
</linearGradient>
<linearGradient id="paint27_linear_104_532" x1="15.3886" y1="45.85" x2="19.9799" y2="45.85" gradientUnits="userSpaceOnUse">
<stop stop-color="#E9E9E9"/>
<stop offset="0.5" stop-color="#F6F6F6"/>
<stop offset="1" stop-color="#E9E9E9"/>
</linearGradient>
<linearGradient id="paint28_linear_104_532" x1="8.09641" y1="44.9001" x2="12.2665" y2="44.9001" gradientUnits="userSpaceOnUse">
<stop stop-color="#E9E9E9"/>
<stop offset="0.5" stop-color="#F6F6F6"/>
<stop offset="1" stop-color="#E9E9E9"/>
</linearGradient>
<linearGradient id="paint29_linear_104_532" x1="0.123779" y1="44.2339" x2="2.04149" y2="43.2401" gradientUnits="userSpaceOnUse">
<stop stop-color="#E9E9E9"/>
<stop offset="0.5" stop-color="#F6F6F6"/>
<stop offset="1" stop-color="#E9E9E9"/>
</linearGradient>
<linearGradient id="paint30_linear_104_532" x1="90.089" y1="33.018" x2="91.8825" y2="33.018" gradientUnits="userSpaceOnUse">
<stop stop-color="#E9E9E9"/>
<stop offset="0.5" stop-color="#F6F6F6"/>
<stop offset="1" stop-color="#E9E9E9"/>
</linearGradient>
<linearGradient id="paint31_linear_104_532" x1="85.9673" y1="31.9179" x2="88.2627" y2="31.9179" gradientUnits="userSpaceOnUse">
<stop stop-color="#E9E9E9"/>
<stop offset="0.5" stop-color="#F6F6F6"/>
<stop offset="1" stop-color="#E9E9E9"/>
</linearGradient>
<linearGradient id="paint32_linear_104_532" x1="81.2617" y1="31.2626" x2="84.0987" y2="31.2626" gradientUnits="userSpaceOnUse">
<stop stop-color="#E9E9E9"/>
<stop offset="0.5" stop-color="#F6F6F6"/>
<stop offset="1" stop-color="#E9E9E9"/>
</linearGradient>
<linearGradient id="paint33_linear_104_532" x1="75.9418" y1="31.0177" x2="79.4324" y2="31.0177" gradientUnits="userSpaceOnUse">
<stop stop-color="#E9E9E9"/>
<stop offset="0.5" stop-color="#F6F6F6"/>
<stop offset="1" stop-color="#E9E9E9"/>
</linearGradient>
<linearGradient id="paint34_linear_104_532" x1="70.0776" y1="31.0909" x2="74.3141" y2="31.0909" gradientUnits="userSpaceOnUse">
<stop stop-color="#E9E9E9"/>
<stop offset="0.5" stop-color="#F6F6F6"/>
<stop offset="1" stop-color="#E9E9E9"/>
</linearGradient>
<linearGradient id="paint35_linear_104_532" x1="63.7479" y1="31.3777" x2="68.7989" y2="31.3777" gradientUnits="userSpaceOnUse">
<stop stop-color="#E9E9E9"/>
<stop offset="0.5" stop-color="#F6F6F6"/>
<stop offset="1" stop-color="#E9E9E9"/>
</linearGradient>
<linearGradient id="paint36_linear_104_532" x1="57.312" y1="32.0369" x2="62.6538" y2="32.0369" gradientUnits="userSpaceOnUse">
<stop stop-color="#E9E9E9"/>
<stop offset="0.5" stop-color="#F6F6F6"/>
<stop offset="1" stop-color="#E9E9E9"/>
</linearGradient>
<linearGradient id="paint37_linear_104_532" x1="50.731" y1="32.9615" x2="56.0297" y2="32.9615" gradientUnits="userSpaceOnUse">
<stop stop-color="#E9E9E9"/>
<stop offset="0.5" stop-color="#F6F6F6"/>
<stop offset="1" stop-color="#E9E9E9"/>
</linearGradient>
<linearGradient id="paint38_linear_104_532" x1="43.9159" y1="33.8017" x2="49.1182" y2="33.8017" gradientUnits="userSpaceOnUse">
<stop stop-color="#E9E9E9"/>
<stop offset="0.5" stop-color="#F6F6F6"/>
<stop offset="1" stop-color="#E9E9E9"/>
</linearGradient>
<linearGradient id="paint39_linear_104_532" x1="36.9496" y1="34.4785" x2="41.9408" y2="34.4785" gradientUnits="userSpaceOnUse">
<stop stop-color="#E9E9E9"/>
<stop offset="0.5" stop-color="#F6F6F6"/>
<stop offset="1" stop-color="#E9E9E9"/>
</linearGradient>
<linearGradient id="paint40_linear_104_532" x1="29.8227" y1="34.973" x2="34.6109" y2="34.973" gradientUnits="userSpaceOnUse">
<stop stop-color="#E9E9E9"/>
<stop offset="0.5" stop-color="#F6F6F6"/>
<stop offset="1" stop-color="#E9E9E9"/>
</linearGradient>
<linearGradient id="paint41_linear_104_532" x1="22.5529" y1="35.2115" x2="27.2142" y2="35.2115" gradientUnits="userSpaceOnUse">
<stop stop-color="#E9E9E9"/>
<stop offset="0.5" stop-color="#F6F6F6"/>
<stop offset="1" stop-color="#E9E9E9"/>
</linearGradient>
<linearGradient id="paint42_linear_104_532" x1="15.3073" y1="35.164" x2="19.6933" y2="35.164" gradientUnits="userSpaceOnUse">
<stop stop-color="#E9E9E9"/>
<stop offset="0.5" stop-color="#F6F6F6"/>
<stop offset="1" stop-color="#E9E9E9"/>
</linearGradient>
<linearGradient id="paint43_linear_104_532" x1="8.07935" y1="34.8008" x2="12.1604" y2="34.8008" gradientUnits="userSpaceOnUse">
<stop stop-color="#E9E9E9"/>
<stop offset="0.5" stop-color="#F6F6F6"/>
<stop offset="1" stop-color="#E9E9E9"/>
</linearGradient>
<linearGradient id="paint44_linear_104_532" x1="0" y1="34.8001" x2="1.91368" y2="33.6762" gradientUnits="userSpaceOnUse">
<stop stop-color="#E9E9E9"/>
<stop offset="0.5" stop-color="#F6F6F6"/>
<stop offset="1" stop-color="#E9E9E9"/>
</linearGradient>
<linearGradient id="paint45_linear_104_532" x1="92.3514" y1="21.5997" x2="95.083" y2="21.5997" gradientUnits="userSpaceOnUse">
<stop stop-color="#E9E9E9"/>
<stop offset="0.5" stop-color="#F6F6F6"/>
<stop offset="1" stop-color="#E9E9E9"/>
</linearGradient>
<linearGradient id="paint46_linear_104_532" x1="88.7251" y1="18.6993" x2="91.6354" y2="18.6993" gradientUnits="userSpaceOnUse">
<stop stop-color="#E9E9E9"/>
<stop offset="0.5" stop-color="#F6F6F6"/>
<stop offset="1" stop-color="#E9E9E9"/>
</linearGradient>
<linearGradient id="paint47_linear_104_532" x1="84.1159" y1="16.8117" x2="87.4086" y2="16.8117" gradientUnits="userSpaceOnUse">
<stop stop-color="#E9E9E9"/>
<stop offset="0.5" stop-color="#F6F6F6"/>
<stop offset="1" stop-color="#E9E9E9"/>
</linearGradient>
<linearGradient id="paint48_linear_104_532" x1="78.6282" y1="15.909" x2="82.5197" y2="15.909" gradientUnits="userSpaceOnUse">
<stop stop-color="#E9E9E9"/>
<stop offset="0.5" stop-color="#F6F6F6"/>
<stop offset="1" stop-color="#E9E9E9"/>
</linearGradient>
<linearGradient id="paint49_linear_104_532" x1="72.4086" y1="15.8353" x2="77.0491" y2="15.8353" gradientUnits="userSpaceOnUse">
<stop stop-color="#E9E9E9"/>
<stop offset="0.5" stop-color="#F6F6F6"/>
<stop offset="1" stop-color="#E9E9E9"/>
</linearGradient>
<linearGradient id="paint50_linear_104_532" x1="65.6033" y1="16.381" x2="71.1289" y2="16.381" gradientUnits="userSpaceOnUse">
<stop stop-color="#E9E9E9"/>
<stop offset="0.5" stop-color="#F6F6F6"/>
<stop offset="1" stop-color="#E9E9E9"/>
</linearGradient>
<linearGradient id="paint51_linear_104_532" x1="58.7466" y1="17.6442" x2="64.4909" y2="17.6442" gradientUnits="userSpaceOnUse">
<stop stop-color="#E9E9E9"/>
<stop offset="0.5" stop-color="#F6F6F6"/>
<stop offset="1" stop-color="#E9E9E9"/>
</linearGradient>
<linearGradient id="paint52_linear_104_532" x1="51.8267" y1="19.4135" x2="57.3503" y2="19.4135" gradientUnits="userSpaceOnUse">
<stop stop-color="#E9E9E9"/>
<stop offset="0.5" stop-color="#F6F6F6"/>
<stop offset="1" stop-color="#E9E9E9"/>
</linearGradient>
<linearGradient id="paint53_linear_104_532" x1="44.7173" y1="21.2364" x2="50.009" y2="21.2364" gradientUnits="userSpaceOnUse">
<stop stop-color="#E9E9E9"/>
<stop offset="0.5" stop-color="#F6F6F6"/>
<stop offset="1" stop-color="#E9E9E9"/>
</linearGradient>
<linearGradient id="paint54_linear_104_532" x1="37.5121" y1="22.8533" x2="42.4995" y2="22.8533" gradientUnits="userSpaceOnUse">
<stop stop-color="#E9E9E9"/>
<stop offset="0.5" stop-color="#F6F6F6"/>
<stop offset="1" stop-color="#E9E9E9"/>
</linearGradient>
<linearGradient id="paint55_linear_104_532" x1="30.1955" y1="24.2081" x2="34.9408" y2="24.2081" gradientUnits="userSpaceOnUse">
<stop stop-color="#E9E9E9"/>
<stop offset="0.5" stop-color="#F6F6F6"/>
<stop offset="1" stop-color="#E9E9E9"/>
</linearGradient>
<linearGradient id="paint56_linear_104_532" x1="22.8385" y1="25.1428" x2="27.3357" y2="25.1428" gradientUnits="userSpaceOnUse">
<stop stop-color="#E9E9E9"/>
<stop offset="0.5" stop-color="#F6F6F6"/>
<stop offset="1" stop-color="#E9E9E9"/>
</linearGradient>
<linearGradient id="paint57_linear_104_532" x1="15.4309" y1="25.5715" x2="19.7684" y2="25.5715" gradientUnits="userSpaceOnUse">
<stop stop-color="#E9E9E9"/>
<stop offset="0.5" stop-color="#F6F6F6"/>
<stop offset="1" stop-color="#E9E9E9"/>
</linearGradient>
<linearGradient id="paint58_linear_104_532" x1="8.11664" y1="25.4089" x2="12.1897" y2="25.4089" gradientUnits="userSpaceOnUse">
<stop stop-color="#E9E9E9"/>
<stop offset="0.5" stop-color="#F6F6F6"/>
<stop offset="1" stop-color="#E9E9E9"/>
</linearGradient>
<linearGradient id="paint59_linear_104_532" x1="0.0655518" y1="25.1869" x2="1.98488" y2="24.1331" gradientUnits="userSpaceOnUse">
<stop stop-color="#E9E9E9"/>
<stop offset="0.5" stop-color="#F6F6F6"/>
<stop offset="1" stop-color="#E9E9E9"/>
</linearGradient>
<linearGradient id="paint60_linear_104_532" x1="98.1476" y1="11.911" x2="103.373" y2="11.911" gradientUnits="userSpaceOnUse">
<stop stop-color="#E9E9E9"/>
<stop offset="0.5" stop-color="#F6F6F6"/>
<stop offset="1" stop-color="#E9E9E9"/>
</linearGradient>
<linearGradient id="paint61_linear_104_532" x1="94.9815" y1="6.52949" x2="99.9838" y2="6.52949" gradientUnits="userSpaceOnUse">
<stop stop-color="#E9E9E9"/>
<stop offset="0.5" stop-color="#F6F6F6"/>
<stop offset="1" stop-color="#E9E9E9"/>
</linearGradient>
<linearGradient id="paint62_linear_104_532" x1="90.441" y1="2.76143" x2="95.4193" y2="2.76143" gradientUnits="userSpaceOnUse">
<stop stop-color="#E9E9E9"/>
<stop offset="0.5" stop-color="#F6F6F6"/>
<stop offset="1" stop-color="#E9E9E9"/>
</linearGradient>
<linearGradient id="paint63_linear_104_532" x1="84.601" y1="0.654128" x2="89.9345" y2="0.654128" gradientUnits="userSpaceOnUse">
<stop stop-color="#E9E9E9"/>
<stop offset="0.5" stop-color="#F6F6F6"/>
<stop offset="1" stop-color="#E9E9E9"/>
</linearGradient>
<linearGradient id="paint64_linear_104_532" x1="77.7771" y1="0" x2="83.6883" y2="0" gradientUnits="userSpaceOnUse">
<stop stop-color="#E9E9E9"/>
<stop offset="0.5" stop-color="#F6F6F6"/>
<stop offset="1" stop-color="#E9E9E9"/>
</linearGradient>
<linearGradient id="paint65_linear_104_532" x1="70.175" y1="0.483009" x2="76.8384" y2="0.483009" gradientUnits="userSpaceOnUse">
<stop stop-color="#E9E9E9"/>
<stop offset="0.5" stop-color="#F6F6F6"/>
<stop offset="1" stop-color="#E9E9E9"/>
</linearGradient>
<linearGradient id="paint66_linear_104_532" x1="62.4521" y1="2.13822" x2="69.293" y2="2.13822" gradientUnits="userSpaceOnUse">
<stop stop-color="#E9E9E9"/>
<stop offset="0.5" stop-color="#F6F6F6"/>
<stop offset="1" stop-color="#E9E9E9"/>
</linearGradient>
<linearGradient id="paint67_linear_104_532" x1="54.8142" y1="4.66796" x2="61.0456" y2="4.66796" gradientUnits="userSpaceOnUse">
<stop stop-color="#E9E9E9"/>
<stop offset="0.5" stop-color="#F6F6F6"/>
<stop offset="1" stop-color="#E9E9E9"/>
</linearGradient>
<linearGradient id="paint68_linear_104_532" x1="46.9923" y1="7.45091" x2="52.7803" y2="7.45091" gradientUnits="userSpaceOnUse">
<stop stop-color="#E9E9E9"/>
<stop offset="0.5" stop-color="#F6F6F6"/>
<stop offset="1" stop-color="#E9E9E9"/>
</linearGradient>
<linearGradient id="paint69_linear_104_532" x1="39.1614" y1="10.1079" x2="44.4691" y2="10.1079" gradientUnits="userSpaceOnUse">
<stop stop-color="#E9E9E9"/>
<stop offset="0.5" stop-color="#F6F6F6"/>
<stop offset="1" stop-color="#E9E9E9"/>
</linearGradient>
<linearGradient id="paint70_linear_104_532" x1="31.303" y1="12.4576" x2="36.2591" y2="12.4576" gradientUnits="userSpaceOnUse">
<stop stop-color="#E9E9E9"/>
<stop offset="0.5" stop-color="#F6F6F6"/>
<stop offset="1" stop-color="#E9E9E9"/>
</linearGradient>
<linearGradient id="paint71_linear_104_532" x1="23.5021" y1="14.2776" x2="28.1419" y2="14.2776" gradientUnits="userSpaceOnUse">
<stop stop-color="#E9E9E9"/>
<stop offset="0.5" stop-color="#F6F6F6"/>
<stop offset="1" stop-color="#E9E9E9"/>
</linearGradient>
<linearGradient id="paint72_linear_104_532" x1="15.76" y1="15.4137" x2="20.1813" y2="15.4137" gradientUnits="userSpaceOnUse">
<stop stop-color="#E9E9E9"/>
<stop offset="0.5" stop-color="#F6F6F6"/>
<stop offset="1" stop-color="#E9E9E9"/>
</linearGradient>
<linearGradient id="paint73_linear_104_532" x1="8.2095" y1="15.7158" x2="12.3467" y2="15.7158" gradientUnits="userSpaceOnUse">
<stop stop-color="#E9E9E9"/>
<stop offset="0.5" stop-color="#F6F6F6"/>
<stop offset="1" stop-color="#E9E9E9"/>
</linearGradient>
<linearGradient id="paint74_linear_104_532" x1="0.0670471" y1="15.6358" x2="1.99896" y2="14.5756" gradientUnits="userSpaceOnUse">
<stop stop-color="#E9E9E9"/>
<stop offset="0.5" stop-color="#F6F6F6"/>
<stop offset="1" stop-color="#E9E9E9"/>
</linearGradient>
<linearGradient id="paint75_linear_104_532" x1="103.448" y1="28.6116" x2="342" y2="28.6116" gradientUnits="userSpaceOnUse">
<stop stop-color="#E9E9E9"/>
<stop offset="0.5" stop-color="#F6F6F6"/>
<stop offset="1" stop-color="#E9E9E9"/>
</linearGradient>
</defs>
</svg>
