<?xml version="1.0" encoding="utf-8"?>
<!-- Generator: Adobe Illustrator 24.2.0, SVG Export Plug-In . SVG Version: 6.00 Build 0)  -->
<svg version="1.1" id="Layer_1" xmlns="http://www.w3.org/2000/svg" xmlns:xlink="http://www.w3.org/1999/xlink" x="0px" y="0px"
	 viewBox="0 0 1000 1000" style="enable-background:new 0 0 1000 1000;" xml:space="preserve">
<style type="text/css">
	.st0{fill:rgba(18, 20, 59, 1);
	mix-blend-mode: color-burn;}

</style>
<path class="st0" d="M826.1,428c0-181.4-147-328.4-328.4-328.4c-101.1,0-191.6,45.7-251.8,117.6c54.8-56.2,131.3-91.1,216-91.1
	c166.6,0,301.6,135,301.6,301.6c0,138.4-93.2,255-220.3,290.5c-3-6.5-6-13-9-19.6c-4.2-9.4-11.6-16.4-17.9-24
	c-9.8-11.8-22.1-20.8-34.5-29.7c-3.6-2.6-5.9-6.5-7.8-10.7c-2.1-4.7-3.4-9.9-6.7-14c-1.4-1.8-1.8-4.1-2.1-6
	c-0.3-2.5,2.6-3.4,4.5-3.8c10-2.2,19.3-6.6,29.2-9c8.5-2,17.4-3,26.2-0.5c8.2,2.3,16,0.9,23.9-1.5c5.3-1.6,10.5-3,16.2-1.2
	c3.4,1,7,0.3,10.3-1c2.2-0.9,2.6-3.6,0.7-5.2c-1.4-1.2-3.1-2-4.9-2.1c-3.2-0.1-6.2-1.3-9.1-2.5c-1.4-0.6-2.3-1.6-3.3-2.7
	c-3-3.6-6.7-6.4-11.7-6.5c-8.8-0.2-17-2.2-24.8-6.2c-4-2.1-8.3-4.5-12.6-4.8c-5.6-0.4-11.5,0.8-16.2,4.9c-2.6,2.3-4.9,5-7.6,7.3
	c-6.2,5.3-14.1,5.2-21.4,6.9c-3,0.7-6,1.1-9,1.7c-1.6,0.3-2.5-0.5-2.8-1.8c-2.2-12.1-7.3-23.3-10.9-34.9c-2.8-8.9-4.7-17.9-5.5-27.2
	c-0.3-3.2,0.4-6.3,0.4-9.4c0-7.3-2.2-13.9-5.2-20.5c-3.1-6.9-8.6-11.5-14.1-16.1c-10.1-8.6-19.6-17.8-28.5-27.6
	c-2.3-2.5-4.6-5-6.8-7.6c-4.2-5-3.8-10.7,0.5-15.6c4.7-5.4,11-8.6,16.5-12.9c12.6-9.7,24.4-20.3,35-32.1c1.4-1.5,2.4-3.3,3.7-4.9
	c1.4-1.8,2.3-1.8,3.1,0.6c2.4,7.1,4.9,14.1,7.4,21.1c2.8,7.9,6.2,15.6,12.1,21.7c7.1,7.3,15.8,11.8,25.8,13.4
	c4.9,0.8,9.6-1.3,13.8-3.9c7.6-4.7,12-12.2,16.8-19.3c0.8-1.1,0.3-2.4,0.5-3.7c0.2-1.2,1-1.7,2.1-2c1.2-0.2,1.4,0.8,1.9,1.6
	c6.6,13,16.9,20.7,31.6,21.6c5.7,0.4,11-2,14.1-6.7c3.4-5,6.3-10.6,8.2-16.3c2.2-6.5,2.3-13.6,1.6-20.5c-0.9-8.2-0.5-16.5-1.2-24.8
	c-0.7-8.1-1.4-16.2-2-24.3c-0.2-3.7,0.1-7.5,0-11.2c-0.1-9.5,0.2-19,1.6-28.3c1.1-7.8,0.5-15.8,1.8-23.6c1.2-7.2,2.8-14.4,4.7-21.5
	c1.5-5.6,2.6-11.2,4.3-16.7c1-3.3,2-6.7,4.1-9.6c0.8-1.1,1.1-2.9,2.6-2.8c1.6,0.1,2.5,1.5,3.5,2.8c4.6,6.4,6.5,13.8,8.7,21.2
	c5,17,5.4,34.3,4.9,51.8c-0.2,5.7-1.9,11.3-3.1,17c-0.9,4.4-2.5,8.7-2.9,13.2c-1.2,14.1-6.1,27-11.4,39.9c-1.5,3.7-2.6,7.5-3.7,11.3
	c-2,6.7-4.2,13.3-6.7,19.9c-1.5,4-2,8.3-3.5,12.3c-2.8,7.4-5.1,15-7.2,22.6c-0.9,3.3-0.7,6.5-0.7,9.8c-0.1,7.8-0.4,15.6,1.4,23.2
	c0.6,2.3,1.9,4.4,3,6.4c4.1,7.5,8,15.4,14.4,21.3c4.7,4.4,10.8,6.9,16.6,9.7c6.5,3.2,13.2,5.9,19.9,8.5c4.7,1.8,9.6,2.6,14.4,3.7
	c0.7,0.2,1.6,0.1,2.3-0.1c1-0.3,2.6,0.2,2.9-1.2c0.4-1.6-1.2-2-2.3-2.5c-5.1-2.3-8.2-7.1-12.7-10.1c-6.3-4.3-11.6-9.6-17.1-14.9
	c-4.9-4.8-8.6-10.5-12.7-15.9c-5.6-7.5-8.3-16.3-11-24.9c-4.8-15.2-4.8-30.8-0.1-46.1c1.8-6,5.4-11.4,9-16.6
	c4.3-6.3,7.6-13.1,11.4-19.6c1.7-2.9,3.3-6,5.2-8.7c5.3-7.5,9.4-15.7,13.2-24c9-19.3,14.4-39.4,12.9-61.1c-0.7-10-1.6-19.9-5.4-29.2
	c-3-7.5-5.7-15.3-10.7-21.8c-6.4-8.4-13.1-16.5-22.7-21.8c-10.8-6-26.9-1.5-33.1,7.3c-4.8,6.8-10.8,12.8-14.6,20.4
	c-2.2,4.3-4.4,8.6-5.8,13.4c-1.3,4.6-3,9-4.4,13.6c-0.5,1.6-0.6,3.2-1,5.2c-1.4-1.2-1.2-2.2-1.2-3.2c-0.1-6.8-2.5-12.3-8.4-16.1
	c-1.8-1.1-3.3-2.7-5-4c-0.9-0.7-2-1.2-3.2-0.5c-1.2,0.7-0.5,1.7-0.4,2.7c0.2,1.5,0.8,3.1,0.4,4.7c-1.3,0.4-1.7-0.6-2.2-1.2
	c-2.4-2.8-4.9-5-8.6-6.3c-2.4-0.9-4.5-1.2-6.8-0.1c-4.8,2.2-8.8,5.5-11.6,10.1c-0.2,0.3-0.5,0.6-0.5,0.9c0.1,5.6-4.7,8.8-6.8,13.3
	c-0.5,1.1-1.5,2-2.5,2.8c-4.6,3.8-9.9,2.2-11.9-3.3c-0.4-1.1-0.5-2.2-0.8-3.3c-0.8-2.5-2.4-3.6-4.6-1.8c-2.5,2-5.6,2.5-8.1,4.4
	c-0.3,0.2-0.7,0.5-0.9,0.4c-5.4-2.1-9.4,2.6-14.6,2.8c-5.9,0.2-10.8,6.9-12.2,14.1c-1.1,5.6-2.1,11.2-4.2,17.2
	c-2.8-10.2-8.2-18.6-11.8-27.6c-5.8-14.7-16-25.8-26.6-36.9c-10.5-11.2-23.2-19.1-36.5-26.1c-3.3-1.8-7.6-1.9-11.5-2.3
	c-13.4-1.3-25.1,3.4-36.2,10.4c-4.1,2.6-7.9,5.7-11.7,8.7c-5.1,4-7.7,9.7-10.5,15.2c-8.2,15.9-11.7,33.1-14.2,50.6
	c-0.7,4.6-1.4,9.2-1.3,13.8c0.1,2.7-0.7,4.2-4.1,4.3c-4.8,0.1-9.3-1.5-14-1.8c-6.5-0.4-13.1-0.6-19.6-1c-4.7-0.3-9.7,0.2-14.1,2.8
	c-1.6,1-2.6,2.1-3,3.9c-0.9,3.6-2.2,7.1-2.3,10.9c0,1.5-0.3,2.5-2.2,1.7c-1.9-0.8-3,0.1-3.6,1.9c-0.1,0.2-0.1,0.5-0.2,0.6
	c-5,3-1.7,6.6-0.6,9.9c1,2.9,0.6,4.7-2.7,6.1c-5.4,2.3-7.9,7-8.3,12.8c-0.1,0.9-0.1,1.8-0.1,2.7c-0.1,5.1-0.1,5-5,4.1
	c-1.1-0.2-2.4-1.4-3.3,0.2c-0.7,1.3,0.4,2.1,1,3c0.6,0.9,1.6,1.9,0.8,3.1c-0.9,1.3-1.8-0.4-2.7-0.3c-2.5,0.3-5.2-1.2-7.5,1
	c-1.2,1.1-1.3,1.6,0.2,2.5c7.1,4.1,7,4.3,0.3,9.2c-1,0.7-2,1.5-2.8,2.5c-1,1.1-2.3,2.3-1.2,3.8c1.1,1.6,2.7,1.2,4.2,0.4
	c2.3-1.2,4.8-2.1,7.3-2.6c0.9-0.2,1.8-0.9,2.6-0.1c0.8,0.8,0.2,1.7-0.2,2.5c-1,2.1-0.4,4.5-1,6.7c-0.4,1.5-0.1,2.9,1.5,3.3
	c1.8,0.5,2.8-1,3.1-2.4c0.7-3.3,1.8-6.4,3.9-8.9c2.2-2.5,4-5.2,5-8.4c2.3-7.4,6.6-13.9,8.3-21.5c0.3-1.5,1-2,2.6-1.9
	c15.2,0.1,30.4,0.2,45.5,1.2c4.5,0.3,9,0.3,13.5,0.4c2.5,0,3.2,1.4,3.4,3.7c0.5,7.3,1.5,14.6,1.8,21.9c0.3,5.7-0.3,11.4-2.1,16.7
	c-2.2,6.8-2.9,13.9-4.4,20.9c-1.5,6.9-4.1,13.1-7.5,19.1c-2.4,4.3-4.9,8.7-7,13.1c-4.2,8.7-11.2,15-18.6,20.7
	c-4.6,3.6-9.3,7-14.7,9.6c-6.8,3.2-10.3,9.7-12,16.8c-1.3,5.2-0.5,10.6,1.3,15.7c0.3,0.8,0.4,2,1.5,2c1.1,0,1.2-1.1,1.3-2
	c1.1-6,2.7-11.8,6.1-17.1c2.5-3.9,6.2-6.3,9.9-8.5c2.3-1.3,4.5-2.8,6.1-4.7c2-2.3,4.4-2.7,7-2.3c6.1,0.9,12.2,0,18.2,0.4
	c0.5,0,1.2,0,1.6-0.4c4.8-4,9.7-7.8,13.8-12.5c1.8-2,3.2-4.4,5.1-6.3c5.3-5.2,6.7-11.9,7.9-18.7c1.8-10.2,2.2-20.5,2-30.8
	c-0.2-9.4-1.5-18.6-3.6-27.9c-2.1-9.2-5.6-17.8-8.7-26.7c-0.8-2.2,0.3-3,2.3-3c3.8,0,7.7-0.1,11.5,0.3c4.7,0.5,9.4,0.7,14.2,0.5
	c11.1-0.3,22.2-0.2,33.3-0.2c1.9,0,3.5,0.3,3.4,2.7c-0.3,5.4,2,10.2,4.1,14.9c1.4,3.2,0.8,5.4-1.7,7.5c-4.9,4.1-7.9,9.6-9.8,15.3
	c-5.4,16.1-7.4,32.7-8,49.7c-0.5,11.8,1.6,23.2,3.2,34.7c0.7,5.1,3.8,8.6,6.5,12.5c3.3,4.8,5.8,10.2,9.5,14.8c0.5,0.7,0.5,1.4,0,2.2
	c-6.7,11.2-13.7,22.1-20.2,33.4c-5.9,10.3-10.9,21-14.9,32.3c-2.6,7.4-6.7,14.4-8.3,22.2c-2.5,11.9-6.1,23.7-5.9,36.1
	c0,2.2,0.3,4.1,1.7,5.6c3.4,3.6,6.3,8.2,10.5,10.5c8.5,4.9,17.7,7.3,27.8,3.6c9.7-3.6,19.2-7.5,28.8-11.1c5.4-2,11.2-3.1,16.9-4.4
	c10.5-2.5,20.8-5.3,30.8-9.3c2.2-0.9,4.6-1.7,6.9-1.7c2.9-0.1,2.8,3.2,4,5c6.7,10,15.4,18.4,22.7,27.9c4.1,5.4,8.2,10.8,12.6,15.9
	c4.6,5.3,9,10.7,13.3,16.3c3.7,4.8,7.4,9.7,10.9,14.7c1.2,1.7,2.6,3.2,4.2,4.4c4.3,3.3,5,8.8,8.1,12.8c2,2.6,4,5.3,6,8
	c-13.9,2-28,3-42.4,3c-87.2,0-165.7-37-220.7-96.1c60.2,75.2,152.7,123.4,256.6,123.4c9.3,0,18.4-0.4,27.5-1.2
	c3.9,6.6,8.6,12.7,13.1,19c4.3,5.9,8.5,11.9,12.6,18.1c5,7.6,9.5,15.6,14.2,23.4c5.1,8.4,9.4,17.3,15.2,25.3
	c5.3,7.2,7.7,15.9,13.3,22.8c4.4,5.6,8.8,11.2,13.1,16.8c3.3,4.3,6.4,8.8,8.5,13.9c0.9,2.3,2.3,3.9,4.6,4.6c1.5,0.5,3.1,1.4,4.5,0.1
	c1.4-1.3,1.2-3.1,1.1-4.8c0-0.3-0.3-0.6-0.3-1c-1.1-5.4-3-10.5-2.8-16.3c0.3-5.9-2.2-11.5-6.1-16.2c-2.9-3.5-5.6-7.1-7.5-11.3
	c-1.3-3-1-6.1-0.4-9.3c1-5.2,0-10.4-2.3-15c-1.9-3.7-9-5.9-13.3-4.9c-3.4,0.8-6.9-1.2-8.9-5.1c-5.9-11.4-9.9-23.6-15-35.3
	c-1.4-3.2-3.4-6.1-4.9-9.3c-3-6.4-5.2-13.1-7.4-19.7C709.8,723.5,826.1,589.4,826.1,428z M535.1,379.3c5.6,0,10.6-1.5,14.7-5.6
	c0.6-0.6,1.2-1.2,2-0.9c1.1,0.4,0.7,1.5,0.7,2.4c0.1,1.2,0,2.5,0,4.3c0.3,3.5-0.8,7.2-2.3,10.9c-1.1,2.7-2.5,2.7-4.6,1.7
	c-4.9-2.3-7.8-6.7-11.4-10.4C533.7,381.1,532.5,379.3,535.1,379.3z M453.3,347.5c0.4-1.6,0.3-3.8,2.2-4.2c1.6-0.4,2.7,1.4,3.7,2.6
	c3.7,4.5,7.8,8.6,12.4,12c11.4,8.4,24.1,11.5,38.1,8.2c1.6-0.4,3.6-1.9,4.8-0.4c1.2,1.4-1.2,2.6-1.8,3.9
	c-5.1,10.9-12.7,19.8-22.9,26.1c-5,3.1-10.8,5.8-16.7,0.7c-5-4.3-10.2-8.1-12.9-14.5c-1.7-3.9-2.7-7.8-3.4-11.9
	c-1.1-6.1-3.6-11.9-3.9-18.2C452.3,350.3,452.9,348.9,453.3,347.5z M270,325.9c-0.2,2.4-2,1.9-3.6,1.7c-0.8-0.1-1.7-0.2-2.4,0
	c-5.9,2.1-12,1.5-18.1,1.9c-3.3,0.3-6.5,0.5-9.8,0.8c-2,0.2-3-0.3-2.8-2.5c0.3-2.5-0.1-4.9-1.4-7.2c-0.9-1.7-1.2-3.9-0.1-5.5
	c1-1.3,3-0.4,4.5-0.2c10.4,1.4,20.6,3.7,30.7,6.2C270.1,321.8,270.2,323.7,270,325.9z M347.7,311.3c-8.7-0.4-17.3-2.4-25.9-2.9
	c-12.9-0.7-25.1-4.7-37.9-5.3c-2-0.1-2.9-1.2-2.4-3.5c0.8-3.4,2.1-6.5,3.9-9.3c3.5-5.5,4.5-12.3,9.4-17c1.7-1.6,3.2-3.4,4.8-5.2
	c7.6-8.2,16.3-14.5,27.6-16.2c3.1-0.5,6.3-0.1,9.5-0.1c7.2-0.5,14.1,0.8,20.9,3.2c6.3,2.2,12.2,4.6,17,9.4
	c5.4,5.4,9.5,11.7,13.9,17.9c4.1,5.8,8.8,11.2,13.2,16.7c1.6,2,3.2,4,3.9,6.7c1.5,5.6,1.6,5.5-4.3,5.4c-0.8,0-1.6,0.2-2.3,0.4
	c-3,0.5-6,1.2-9,1.5C375.8,314.1,361.8,311.9,347.7,311.3z M402.8,593.6c-3-0.4-5.9,0-8.8,0.1c-14.4,0.2-28.8,0.6-42.5,6.1
	c-1,0.4-2.5,0.8-3-0.9c0.3-1.8,2.1-2,3-3.2c4.3-5.5,8.2-11.4,13.4-16.2c5.5-5.2,10.8-10.7,15.4-16.7c2.2-2.9,4.4-3.2,6.2,0
	c5.4,9.7,11,19.2,17.6,28.2C405.1,592.3,405.1,593.8,402.8,593.6z"/>
</svg>
